CooperHewittInterpol1-Thin.ufo
<glyph name="numbersign" format="1">
  <advance width="600"/>
  <unicode hex="0023"/>
  <outline>
    <contour>
      <point x="232" y="510" type="line" smooth="yes"/>
      <point x="425" y="510" type="line" smooth="yes"/>
      <point x="368" y="270" type="line" smooth="yes"/>
      <point x="174" y="270" type="line" smooth="yes"/>
    </contour>
    <contour>
      <point x="100" y="510" type="line" smooth="yes"/>
      <point x="212" y="510" type="line" smooth="yes"/>
      <point x="155" y="270" type="line" smooth="yes"/>
      <point x="37" y="270" type="line" smooth="yes"/>
      <point x="37" y="250" type="line" smooth="yes"/>
      <point x="150" y="250" type="line" smooth="yes"/>
      <point x="90" y="0" type="line" smooth="yes"/>
      <point x="110" y="0" type="line" smooth="yes"/>
      <point x="169" y="250" type="line" smooth="yes"/>
      <point x="363" y="250" type="line" smooth="yes"/>
      <point x="303" y="0" type="line" smooth="yes"/>
      <point x="323" y="0" type="line" smooth="yes"/>
      <point x="382" y="250" type="line" smooth="yes"/>
      <point x="500" y="250" type="line" smooth="yes"/>
      <point x="500" y="270" type="line" smooth="yes"/>
      <point x="387" y="270" type="line" smooth="yes"/>
      <point x="445" y="510" type="line" smooth="yes"/>
      <point x="563" y="510" type="line" smooth="yes"/>
      <point x="563" y="530" type="line" smooth="yes"/>
      <point x="450" y="530" type="line" smooth="yes"/>
      <point x="510" y="780" type="line" smooth="yes"/>
      <point x="490" y="780" type="line" smooth="yes"/>
      <point x="430" y="530" type="line" smooth="yes"/>
      <point x="237" y="530" type="line" smooth="yes"/>
      <point x="297" y="780" type="line" smooth="yes"/>
      <point x="277" y="780" type="line" smooth="yes"/>
      <point x="217" y="530" type="line" smooth="yes"/>
      <point x="100" y="530" type="line" smooth="yes"/>
    </contour>
  </outline>
</glyph>
<glyph name="dollar" format="1">
  <advance width="600"/>
  <unicode hex="0024"/>
  <outline>
    <contour>
      <point x="101" y="549" type="line" smooth="yes"/>
      <point x="101" y="554" type="line" smooth="yes"/>
      <point x="159" y="661" type="line" smooth="yes"/>
      <point x="298" y="700" type="line" smooth="yes"/>
      <point x="301" y="700" type="line" smooth="yes"/>
      <point x="331" y="699" type="line" smooth="yes"/>
      <point x="358" y="695" type="line" smooth="yes"/>
      <point x="290" y="411" type="line" smooth="yes"/>
      <point x="144" y="455" type="line" smooth="yes"/>
    </contour>
    <contour>
      <point x="505" y="239" type="line" smooth="yes"/>
      <point x="505" y="234" type="line" smooth="yes"/>
      <point x="446" y="121" type="line" smooth="yes"/>
      <point x="301" y="80" type="line" smooth="yes"/>
      <point x="298" y="80" type="line" smooth="yes"/>
      <point x="264" y="82" type="line" smooth="yes"/>
      <point x="233" y="86" type="line" smooth="yes"/>
      <point x="305" y="390" type="line" smooth="yes"/>
      <point x="455" y="346" type="line" smooth="yes"/>
    </contour>
    <contour>
      <point x="413" y="840" type="line" smooth="yes"/>
      <point x="393" y="840" type="line" smooth="yes"/>
      <point x="363" y="714" type="line" smooth="yes"/>
      <point x="332" y="719" type="line" smooth="yes"/>
      <point x="299" y="720" type="line" smooth="yes"/>
      <point x="143" y="675" type="line" smooth="yes"/>
      <point x="80" y="553" type="line" smooth="yes"/>
      <point x="80" y="545" type="line" smooth="yes"/>
      <point x="127" y="444" type="line" smooth="yes"/>
      <point x="286" y="392" type="line" smooth="yes"/>
      <point x="214" y="91" type="line" smooth="yes"/>
      <point x="125" y="157" type="line" smooth="yes"/>
      <point x="95" y="271" type="line" smooth="yes"/>
      <point x="75" y="271" type="line" smooth="yes"/>
      <point x="75" y="266" type="line" smooth="yes"/>
      <point x="107" y="147" type="line" smooth="yes"/>
      <point x="209" y="72" type="line" smooth="yes"/>
      <point x="178" y="-60" type="line" smooth="yes"/>
      <point x="198" y="-60" type="line" smooth="yes"/>
      <point x="228" y="67" type="line" smooth="yes"/>
      <point x="262" y="62" type="line" smooth="yes"/>
      <point x="300" y="60" type="line" smooth="yes"/>
      <point x="460" y="106" type="line" smooth="yes"/>
      <point x="525" y="235" type="line" smooth="yes"/>
      <point x="525" y="243" type="line" smooth="yes"/>
      <point x="474" y="357" type="line" smooth="yes"/>
      <point x="310" y="409" type="line" smooth="yes"/>
      <point x="377" y="690" type="line" smooth="yes"/>
      <point x="469" y="625" type="line" smooth="yes"/>
      <point x="500" y="498" type="line" smooth="yes"/>
      <point x="520" y="498" type="line" smooth="yes"/>
      <point x="520" y="512" type="line" smooth="yes"/>
      <point x="486" y="637" type="line" smooth="yes"/>
      <point x="382" y="709" type="line" smooth="yes"/>
    </contour>
  </outline>
</glyph>
<glyph name="ampersand" format="1">
  <advance width="640"/>
  <unicode hex="0026"/>
  <outline>
    <contour>
      <point x="105" y="640" type="line" smooth="yes"/>
      <point x="141" y="729" type="line" smooth="yes"/>
      <point x="246" y="766" type="line" smooth="yes"/>
      <point x="254" y="766" type="line" smooth="yes"/>
      <point x="359" y="729" type="line" smooth="yes"/>
      <point x="395" y="640" type="line" smooth="yes"/>
      <point x="395" y="630" type="line" smooth="yes"/>
      <point x="339" y="521" type="line" smooth="yes"/>
      <point x="218" y="434" type="line" smooth="yes"/>
      <point x="138" y="529" type="line" smooth="yes"/>
      <point x="105" y="630" type="line" smooth="yes"/>
    </contour>
    <contour>
      <point x="272" y="14" type="line" smooth="yes"/>
      <point x="130" y="64" type="line" smooth="yes"/>
      <point x="80" y="200" type="line" smooth="yes"/>
      <point x="80" y="210" type="line" smooth="yes"/>
      <point x="120" y="327" type="line" smooth="yes"/>
      <point x="214" y="411" type="line" smooth="yes"/>
      <point x="486" y="124" type="line" smooth="yes"/>
      <point x="390" y="37" type="line" smooth="yes"/>
      <point x="278" y="14" type="line" smooth="yes"/>
    </contour>
    <contour>
      <point x="275" y="-6" type="line" smooth="yes"/>
      <point x="400" y="20" type="line" smooth="yes"/>
      <point x="500" y="110" type="line" smooth="yes"/>
      <point x="604" y="0" type="line" smooth="yes"/>
      <point x="630" y="0" type="line" smooth="yes"/>
      <point x="510" y="127" type="line" smooth="yes"/>
      <point x="550" y="240" type="line" smooth="yes"/>
      <point x="565" y="395" type="line" smooth="yes"/>
      <point x="545" y="395" type="line" smooth="yes"/>
      <point x="545" y="390" type="line" smooth="yes"/>
      <point x="531" y="245" type="line" smooth="yes"/>
      <point x="495" y="142" type="line" smooth="yes"/>
      <point x="230" y="422" type="line" smooth="yes"/>
      <point x="356" y="513" type="line" smooth="yes"/>
      <point x="415" y="630" type="line" smooth="yes"/>
      <point x="415" y="640" type="line" smooth="yes"/>
      <point x="374" y="743" type="line" smooth="yes"/>
      <point x="250" y="786" type="line" smooth="yes"/>
      <point x="126" y="743" type="line" smooth="yes"/>
      <point x="85" y="640" type="line" smooth="yes"/>
      <point x="85" y="630" type="line" smooth="yes"/>
      <point x="117" y="525" type="line" smooth="yes"/>
      <point x="202" y="423" type="line" smooth="yes"/>
      <point x="103" y="335" type="line" smooth="yes"/>
      <point x="60" y="210" type="line" smooth="yes"/>
      <point x="60" y="200" type="line" smooth="yes"/>
      <point x="117" y="46" type="line" smooth="yes"/>
    </contour>
  </outline>
</glyph>
<glyph name="parenleft" format="1">
  <advance width="300"/>
  <unicode hex="0028"/>
  <outline>
    <contour>
      <point x="65" y="350" type="line" smooth="yes"/>
      <point x="114" y="69" type="line" smooth="yes"/>
      <point x="227" y="-120" type="line" smooth="yes"/>
      <point x="250" y="-120" type="line" smooth="yes"/>
      <point x="132" y="78" type="line" smooth="yes"/>
      <point x="85" y="350" type="line" smooth="yes"/>
      <point x="85" y="370" type="line" smooth="yes"/>
      <point x="132" y="643" type="line" smooth="yes"/>
      <point x="250" y="840" type="line" smooth="yes"/>
      <point x="227" y="840" type="line" smooth="yes"/>
      <point x="114" y="651" type="line" smooth="yes"/>
      <point x="65" y="370" type="line" smooth="yes"/>
    </contour>
  </outline>
</glyph>
<glyph name="parenright" format="1">
  <advance width="300"/>
  <unicode hex="0029"/>
  <outline>
    <contour>
      <point x="235" y="370" type="line" smooth="yes"/>
      <point x="186" y="651" type="line" smooth="yes"/>
      <point x="73" y="840" type="line" smooth="yes"/>
      <point x="50" y="840" type="line" smooth="yes"/>
      <point x="168" y="643" type="line" smooth="yes"/>
      <point x="215" y="370" type="line" smooth="yes"/>
      <point x="215" y="350" type="line" smooth="yes"/>
      <point x="168" y="78" type="line" smooth="yes"/>
      <point x="50" y="-120" type="line" smooth="yes"/>
      <point x="73" y="-120" type="line" smooth="yes"/>
      <point x="186" y="69" type="line" smooth="yes"/>
      <point x="235" y="350" type="line" smooth="yes"/>
    </contour>
  </outline>
</glyph>
<glyph name="slash" format="1">
  <advance width="300"/>
  <unicode hex="002F"/>
  <outline>
    <contour>
      <point x="275" y="840" type="line" smooth="yes"/>
      <point x="255" y="840" type="line" smooth="yes"/>
      <point x="25" y="-120" type="line" smooth="yes"/>
      <point x="45" y="-120" type="line" smooth="yes"/>
    </contour>
  </outline>
</glyph>
<glyph name="zero" format="1">
  <advance width="600"/>
  <unicode hex="0030"/>
  <outline>
    <contour>
      <point x="90" y="250" type="line" smooth="yes"/>
      <point x="90" y="530" type="line" smooth="yes"/>
      <point x="147" y="710" type="line" smooth="yes"/>
      <point x="297" y="766" type="line" smooth="yes"/>
      <point x="303" y="766" type="line" smooth="yes"/>
      <point x="453" y="710" type="line" smooth="yes"/>
      <point x="510" y="530" type="line" smooth="yes"/>
      <point x="510" y="250" type="line" smooth="yes"/>
      <point x="453" y="70" type="line" smooth="yes"/>
      <point x="303" y="14" type="line" smooth="yes"/>
      <point x="297" y="14" type="line" smooth="yes"/>
      <point x="147" y="70" type="line" smooth="yes"/>
    </contour>
    <contour>
      <point x="70" y="544" type="line" smooth="yes"/>
      <point x="70" y="236" type="line" smooth="yes"/>
      <point x="127" y="61" type="line" smooth="yes"/>
      <point x="300" y="-6" type="line" smooth="yes"/>
      <point x="473" y="61" type="line" smooth="yes"/>
      <point x="530" y="236" type="line" smooth="yes"/>
      <point x="530" y="544" type="line" smooth="yes"/>
      <point x="473" y="719" type="line" smooth="yes"/>
      <point x="300" y="786" type="line" smooth="yes"/>
      <point x="127" y="719" type="line" smooth="yes"/>
    </contour>
  </outline>
</glyph>
<glyph name="one" format="1">
  <advance width="600"/>
  <unicode hex="0031"/>
  <outline>
    <contour>
      <point x="540" y="0" type="line" smooth="yes"/>
      <point x="540" y="20" type="line" smooth="yes"/>
      <point x="320" y="20" type="line" smooth="yes"/>
      <point x="320" y="785" type="line" smooth="yes"/>
      <point x="305" y="785" type="line" smooth="yes"/>
      <point x="70" y="627" type="line" smooth="yes"/>
      <point x="81" y="610" type="line" smooth="yes"/>
      <point x="300" y="757" type="line" smooth="yes"/>
      <point x="300" y="20" type="line" smooth="yes"/>
      <point x="80" y="20" type="line" smooth="yes"/>
      <point x="80" y="0" type="line" smooth="yes"/>
    </contour>
  </outline>
</glyph>
<glyph name="three" format="1">
  <advance width="600"/>
  <unicode hex="0033"/>
  <outline>
    <contour>
      <point x="513" y="597" type="line" smooth="yes"/>
      <point x="513" y="577" type="line" smooth="yes"/>
      <point x="460" y="454" type="line" smooth="yes"/>
      <point x="323" y="408" type="line" smooth="yes"/>
      <point x="200" y="408" type="line" smooth="yes"/>
      <point x="200" y="388" type="line" smooth="yes"/>
      <point x="323" y="388" type="line" smooth="yes"/>
      <point x="468" y="341" type="line" smooth="yes"/>
      <point x="520" y="207" type="line" smooth="yes"/>
      <point x="520" y="192" type="line" smooth="yes"/>
      <point x="458" y="60" type="line" smooth="yes"/>
      <point x="303" y="14" type="line" smooth="yes"/>
      <point x="297" y="14" type="line" smooth="yes"/>
      <point x="137" y="74" type="line" smooth="yes"/>
      <point x="80" y="250" type="line" smooth="yes"/>
      <point x="60" y="250" type="line" smooth="yes"/>
      <point x="60" y="240" type="line" smooth="yes"/>
      <point x="120" y="62" type="line" smooth="yes"/>
      <point x="300" y="-6" type="line" smooth="yes"/>
      <point x="471" y="44" type="line" smooth="yes"/>
      <point x="540" y="195" type="line" smooth="yes"/>
      <point x="540" y="205" type="line" smooth="yes"/>
      <point x="500" y="335" type="line" smooth="yes"/>
      <point x="389" y="398" type="line" smooth="yes"/>
      <point x="496" y="460" type="line" smooth="yes"/>
      <point x="535" y="582" type="line" smooth="yes"/>
      <point x="535" y="592" type="line" smooth="yes"/>
      <point x="466" y="735" type="line" smooth="yes"/>
      <point x="300" y="786" type="line" smooth="yes"/>
      <point x="121" y="721" type="line" smooth="yes"/>
      <point x="65" y="545" type="line" smooth="yes"/>
      <point x="65" y="520" type="line" smooth="yes"/>
      <point x="85" y="520" type="line" smooth="yes"/>
      <point x="138" y="708" type="line" smooth="yes"/>
      <point x="296" y="766" type="line" smooth="yes"/>
      <point x="302" y="766" type="line" smooth="yes"/>
      <point x="450" y="720" type="line" smooth="yes"/>
    </contour>
  </outline>
</glyph>
<glyph name="four" format="1">
  <advance width="600"/>
  <unicode hex="0034"/>
  <outline>
    <contour>
      <point x="391" y="753" type="line" smooth="yes"/>
      <point x="390" y="600" type="line" smooth="yes"/>
      <point x="390" y="250" type="line" smooth="yes"/>
      <point x="180" y="250" type="line" smooth="yes"/>
      <point x="66" y="249" type="line" smooth="yes"/>
    </contour>
    <contour>
      <point x="410" y="0" type="line" smooth="yes"/>
      <point x="410" y="230" type="line" smooth="yes"/>
      <point x="560" y="230" type="line" smooth="yes"/>
      <point x="560" y="250" type="line" smooth="yes"/>
      <point x="410" y="250" type="line" smooth="yes"/>
      <point x="410" y="780" type="line" smooth="yes"/>
      <point x="385" y="780" type="line" smooth="yes"/>
      <point x="40" y="245" type="line" smooth="yes"/>
      <point x="40" y="230" type="line" smooth="yes"/>
      <point x="390" y="230" type="line" smooth="yes"/>
      <point x="390" y="0" type="line" smooth="yes"/>
    </contour>
  </outline>
</glyph>
<glyph name="five" format="1">
  <advance width="600"/>
  <unicode hex="0035"/>
  <outline>
    <contour>
      <point x="297" y="466" type="line" smooth="yes"/>
      <point x="303" y="466" type="line" smooth="yes"/>
      <point x="458" y="407" type="line" smooth="yes"/>
      <point x="520" y="248" type="line" smooth="yes"/>
      <point x="520" y="232" type="line" smooth="yes"/>
      <point x="458" y="74" type="line" smooth="yes"/>
      <point x="303" y="14" type="line" smooth="yes"/>
      <point x="297" y="14" type="line" smooth="yes"/>
      <point x="137" y="74" type="line" smooth="yes"/>
      <point x="80" y="250" type="line" smooth="yes"/>
      <point x="60" y="250" type="line" smooth="yes"/>
      <point x="60" y="240" type="line" smooth="yes"/>
      <point x="120" y="62" type="line" smooth="yes"/>
      <point x="300" y="-6" type="line" smooth="yes"/>
      <point x="471" y="58" type="line" smooth="yes"/>
      <point x="540" y="235" type="line" smooth="yes"/>
      <point x="540" y="245" type="line" smooth="yes"/>
      <point x="471" y="422" type="line" smooth="yes"/>
      <point x="300" y="486" type="line" smooth="yes"/>
      <point x="171" y="458" type="line" smooth="yes"/>
      <point x="88" y="380" type="line" smooth="yes"/>
      <point x="104" y="760" type="line" smooth="yes"/>
      <point x="530" y="760" type="line" smooth="yes"/>
      <point x="530" y="780" type="line" smooth="yes"/>
      <point x="85" y="780" type="line" smooth="yes"/>
      <point x="66" y="339" type="line" smooth="yes"/>
      <point x="86" y="333" type="line" smooth="yes"/>
      <point x="165" y="433" type="line" smooth="yes"/>
    </contour>
  </outline>
</glyph>
<glyph name="six" format="1">
  <advance width="600"/>
  <unicode hex="0036"/>
  <outline>
    <contour>
      <point x="307" y="466" type="line" smooth="yes"/>
      <point x="313" y="466" type="line" smooth="yes"/>
      <point x="466" y="407" type="line" smooth="yes"/>
      <point x="525" y="248" type="line" smooth="yes"/>
      <point x="525" y="232" type="line" smooth="yes"/>
      <point x="463" y="74" type="line" smooth="yes"/>
      <point x="308" y="14" type="line" smooth="yes"/>
      <point x="302" y="14" type="line" smooth="yes"/>
      <point x="147" y="78" type="line" smooth="yes"/>
      <point x="85" y="252" type="line" smooth="yes"/>
      <point x="85" y="268" type="line" smooth="yes"/>
      <point x="86" y="290" type="line" smooth="yes"/>
      <point x="87" y="313" type="line" smooth="yes"/>
      <point x="171" y="421" type="line" smooth="yes"/>
    </contour>
    <contour>
      <point x="510" y="786" type="line" smooth="yes"/>
      <point x="330" y="742" type="line" smooth="yes"/>
      <point x="177" y="612" type="line" smooth="yes"/>
      <point x="90" y="441" type="line" smooth="yes"/>
      <point x="65" y="265" type="line" smooth="yes"/>
      <point x="65" y="255" type="line" smooth="yes"/>
      <point x="134" y="63" type="line" smooth="yes"/>
      <point x="305" y="-6" type="line" smooth="yes"/>
      <point x="476" y="58" type="line" smooth="yes"/>
      <point x="545" y="235" type="line" smooth="yes"/>
      <point x="545" y="245" type="line" smooth="yes"/>
      <point x="478" y="422" type="line" smooth="yes"/>
      <point x="310" y="486" type="line" smooth="yes"/>
      <point x="177" y="449" type="line" smooth="yes"/>
      <point x="92" y="358" type="line" smooth="yes"/>
      <point x="125" y="479" type="line" smooth="yes"/>
      <point x="191" y="599" type="line" smooth="yes"/>
      <point x="339" y="726" type="line" smooth="yes"/>
      <point x="510" y="767" type="line" smooth="yes"/>
    </contour>
  </outline>
</glyph>
<glyph name="eight" format="1">
  <advance width="600"/>
  <unicode hex="0038"/>
  <outline>
    <contour>
      <point x="303" y="766" type="line" smooth="yes"/>
      <point x="450" y="720" type="line" smooth="yes"/>
      <point x="513" y="597" type="line" smooth="yes"/>
      <point x="513" y="577" type="line" smooth="yes"/>
      <point x="460" y="454" type="line" smooth="yes"/>
      <point x="323" y="408" type="line" smooth="yes"/>
      <point x="277" y="408" type="line" smooth="yes"/>
      <point x="140" y="454" type="line" smooth="yes"/>
      <point x="87" y="577" type="line" smooth="yes"/>
      <point x="87" y="597" type="line" smooth="yes"/>
      <point x="150" y="720" type="line" smooth="yes"/>
      <point x="297" y="766" type="line" smooth="yes"/>
    </contour>
    <contour>
      <point x="277" y="388" type="line" smooth="yes"/>
      <point x="323" y="388" type="line" smooth="yes"/>
      <point x="468" y="341" type="line" smooth="yes"/>
      <point x="520" y="207" type="line" smooth="yes"/>
      <point x="520" y="192" type="line" smooth="yes"/>
      <point x="458" y="60" type="line" smooth="yes"/>
      <point x="303" y="14" type="line" smooth="yes"/>
      <point x="297" y="14" type="line" smooth="yes"/>
      <point x="142" y="60" type="line" smooth="yes"/>
      <point x="80" y="192" type="line" smooth="yes"/>
      <point x="80" y="207" type="line" smooth="yes"/>
      <point x="132" y="341" type="line" smooth="yes"/>
    </contour>
    <contour>
      <point x="535" y="582" type="line" smooth="yes"/>
      <point x="535" y="592" type="line" smooth="yes"/>
      <point x="466" y="735" type="line" smooth="yes"/>
      <point x="300" y="786" type="line" smooth="yes"/>
      <point x="134" y="735" type="line" smooth="yes"/>
      <point x="65" y="592" type="line" smooth="yes"/>
      <point x="65" y="582" type="line" smooth="yes"/>
      <point x="104" y="460" type="line" smooth="yes"/>
      <point x="210" y="398" type="line" smooth="yes"/>
      <point x="100" y="335" type="line" smooth="yes"/>
      <point x="60" y="205" type="line" smooth="yes"/>
      <point x="60" y="195" type="line" smooth="yes"/>
      <point x="129" y="44" type="line" smooth="yes"/>
      <point x="300" y="-6" type="line" smooth="yes"/>
      <point x="471" y="44" type="line" smooth="yes"/>
      <point x="540" y="195" type="line" smooth="yes"/>
      <point x="540" y="205" type="line" smooth="yes"/>
      <point x="500" y="335" type="line" smooth="yes"/>
      <point x="389" y="398" type="line" smooth="yes"/>
      <point x="496" y="460" type="line" smooth="yes"/>
    </contour>
  </outline>
</glyph>
<glyph name="nine" format="1">
  <advance width="600"/>
  <unicode hex="0039"/>
  <outline>
    <contour>
      <point x="287" y="314" type="line" smooth="yes"/>
      <point x="135" y="374" type="line" smooth="yes"/>
      <point x="75" y="532" type="line" smooth="yes"/>
      <point x="75" y="548" type="line" smooth="yes"/>
      <point x="137" y="707" type="line" smooth="yes"/>
      <point x="292" y="766" type="line" smooth="yes"/>
      <point x="298" y="766" type="line" smooth="yes"/>
      <point x="453" y="702" type="line" smooth="yes"/>
      <point x="515" y="528" type="line" smooth="yes"/>
      <point x="515" y="512" type="line" smooth="yes"/>
      <point x="514" y="490" type="line" smooth="yes"/>
      <point x="513" y="467" type="line" smooth="yes"/>
      <point x="429" y="359" type="line" smooth="yes"/>
      <point x="293" y="314" type="line" smooth="yes"/>
    </contour>
    <contour>
      <point x="90" y="-6" type="line" smooth="yes"/>
      <point x="270" y="38" type="line" smooth="yes"/>
      <point x="423" y="168" type="line" smooth="yes"/>
      <point x="510" y="339" type="line" smooth="yes"/>
      <point x="535" y="515" type="line" smooth="yes"/>
      <point x="535" y="525" type="line" smooth="yes"/>
      <point x="466" y="717" type="line" smooth="yes"/>
      <point x="295" y="786" type="line" smooth="yes"/>
      <point x="124" y="722" type="line" smooth="yes"/>
      <point x="55" y="545" type="line" smooth="yes"/>
      <point x="55" y="535" type="line" smooth="yes"/>
      <point x="122" y="358" type="line" smooth="yes"/>
      <point x="290" y="294" type="line" smooth="yes"/>
      <point x="422" y="331" type="line" smooth="yes"/>
      <point x="508" y="421" type="line" smooth="yes"/>
      <point x="474" y="300" type="line" smooth="yes"/>
      <point x="409" y="181" type="line" smooth="yes"/>
      <point x="261" y="54" type="line" smooth="yes"/>
      <point x="90" y="13" type="line" smooth="yes"/>
    </contour>
  </outline>
</glyph>
<glyph name="semicolon" format="1">
  <advance width="180"/>
  <unicode hex="003B"/>
  <outline>
    <contour>
      <point x="110" y="40" type="line" smooth="yes"/>
      <point x="70" y="40" type="line" smooth="yes"/>
      <point x="70" y="0" type="line" smooth="yes"/>
      <point x="90" y="0" type="line" smooth="yes"/>
      <point x="71" y="-67" type="line" smooth="yes"/>
      <point x="25" y="-85" type="line" smooth="yes"/>
      <point x="25" y="-105" type="line" smooth="yes"/>
      <point x="87" y="-77" type="line" smooth="yes"/>
      <point x="110" y="8" type="line" smooth="yes"/>
    </contour>
    <contour>
      <point x="110" y="410" type="line" smooth="yes"/>
      <point x="70" y="410" type="line" smooth="yes"/>
      <point x="70" y="370" type="line" smooth="yes"/>
      <point x="110" y="370" type="line" smooth="yes"/>
    </contour>
  </outline>
</glyph>
<glyph name="question" format="1">
  <advance width="440"/>
  <unicode hex="003F"/>
  <outline>
    <contour>
      <point x="240" y="40" type="line" smooth="yes"/>
      <point x="200" y="40" type="line" smooth="yes"/>
      <point x="200" y="0" type="line" smooth="yes"/>
      <point x="240" y="0" type="line" smooth="yes"/>
    </contour>
    <contour>
      <point x="227" y="175" type="line" smooth="yes"/>
      <point x="317" y="389" type="line" smooth="yes"/>
      <point x="403" y="582" type="line" smooth="yes"/>
      <point x="363" y="720" type="line" smooth="yes"/>
      <point x="223" y="786" type="line" smooth="yes"/>
      <point x="79" y="711" type="line" smooth="yes"/>
      <point x="33" y="507" type="line" smooth="yes"/>
      <point x="33" y="500" type="line" smooth="yes"/>
      <point x="53" y="500" type="line" smooth="yes"/>
      <point x="93" y="697" type="line" smooth="yes"/>
      <point x="223" y="766" type="line" smooth="yes"/>
      <point x="349" y="705" type="line" smooth="yes"/>
      <point x="383" y="575" type="line" smooth="yes"/>
      <point x="298" y="394" type="line" smooth="yes"/>
      <point x="213" y="175" type="line" smooth="yes"/>
    </contour>
  </outline>
</glyph>
<glyph name="at" format="1">
  <advance width="930"/>
  <unicode hex="0040"/>
  <outline>
    <contour>
      <point x="615" y="423" type="line" smooth="yes"/>
      <point x="615" y="167" type="line" smooth="yes"/>
      <point x="555" y="105" type="line" smooth="yes"/>
      <point x="453" y="74" type="line" smooth="yes"/>
      <point x="317" y="133" type="line" smooth="yes"/>
      <point x="270" y="285" type="line" smooth="yes"/>
      <point x="270" y="305" type="line" smooth="yes"/>
      <point x="317" y="457" type="line" smooth="yes"/>
      <point x="453" y="516" type="line" smooth="yes"/>
      <point x="555" y="485" type="line" smooth="yes"/>
    </contour>
    <contour>
      <point x="487" y="-186" type="line" smooth="yes"/>
      <point x="178" y="-65" type="line" smooth="yes"/>
      <point x="55" y="270" type="line" smooth="yes"/>
      <point x="55" y="310" type="line" smooth="yes"/>
      <point x="176" y="645" type="line" smooth="yes"/>
      <point x="482" y="766" type="line" smooth="yes"/>
      <point x="488" y="766" type="line" smooth="yes"/>
      <point x="757" y="671" type="line" smooth="yes"/>
      <point x="875" y="385" type="line" smooth="yes"/>
      <point x="875" y="355" type="line" smooth="yes"/>
      <point x="807" y="131" type="line" smooth="yes"/>
      <point x="639" y="80" type="line" smooth="yes"/>
      <point x="635" y="180" type="line" smooth="yes"/>
      <point x="635" y="410" type="line" smooth="yes"/>
      <point x="640" y="530" type="line" smooth="yes"/>
      <point x="625" y="530" type="line" smooth="yes"/>
      <point x="618" y="451" type="line" smooth="yes"/>
      <point x="557" y="507" type="line" smooth="yes"/>
      <point x="452" y="536" type="line" smooth="yes"/>
      <point x="302" y="471" type="line" smooth="yes"/>
      <point x="250" y="305" type="line" smooth="yes"/>
      <point x="250" y="285" type="line" smooth="yes"/>
      <point x="302" y="119" type="line" smooth="yes"/>
      <point x="452" y="54" type="line" smooth="yes"/>
      <point x="557" y="83" type="line" smooth="yes"/>
      <point x="618" y="139" type="line" smooth="yes"/>
      <point x="625" y="60" type="line" smooth="yes"/>
      <point x="630" y="60" type="line" smooth="yes"/>
      <point x="821" y="118" type="line" smooth="yes"/>
      <point x="895" y="355" type="line" smooth="yes"/>
      <point x="895" y="385" type="line" smooth="yes"/>
      <point x="773" y="683" type="line" smooth="yes"/>
      <point x="485" y="786" type="line" smooth="yes"/>
      <point x="161" y="657" type="line" smooth="yes"/>
      <point x="35" y="310" type="line" smooth="yes"/>
      <point x="35" y="270" type="line" smooth="yes"/>
      <point x="163" y="-77" type="line" smooth="yes"/>
      <point x="490" y="-206" type="line" smooth="yes"/>
      <point x="664" y="-186" type="line" smooth="yes"/>
      <point x="834" y="-103" type="line" smooth="yes"/>
      <point x="822" y="-87" type="line" smooth="yes"/>
      <point x="663" y="-165" type="line" smooth="yes"/>
      <point x="493" y="-186" type="line" smooth="yes"/>
    </contour>
  </outline>
</glyph>
<glyph name="B" format="1">
  <advance width="552"/>
  <unicode hex="0042"/>
  <outline>
    <contour>
      <point x="257" y="760" type="line" smooth="yes"/>
      <point x="386" y="734" type="line" smooth="yes"/>
      <point x="453" y="591" type="line" smooth="yes"/>
      <point x="453" y="577" type="line" smooth="yes"/>
      <point x="386" y="434" type="line" smooth="yes"/>
      <point x="257" y="408" type="line" smooth="yes"/>
      <point x="100" y="408" type="line" smooth="yes"/>
      <point x="100" y="760" type="line" smooth="yes"/>
    </contour>
    <contour>
      <point x="277" y="388" type="line" smooth="yes"/>
      <point x="406" y="359" type="line" smooth="yes"/>
      <point x="473" y="213" type="line" smooth="yes"/>
      <point x="473" y="195" type="line" smooth="yes"/>
      <point x="406" y="49" type="line" smooth="yes"/>
      <point x="277" y="20" type="line" smooth="yes"/>
      <point x="100" y="20" type="line" smooth="yes"/>
      <point x="100" y="388" type="line" smooth="yes"/>
    </contour>
    <contour>
      <point x="80" y="780" type="line" smooth="yes"/>
      <point x="80" y="0" type="line" smooth="yes"/>
      <point x="279" y="0" type="line" smooth="yes"/>
      <point x="426" y="38" type="line" smooth="yes"/>
      <point x="494" y="194" type="line" smooth="yes"/>
      <point x="494" y="214" type="line" smooth="yes"/>
      <point x="447" y="350" type="line" smooth="yes"/>
      <point x="339" y="399" type="line" smooth="yes"/>
      <point x="434" y="449" type="line" smooth="yes"/>
      <point x="474" y="576" type="line" smooth="yes"/>
      <point x="474" y="592" type="line" smooth="yes"/>
      <point x="406" y="745" type="line" smooth="yes"/>
      <point x="259" y="780" type="line" smooth="yes"/>
    </contour>
  </outline>
</glyph>
<glyph name="C" format="1">
  <advance width="593"/>
  <unicode hex="0043"/>
  <outline>
    <contour>
      <point x="65" y="410" type="line" smooth="yes"/>
      <point x="65" y="370" type="line" smooth="yes"/>
      <point x="128" y="81" type="line" smooth="yes"/>
      <point x="315" y="-6" type="line" smooth="yes"/>
      <point x="483" y="61" type="line" smooth="yes"/>
      <point x="535" y="236" type="line" smooth="yes"/>
      <point x="535" y="250" type="line" smooth="yes"/>
      <point x="515" y="250" type="line" smooth="yes"/>
      <point x="463" y="70" type="line" smooth="yes"/>
      <point x="318" y="14" type="line" smooth="yes"/>
      <point x="312" y="14" type="line" smooth="yes"/>
      <point x="143" y="95" type="line" smooth="yes"/>
      <point x="85" y="370" type="line" smooth="yes"/>
      <point x="85" y="410" type="line" smooth="yes"/>
      <point x="143" y="685" type="line" smooth="yes"/>
      <point x="312" y="766" type="line" smooth="yes"/>
      <point x="318" y="766" type="line" smooth="yes"/>
      <point x="468" y="707" type="line" smooth="yes"/>
      <point x="515" y="500" type="line" smooth="yes"/>
      <point x="535" y="500" type="line" smooth="yes"/>
      <point x="535" y="520" type="line" smooth="yes"/>
      <point x="482" y="724" type="line" smooth="yes"/>
      <point x="315" y="786" type="line" smooth="yes"/>
      <point x="128" y="699" type="line" smooth="yes"/>
    </contour>
  </outline>
</glyph>
<glyph name="K" format="1">
  <advance width="518"/>
  <unicode hex="004B"/>
  <outline>
    <contour>
      <point x="100" y="780" type="line" smooth="yes"/>
      <point x="80" y="780" type="line" smooth="yes"/>
      <point x="80" y="0" type="line" smooth="yes"/>
      <point x="100" y="0" type="line" smooth="yes"/>
      <point x="100" y="246" type="line" smooth="yes"/>
      <point x="227" y="424" type="line" smooth="yes"/>
      <point x="456" y="0" type="line" smooth="yes"/>
      <point x="480" y="0" type="line" smooth="yes"/>
      <point x="239" y="441" type="line" smooth="yes"/>
      <point x="480" y="780" type="line" smooth="yes"/>
      <point x="456" y="780" type="line" smooth="yes"/>
      <point x="100" y="279" type="line" smooth="yes"/>
    </contour>
  </outline>
</glyph>
<glyph name="R" format="1">
  <advance width="553"/>
  <unicode hex="0052"/>
  <outline>
    <contour>
      <point x="100" y="360" type="line" smooth="yes"/>
      <point x="100" y="760" type="line" smooth="yes"/>
      <point x="272" y="760" type="line" smooth="yes"/>
      <point x="403" y="726" type="line" smooth="yes"/>
      <point x="473" y="569" type="line" smooth="yes"/>
      <point x="473" y="551" type="line" smooth="yes"/>
      <point x="403" y="394" type="line" smooth="yes"/>
      <point x="272" y="360" type="line" smooth="yes"/>
    </contour>
    <contour>
      <point x="100" y="340" type="line" smooth="yes"/>
      <point x="273" y="340" type="line" smooth="yes"/>
      <point x="302" y="341" type="line" smooth="yes"/>
      <point x="331" y="345" type="line" smooth="yes"/>
      <point x="472" y="0" type="line" smooth="yes"/>
      <point x="494" y="0" type="line" smooth="yes"/>
      <point x="351" y="349" type="line" smooth="yes"/>
      <point x="451" y="409" type="line" smooth="yes"/>
      <point x="494" y="550" type="line" smooth="yes"/>
      <point x="494" y="570" type="line" smooth="yes"/>
      <point x="423" y="738" type="line" smooth="yes"/>
      <point x="273" y="780" type="line" smooth="yes"/>
      <point x="80" y="780" type="line" smooth="yes"/>
      <point x="80" y="0" type="line" smooth="yes"/>
      <point x="100" y="0" type="line" smooth="yes"/>
    </contour>
  </outline>
</glyph>
<glyph name="S" format="1">
  <advance width="580"/>
  <unicode hex="0053"/>
  <outline>
    <contour>
      <point x="286" y="395" type="line" smooth="yes"/>
      <point x="458" y="336" type="line" smooth="yes"/>
      <point x="510" y="207" type="line" smooth="yes"/>
      <point x="510" y="197" type="line" smooth="yes"/>
      <point x="448" y="62" type="line" smooth="yes"/>
      <point x="293" y="14" type="line" smooth="yes"/>
      <point x="287" y="14" type="line" smooth="yes"/>
      <point x="127" y="74" type="line" smooth="yes"/>
      <point x="70" y="250" type="line" smooth="yes"/>
      <point x="50" y="250" type="line" smooth="yes"/>
      <point x="50" y="240" type="line" smooth="yes"/>
      <point x="110" y="62" type="line" smooth="yes"/>
      <point x="290" y="-6" type="line" smooth="yes"/>
      <point x="461" y="47" type="line" smooth="yes"/>
      <point x="530" y="201" type="line" smooth="yes"/>
      <point x="530" y="211" type="line" smooth="yes"/>
      <point x="477" y="347" type="line" smooth="yes"/>
      <point x="296" y="414" type="line" smooth="yes"/>
      <point x="127" y="469" type="line" smooth="yes"/>
      <point x="77" y="585" type="line" smooth="yes"/>
      <point x="77" y="595" type="line" smooth="yes"/>
      <point x="140" y="719" type="line" smooth="yes"/>
      <point x="287" y="766" type="line" smooth="yes"/>
      <point x="293" y="766" type="line" smooth="yes"/>
      <point x="452" y="708" type="line" smooth="yes"/>
      <point x="505" y="520" type="line" smooth="yes"/>
      <point x="525" y="520" type="line" smooth="yes"/>
      <point x="525" y="545" type="line" smooth="yes"/>
      <point x="468" y="721" type="line" smooth="yes"/>
      <point x="289" y="786" type="line" smooth="yes"/>
      <point x="123" y="734" type="line" smooth="yes"/>
      <point x="55" y="590" type="line" smooth="yes"/>
      <point x="55" y="580" type="line" smooth="yes"/>
      <point x="107" y="458" type="line" smooth="yes"/>
    </contour>
  </outline>
</glyph>
<glyph name="U" format="1">
  <advance width="620"/>
  <unicode hex="0055"/>
  <outline>
    <contour>
      <point x="310" y="-6" type="line" smooth="yes"/>
      <point x="479" y="46" type="line" smooth="yes"/>
      <point x="543" y="243" type="line" smooth="yes"/>
      <point x="543" y="780" type="line" smooth="yes"/>
      <point x="523" y="780" type="line" smooth="yes"/>
      <point x="523" y="246" type="line" smooth="yes"/>
      <point x="467" y="62" type="line" smooth="yes"/>
      <point x="310" y="14" type="line" smooth="yes"/>
      <point x="153" y="62" type="line" smooth="yes"/>
      <point x="97" y="246" type="line" smooth="yes"/>
      <point x="97" y="780" type="line" smooth="yes"/>
      <point x="77" y="780" type="line" smooth="yes"/>
      <point x="77" y="243" type="line" smooth="yes"/>
      <point x="141" y="46" type="line" smooth="yes"/>
    </contour>
  </outline>
</glyph>
<glyph name="grave" format="1">
  <advance width="500"/>
  <unicode hex="0060"/>
  <outline>
    <contour>
      <point x="149" y="780" type="line" smooth="yes"/>
      <point x="239" y="620" type="line" smooth="yes"/>
      <point x="261" y="620" type="line" smooth="yes"/>
      <point x="171" y="780" type="line" smooth="yes"/>
    </contour>
  </outline>
</glyph>
<glyph name="a" format="1">
  <advance width="485"/>
  <unicode hex="0061"/>
  <outline>
    <contour>
      <point x="201" y="14" type="line" smooth="yes"/>
      <point x="104" y="48" type="line" smooth="yes"/>
      <point x="72" y="125" type="line" smooth="yes"/>
      <point x="72" y="136" type="line" smooth="yes"/>
      <point x="112" y="234" type="line" smooth="yes"/>
      <point x="208" y="268" type="line" smooth="yes"/>
      <point x="395" y="298" type="line" smooth="yes"/>
      <point x="395" y="118" type="line" smooth="yes"/>
      <point x="338" y="53" type="line" smooth="yes"/>
    </contour>
    <contour>
      <point x="52" y="125" type="line" smooth="yes"/>
      <point x="94" y="28" type="line" smooth="yes"/>
      <point x="200" y="-6" type="line" smooth="yes"/>
      <point x="331" y="25" type="line" smooth="yes"/>
      <point x="397" y="84" type="line" smooth="yes"/>
      <point x="405" y="0" type="line" smooth="yes"/>
      <point x="420" y="0" type="line" smooth="yes"/>
      <point x="415" y="120" type="line" smooth="yes"/>
      <point x="415" y="361" type="line" smooth="yes"/>
      <point x="382" y="482" type="line" smooth="yes"/>
      <point x="245" y="536" type="line" smooth="yes"/>
      <point x="108" y="482" type="line" smooth="yes"/>
      <point x="75" y="361" type="line" smooth="yes"/>
      <point x="75" y="350" type="line" smooth="yes"/>
      <point x="95" y="350" type="line" smooth="yes"/>
      <point x="121" y="467" type="line" smooth="yes"/>
      <point x="245" y="516" type="line" smooth="yes"/>
      <point x="369" y="467" type="line" smooth="yes"/>
      <point x="395" y="350" type="line" smooth="yes"/>
      <point x="395" y="317" type="line" smooth="yes"/>
      <point x="215" y="288" type="line" smooth="yes"/>
      <point x="105" y="252" type="line" smooth="yes"/>
      <point x="52" y="135" type="line" smooth="yes"/>
    </contour>
  </outline>
</glyph>
<glyph name="d" format="1">
  <advance width="510"/>
  <unicode hex="0064"/>
  <outline>
    <contour>
      <point x="420" y="423" type="line" smooth="yes"/>
      <point x="420" y="107" type="line" smooth="yes"/>
      <point x="361" y="45" type="line" smooth="yes"/>
      <point x="258" y="14" type="line" smooth="yes"/>
      <point x="121" y="79" type="line" smooth="yes"/>
      <point x="75" y="255" type="line" smooth="yes"/>
      <point x="75" y="275" type="line" smooth="yes"/>
      <point x="121" y="451" type="line" smooth="yes"/>
      <point x="258" y="516" type="line" smooth="yes"/>
      <point x="361" y="485" type="line" smooth="yes"/>
    </contour>
    <contour>
      <point x="258" y="536" type="line" smooth="yes"/>
      <point x="106" y="466" type="line" smooth="yes"/>
      <point x="55" y="275" type="line" smooth="yes"/>
      <point x="55" y="255" type="line" smooth="yes"/>
      <point x="106" y="64" type="line" smooth="yes"/>
      <point x="258" y="-6" type="line" smooth="yes"/>
      <point x="364" y="23" type="line" smooth="yes"/>
      <point x="423" y="79" type="line" smooth="yes"/>
      <point x="430" y="0" type="line" smooth="yes"/>
      <point x="445" y="0" type="line" smooth="yes"/>
      <point x="440" y="120" type="line" smooth="yes"/>
      <point x="440" y="800" type="line" smooth="yes"/>
      <point x="420" y="800" type="line" smooth="yes"/>
      <point x="420" y="455" type="line" smooth="yes"/>
      <point x="361" y="508" type="line" smooth="yes"/>
    </contour>
  </outline>
</glyph>
<glyph name="i" format="1">
  <advance width="180"/>
  <unicode hex="0069"/>
  <outline>
    <contour>
      <point x="110" y="720" type="line" smooth="yes"/>
      <point x="70" y="720" type="line" smooth="yes"/>
      <point x="70" y="680" type="line" smooth="yes"/>
      <point x="110" y="680" type="line" smooth="yes"/>
    </contour>
    <contour>
      <point x="80" y="0" type="line" smooth="yes"/>
      <point x="100" y="0" type="line" smooth="yes"/>
      <point x="100" y="530" type="line" smooth="yes"/>
      <point x="80" y="530" type="line" smooth="yes"/>
    </contour>
  </outline>
</glyph>
<glyph name="v" format="1">
  <advance width="480"/>
  <unicode hex="0076"/>
  <outline>
    <contour>
      <point x="240" y="25" type="line" smooth="yes"/>
      <point x="52" y="530" type="line" smooth="yes"/>
      <point x="30" y="530" type="line" smooth="yes"/>
      <point x="230" y="0" type="line" smooth="yes"/>
      <point x="250" y="0" type="line" smooth="yes"/>
      <point x="450" y="530" type="line" smooth="yes"/>
      <point x="428" y="530" type="line" smooth="yes"/>
    </contour>
  </outline>
</glyph>
<glyph name="y" format="1">
  <advance width="460"/>
  <unicode hex="0079"/>
  <outline>
    <contour>
      <point x="230" y="44" type="line" smooth="yes"/>
      <point x="49" y="530" type="line" smooth="yes"/>
      <point x="27" y="530" type="line" smooth="yes"/>
      <point x="221" y="18" type="line" smooth="yes"/>
      <point x="139" y="-200" type="line" smooth="yes"/>
      <point x="158" y="-200" type="line" smooth="yes"/>
      <point x="239" y="18" type="line" smooth="yes"/>
      <point x="433" y="530" type="line" smooth="yes"/>
      <point x="411" y="530" type="line" smooth="yes"/>
    </contour>
  </outline>
</glyph>
<glyph name="braceleft" format="1">
  <advance width="300"/>
  <unicode hex="007B"/>
  <outline>
    <contour>
      <point x="250" y="840" type="line" smooth="yes"/>
      <point x="246" y="840" type="line" smooth="yes"/>
      <point x="161" y="815" type="line" smooth="yes"/>
      <point x="125" y="715" type="line" smooth="yes"/>
      <point x="125" y="464" type="line" smooth="yes"/>
      <point x="100" y="388" type="line" smooth="yes"/>
      <point x="35" y="370" type="line" smooth="yes"/>
      <point x="35" y="350" type="line" smooth="yes"/>
      <point x="100" y="332" type="line" smooth="yes"/>
      <point x="125" y="256" type="line" smooth="yes"/>
      <point x="125" y="5" type="line" smooth="yes"/>
      <point x="161" y="-95" type="line" smooth="yes"/>
      <point x="246" y="-120" type="line" smooth="yes"/>
      <point x="250" y="-120" type="line" smooth="yes"/>
      <point x="250" y="-100" type="line" smooth="yes"/>
      <point x="174" y="-79" type="line" smooth="yes"/>
      <point x="145" y="10" type="line" smooth="yes"/>
      <point x="145" y="257" type="line" smooth="yes"/>
      <point x="129" y="327" type="line" smooth="yes"/>
      <point x="87" y="360" type="line" smooth="yes"/>
      <point x="129" y="393" type="line" smooth="yes"/>
      <point x="145" y="463" type="line" smooth="yes"/>
      <point x="145" y="710" type="line" smooth="yes"/>
      <point x="174" y="799" type="line" smooth="yes"/>
      <point x="250" y="820" type="line" smooth="yes"/>
    </contour>
  </outline>
</glyph>
<glyph name="braceright" format="1">
  <advance width="300"/>
  <unicode hex="007D"/>
  <outline>
    <contour>
      <point x="50" y="-120" type="line" smooth="yes"/>
      <point x="54" y="-120" type="line" smooth="yes"/>
      <point x="139" y="-95" type="line" smooth="yes"/>
      <point x="175" y="5" type="line" smooth="yes"/>
      <point x="175" y="256" type="line" smooth="yes"/>
      <point x="200" y="332" type="line" smooth="yes"/>
      <point x="265" y="350" type="line" smooth="yes"/>
      <point x="265" y="370" type="line" smooth="yes"/>
      <point x="200" y="388" type="line" smooth="yes"/>
      <point x="175" y="464" type="line" smooth="yes"/>
      <point x="175" y="715" type="line" smooth="yes"/>
      <point x="139" y="815" type="line" smooth="yes"/>
      <point x="54" y="840" type="line" smooth="yes"/>
      <point x="50" y="840" type="line" smooth="yes"/>
      <point x="50" y="820" type="line" smooth="yes"/>
      <point x="126" y="799" type="line" smooth="yes"/>
      <point x="155" y="710" type="line" smooth="yes"/>
      <point x="155" y="463" type="line" smooth="yes"/>
      <point x="171" y="393" type="line" smooth="yes"/>
      <point x="213" y="360" type="line" smooth="yes"/>
      <point x="171" y="327" type="line" smooth="yes"/>
      <point x="155" y="257" type="line" smooth="yes"/>
      <point x="155" y="10" type="line" smooth="yes"/>
      <point x="126" y="-79" type="line" smooth="yes"/>
      <point x="50" y="-100" type="line" smooth="yes"/>
    </contour>
  </outline>
</glyph>
<glyph name="asciitilde" format="1">
  <advance width="600"/>
  <unicode hex="007E"/>
  <outline>
    <contour>
      <point x="429" y="354" type="line" smooth="yes"/>
      <point x="303" y="395" type="line" smooth="yes"/>
      <point x="170" y="436" type="line" smooth="yes"/>
      <point x="86" y="409" type="line" smooth="yes"/>
      <point x="45" y="371" type="line" smooth="yes"/>
      <point x="60" y="356" type="line" smooth="yes"/>
      <point x="98" y="392" type="line" smooth="yes"/>
      <point x="171" y="416" type="line" smooth="yes"/>
      <point x="297" y="375" type="line" smooth="yes"/>
      <point x="430" y="334" type="line" smooth="yes"/>
      <point x="514" y="361" type="line" smooth="yes"/>
      <point x="555" y="399" type="line" smooth="yes"/>
      <point x="540" y="414" type="line" smooth="yes"/>
      <point x="502" y="378" type="line" smooth="yes"/>
    </contour>
  </outline>
</glyph>
<glyph name="cent" format="1">
  <advance width="600"/>
  <unicode hex="00A2"/>
  <outline>
    <contour>
      <point x="94" y="378" type="line" smooth="yes"/>
      <point x="94" y="401" type="line" smooth="yes"/>
      <point x="152" y="626" type="line" smooth="yes"/>
      <point x="314" y="700" type="line" smooth="yes"/>
      <point x="317" y="700" type="line" smooth="yes"/>
      <point x="339" y="699" type="line" smooth="yes"/>
      <point x="359" y="697" type="line" smooth="yes"/>
      <point x="216" y="100" type="line" smooth="yes"/>
      <point x="126" y="198" type="line" smooth="yes"/>
    </contour>
    <contour>
      <point x="413" y="840" type="line" smooth="yes"/>
      <point x="393" y="840" type="line" smooth="yes"/>
      <point x="363" y="716" type="line" smooth="yes"/>
      <point x="340" y="719" type="line" smooth="yes"/>
      <point x="315" y="720" type="line" smooth="yes"/>
      <point x="136" y="639" type="line" smooth="yes"/>
      <point x="74" y="401" type="line" smooth="yes"/>
      <point x="74" y="378" type="line" smooth="yes"/>
      <point x="109" y="185" type="line" smooth="yes"/>
      <point x="211" y="80" type="line" smooth="yes"/>
      <point x="178" y="-60" type="line" smooth="yes"/>
      <point x="198" y="-60" type="line" smooth="yes"/>
      <point x="230" y="73" type="line" smooth="yes"/>
      <point x="270" y="63" type="line" smooth="yes"/>
      <point x="315" y="60" type="line" smooth="yes"/>
      <point x="475" y="121" type="line" smooth="yes"/>
      <point x="526" y="266" type="line" smooth="yes"/>
      <point x="526" y="278" type="line" smooth="yes"/>
      <point x="506" y="278" type="line" smooth="yes"/>
      <point x="457" y="131" type="line" smooth="yes"/>
      <point x="317" y="80" type="line" smooth="yes"/>
      <point x="314" y="80" type="line" smooth="yes"/>
      <point x="272" y="83" type="line" smooth="yes"/>
      <point x="234" y="92" type="line" smooth="yes"/>
      <point x="378" y="693" type="line" smooth="yes"/>
      <point x="474" y="625" type="line" smooth="yes"/>
      <point x="506" y="481" type="line" smooth="yes"/>
      <point x="526" y="481" type="line" smooth="yes"/>
      <point x="526" y="496" type="line" smooth="yes"/>
      <point x="491" y="637" type="line" smooth="yes"/>
      <point x="382" y="712" type="line" smooth="yes"/>
    </contour>
  </outline>
</glyph>
<glyph name="sterling" format="1">
  <advance width="600"/>
  <unicode hex="00A3"/>
  <outline>
    <contour>
      <point x="60" y="380" type="line" smooth="yes"/>
      <point x="163" y="380" type="line" smooth="yes"/>
      <point x="210" y="205" type="line" smooth="yes"/>
      <point x="237" y="20" type="line" smooth="yes"/>
      <point x="60" y="20" type="line" smooth="yes"/>
      <point x="60" y="0" type="line" smooth="yes"/>
      <point x="540" y="0" type="line" smooth="yes"/>
      <point x="540" y="20" type="line" smooth="yes"/>
      <point x="257" y="20" type="line" smooth="yes"/>
      <point x="232" y="203" type="line" smooth="yes"/>
      <point x="185" y="380" type="line" smooth="yes"/>
      <point x="400" y="380" type="line" smooth="yes"/>
      <point x="400" y="400" type="line" smooth="yes"/>
      <point x="180" y="400" type="line" smooth="yes"/>
      <point x="159" y="492" type="line" smooth="yes"/>
      <point x="150" y="575" type="line" smooth="yes"/>
      <point x="194" y="705" type="line" smooth="yes"/>
      <point x="330" y="766" type="line" smooth="yes"/>
      <point x="470" y="697" type="line" smooth="yes"/>
      <point x="520" y="500" type="line" smooth="yes"/>
      <point x="540" y="500" type="line" smooth="yes"/>
      <point x="540" y="507" type="line" smooth="yes"/>
      <point x="485" y="711" type="line" smooth="yes"/>
      <point x="330" y="786" type="line" smooth="yes"/>
      <point x="180" y="720" type="line" smooth="yes"/>
      <point x="130" y="582" type="line" smooth="yes"/>
      <point x="138" y="493" type="line" smooth="yes"/>
      <point x="158" y="400" type="line" smooth="yes"/>
      <point x="60" y="400" type="line" smooth="yes"/>
    </contour>
  </outline>
</glyph>
<glyph name="section" format="1">
  <advance width="500"/>
  <unicode hex="00A7"/>
  <outline>
    <contour>
      <point x="70" y="386" type="line" smooth="yes"/>
      <point x="116" y="478" type="line" smooth="yes"/>
      <point x="240" y="512" type="line" smooth="yes"/>
      <point x="250" y="512" type="line" smooth="yes"/>
      <point x="386" y="482" type="line" smooth="yes"/>
      <point x="430" y="390" type="line" smooth="yes"/>
      <point x="384" y="298" type="line" smooth="yes"/>
      <point x="260" y="264" type="line" smooth="yes"/>
      <point x="250" y="264" type="line" smooth="yes"/>
      <point x="114" y="294" type="line" smooth="yes"/>
    </contour>
    <contour>
      <point x="50" y="389" type="line" smooth="yes"/>
      <point x="50" y="383" type="line" smooth="yes"/>
      <point x="90" y="287" type="line" smooth="yes"/>
      <point x="230" y="248" type="line" smooth="yes"/>
      <point x="371" y="211" type="line" smooth="yes"/>
      <point x="405" y="131" type="line" smooth="yes"/>
      <point x="360" y="42" type="line" smooth="yes"/>
      <point x="240" y="10" type="line" smooth="yes"/>
      <point x="110" y="52" type="line" smooth="yes"/>
      <point x="75" y="166" type="line" smooth="yes"/>
      <point x="55" y="166" type="line" smooth="yes"/>
      <point x="55" y="162" type="line" smooth="yes"/>
      <point x="96" y="40" type="line" smooth="yes"/>
      <point x="240" y="-10" type="line" smooth="yes"/>
      <point x="376" y="28" type="line" smooth="yes"/>
      <point x="425" y="128" type="line" smooth="yes"/>
      <point x="425" y="134" type="line" smooth="yes"/>
      <point x="404" y="207" type="line" smooth="yes"/>
      <point x="322" y="252" type="line" smooth="yes"/>
      <point x="416" y="300" type="line" smooth="yes"/>
      <point x="450" y="387" type="line" smooth="yes"/>
      <point x="450" y="393" type="line" smooth="yes"/>
      <point x="410" y="489" type="line" smooth="yes"/>
      <point x="270" y="528" type="line" smooth="yes"/>
      <point x="129" y="565" type="line" smooth="yes"/>
      <point x="95" y="645" type="line" smooth="yes"/>
      <point x="140" y="734" type="line" smooth="yes"/>
      <point x="260" y="766" type="line" smooth="yes"/>
      <point x="390" y="724" type="line" smooth="yes"/>
      <point x="425" y="610" type="line" smooth="yes"/>
      <point x="445" y="610" type="line" smooth="yes"/>
      <point x="445" y="614" type="line" smooth="yes"/>
      <point x="404" y="736" type="line" smooth="yes"/>
      <point x="260" y="786" type="line" smooth="yes"/>
      <point x="124" y="748" type="line" smooth="yes"/>
      <point x="75" y="648" type="line" smooth="yes"/>
      <point x="75" y="642" type="line" smooth="yes"/>
      <point x="96" y="570" type="line" smooth="yes"/>
      <point x="178" y="524" type="line" smooth="yes"/>
      <point x="83" y="476" type="line" smooth="yes"/>
    </contour>
  </outline>
</glyph>
<glyph name="ordfeminine" format="1">
  <advance width="377"/>
  <unicode hex="00AA"/>
  <outline>
    <contour>
      <point x="50" y="230" type="line" smooth="yes"/>
      <point x="322" y="230" type="line" smooth="yes"/>
      <point x="322" y="250" type="line" smooth="yes"/>
      <point x="50" y="250" type="line" smooth="yes"/>
    </contour>
    <contour>
      <point x="155" y="400" type="line" smooth="yes"/>
      <point x="85" y="424" type="line" smooth="yes"/>
      <point x="62" y="481" type="line" smooth="yes"/>
      <point x="62" y="491" type="line" smooth="yes"/>
      <point x="91" y="559" type="line" smooth="yes"/>
      <point x="161" y="584" type="line" smooth="yes"/>
      <point x="299" y="607" type="line" smooth="yes"/>
      <point x="299" y="479" type="line" smooth="yes"/>
      <point x="256" y="430" type="line" smooth="yes"/>
    </contour>
    <contour>
      <point x="42" y="481" type="line" smooth="yes"/>
      <point x="74" y="407" type="line" smooth="yes"/>
      <point x="154" y="380" type="line" smooth="yes"/>
      <point x="250" y="403" type="line" smooth="yes"/>
      <point x="301" y="450" type="line" smooth="yes"/>
      <point x="307" y="388" type="line" smooth="yes"/>
      <point x="322" y="388" type="line" smooth="yes"/>
      <point x="319" y="485" type="line" smooth="yes"/>
      <point x="319" y="649" type="line" smooth="yes"/>
      <point x="293" y="745" type="line" smooth="yes"/>
      <point x="189" y="786" type="line" smooth="yes"/>
      <point x="84" y="744" type="line" smooth="yes"/>
      <point x="59" y="654" type="line" smooth="yes"/>
      <point x="59" y="646" type="line" smooth="yes"/>
      <point x="79" y="646" type="line" smooth="yes"/>
      <point x="99" y="730" type="line" smooth="yes"/>
      <point x="189" y="766" type="line" smooth="yes"/>
      <point x="278" y="732" type="line" smooth="yes"/>
      <point x="299" y="644" type="line" smooth="yes"/>
      <point x="299" y="626" type="line" smooth="yes"/>
      <point x="166" y="604" type="line" smooth="yes"/>
      <point x="82" y="577" type="line" smooth="yes"/>
      <point x="42" y="490" type="line" smooth="yes"/>
    </contour>
  </outline>
</glyph>
<glyph name="uni00AD" format="1">
  <advance width="320"/>
  <unicode hex="00AD"/>
  <outline>
    <contour>
      <point x="50" y="330" type="line" smooth="yes"/>
      <point x="270" y="330" type="line" smooth="yes"/>
      <point x="270" y="350" type="line" smooth="yes"/>
      <point x="50" y="350" type="line" smooth="yes"/>
    </contour>
  </outline>
</glyph>
<glyph name="degree" format="1">
  <advance width="400"/>
  <unicode hex="00B0"/>
  <outline>
    <contour>
      <point x="346" y="642" type="line" smooth="yes"/>
      <point x="304" y="747" type="line" smooth="yes"/>
      <point x="200" y="786" type="line" smooth="yes"/>
      <point x="96" y="747" type="line" smooth="yes"/>
      <point x="54" y="642" type="line" smooth="yes"/>
      <point x="54" y="638" type="line" smooth="yes"/>
      <point x="96" y="533" type="line" smooth="yes"/>
      <point x="200" y="494" type="line" smooth="yes"/>
      <point x="304" y="533" type="line" smooth="yes"/>
      <point x="346" y="638" type="line" smooth="yes"/>
    </contour>
    <contour>
      <point x="326" y="635" type="line" smooth="yes"/>
      <point x="290" y="546" type="line" smooth="yes"/>
      <point x="203" y="514" type="line" smooth="yes"/>
      <point x="197" y="514" type="line" smooth="yes"/>
      <point x="110" y="546" type="line" smooth="yes"/>
      <point x="74" y="635" type="line" smooth="yes"/>
      <point x="74" y="645" type="line" smooth="yes"/>
      <point x="110" y="734" type="line" smooth="yes"/>
      <point x="197" y="766" type="line" smooth="yes"/>
      <point x="203" y="766" type="line" smooth="yes"/>
      <point x="290" y="734" type="line" smooth="yes"/>
      <point x="326" y="645" type="line" smooth="yes"/>
    </contour>
  </outline>
</glyph>
<glyph name="twosuperior" format="1">
  <advance width="300"/>
  <unicode hex="00B2"/>
  <outline>
    <contour>
      <point x="102" y="410" type="line" smooth="yes"/>
      <point x="64" y="409" type="line" smooth="yes"/>
      <point x="224" y="577" type="line" smooth="yes"/>
      <point x="261" y="627" type="line" smooth="yes"/>
      <point x="270" y="677" type="line" smooth="yes"/>
      <point x="270" y="682" type="line" smooth="yes"/>
      <point x="237" y="758" type="line" smooth="yes"/>
      <point x="150" y="785" type="line" smooth="yes"/>
      <point x="59" y="752" type="line" smooth="yes"/>
      <point x="30" y="662" type="line" smooth="yes"/>
      <point x="30" y="650" type="line" smooth="yes"/>
      <point x="50" y="650" type="line" smooth="yes"/>
      <point x="74" y="739" type="line" smooth="yes"/>
      <point x="148" y="766" type="line" smooth="yes"/>
      <point x="151" y="766" type="line" smooth="yes"/>
      <point x="222" y="743" type="line" smooth="yes"/>
      <point x="249" y="680" type="line" smooth="yes"/>
      <point x="249" y="675" type="line" smooth="yes"/>
      <point x="240" y="632" type="line" smooth="yes"/>
      <point x="205" y="586" type="line" smooth="yes"/>
      <point x="30" y="402" type="line" smooth="yes"/>
      <point x="30" y="390" type="line" smooth="yes"/>
      <point x="265" y="390" type="line" smooth="yes"/>
      <point x="265" y="410" type="line" smooth="yes"/>
    </contour>
  </outline>
</glyph>
<glyph name="threesuperior" format="1">
  <advance width="300"/>
  <unicode hex="00B3"/>
  <outline>
    <contour>
      <point x="147" y="404" type="line" smooth="yes"/>
      <point x="73" y="431" type="line" smooth="yes"/>
      <point x="47" y="515" type="line" smooth="yes"/>
      <point x="27" y="515" type="line" smooth="yes"/>
      <point x="27" y="510" type="line" smooth="yes"/>
      <point x="57" y="419" type="line" smooth="yes"/>
      <point x="150" y="385" type="line" smooth="yes"/>
      <point x="236" y="412" type="line" smooth="yes"/>
      <point x="272" y="488" type="line" smooth="yes"/>
      <point x="272" y="496" type="line" smooth="yes"/>
      <point x="252" y="557" type="line" smooth="yes"/>
      <point x="199" y="588" type="line" smooth="yes"/>
      <point x="251" y="618" type="line" smooth="yes"/>
      <point x="270" y="675" type="line" smooth="yes"/>
      <point x="270" y="682" type="line" smooth="yes"/>
      <point x="237" y="758" type="line" smooth="yes"/>
      <point x="150" y="785" type="line" smooth="yes"/>
      <point x="59" y="752" type="line" smooth="yes"/>
      <point x="30" y="662" type="line" smooth="yes"/>
      <point x="30" y="650" type="line" smooth="yes"/>
      <point x="50" y="650" type="line" smooth="yes"/>
      <point x="74" y="739" type="line" smooth="yes"/>
      <point x="147" y="766" type="line" smooth="yes"/>
      <point x="152" y="766" type="line" smooth="yes"/>
      <point x="223" y="743" type="line" smooth="yes"/>
      <point x="249" y="680" type="line" smooth="yes"/>
      <point x="249" y="676" type="line" smooth="yes"/>
      <point x="222" y="617" type="line" smooth="yes"/>
      <point x="156" y="598" type="line" smooth="yes"/>
      <point x="100" y="598" type="line" smooth="yes"/>
      <point x="100" y="579" type="line" smooth="yes"/>
      <point x="158" y="579" type="line" smooth="yes"/>
      <point x="224" y="558" type="line" smooth="yes"/>
      <point x="251" y="495" type="line" smooth="yes"/>
      <point x="251" y="487" type="line" smooth="yes"/>
      <point x="221" y="424" type="line" smooth="yes"/>
      <point x="152" y="404" type="line" smooth="yes"/>
    </contour>
  </outline>
</glyph>
<glyph name="ordmasculine" format="1">
  <advance width="410"/>
  <unicode hex="00BA"/>
  <outline>
    <contour>
      <point x="56" y="230" type="line" smooth="yes"/>
      <point x="354" y="230" type="line" smooth="yes"/>
      <point x="354" y="250" type="line" smooth="yes"/>
      <point x="56" y="250" type="line" smooth="yes"/>
    </contour>
    <contour>
      <point x="205" y="380" type="line" smooth="yes"/>
      <point x="324" y="434" type="line" smooth="yes"/>
      <point x="364" y="576" type="line" smooth="yes"/>
      <point x="364" y="590" type="line" smooth="yes"/>
      <point x="324" y="732" type="line" smooth="yes"/>
      <point x="205" y="786" type="line" smooth="yes"/>
      <point x="86" y="732" type="line" smooth="yes"/>
      <point x="46" y="590" type="line" smooth="yes"/>
      <point x="46" y="576" type="line" smooth="yes"/>
      <point x="86" y="434" type="line" smooth="yes"/>
    </contour>
    <contour>
      <point x="205" y="400" type="line" smooth="yes"/>
      <point x="101" y="448" type="line" smooth="yes"/>
      <point x="66" y="576" type="line" smooth="yes"/>
      <point x="66" y="590" type="line" smooth="yes"/>
      <point x="101" y="719" type="line" smooth="yes"/>
      <point x="205" y="766" type="line" smooth="yes"/>
      <point x="309" y="719" type="line" smooth="yes"/>
      <point x="344" y="590" type="line" smooth="yes"/>
      <point x="344" y="576" type="line" smooth="yes"/>
      <point x="309" y="448" type="line" smooth="yes"/>
    </contour>
  </outline>
</glyph>
<glyph name="onehalf" format="1">
  <advance width="800"/>
  <unicode hex="00BD"/>
  <outline>
    <contour>
      <point x="272" y="390" type="line" smooth="yes"/>
      <point x="272" y="410" type="line" smooth="yes"/>
      <point x="165" y="410" type="line" smooth="yes"/>
      <point x="165" y="782" type="line" smooth="yes"/>
      <point x="155" y="782" type="line" smooth="yes"/>
      <point x="32" y="699" type="line" smooth="yes"/>
      <point x="43" y="682" type="line" smooth="yes"/>
      <point x="145" y="752" type="line" smooth="yes"/>
      <point x="145" y="410" type="line" smooth="yes"/>
      <point x="37" y="410" type="line" smooth="yes"/>
      <point x="37" y="390" type="line" smooth="yes"/>
    </contour>
    <contour>
      <point x="124" y="0" type="line" smooth="yes"/>
      <point x="700" y="780" type="line" smooth="yes"/>
      <point x="676" y="780" type="line" smooth="yes"/>
      <point x="100" y="0" type="line" smooth="yes"/>
    </contour>
    <contour>
      <point x="602" y="20" type="line" smooth="yes"/>
      <point x="564" y="19" type="line" smooth="yes"/>
      <point x="724" y="187" type="line" smooth="yes"/>
      <point x="761" y="237" type="line" smooth="yes"/>
      <point x="770" y="287" type="line" smooth="yes"/>
      <point x="770" y="292" type="line" smooth="yes"/>
      <point x="737" y="368" type="line" smooth="yes"/>
      <point x="650" y="395" type="line" smooth="yes"/>
      <point x="559" y="362" type="line" smooth="yes"/>
      <point x="530" y="272" type="line" smooth="yes"/>
      <point x="530" y="260" type="line" smooth="yes"/>
      <point x="550" y="260" type="line" smooth="yes"/>
      <point x="574" y="349" type="line" smooth="yes"/>
      <point x="648" y="376" type="line" smooth="yes"/>
      <point x="651" y="376" type="line" smooth="yes"/>
      <point x="722" y="353" type="line" smooth="yes"/>
      <point x="749" y="290" type="line" smooth="yes"/>
      <point x="749" y="285" type="line" smooth="yes"/>
      <point x="740" y="242" type="line" smooth="yes"/>
      <point x="705" y="196" type="line" smooth="yes"/>
      <point x="530" y="12" type="line" smooth="yes"/>
      <point x="530" y="0" type="line" smooth="yes"/>
      <point x="765" y="0" type="line" smooth="yes"/>
      <point x="765" y="20" type="line" smooth="yes"/>
    </contour>
  </outline>
</glyph>
<glyph name="threequarters" format="1">
  <advance width="800"/>
  <unicode hex="00BE"/>
  <outline>
    <contour>
      <point x="690" y="354" type="line" smooth="yes"/>
      <point x="690" y="130" type="line" smooth="yes"/>
      <point x="595" y="130" type="line" smooth="yes"/>
      <point x="546" y="129" type="line" smooth="yes"/>
    </contour>
    <contour>
      <point x="124" y="0" type="line" smooth="yes"/>
      <point x="700" y="780" type="line" smooth="yes"/>
      <point x="676" y="780" type="line" smooth="yes"/>
      <point x="100" y="0" type="line" smooth="yes"/>
    </contour>
    <contour>
      <point x="147" y="404" type="line" smooth="yes"/>
      <point x="73" y="431" type="line" smooth="yes"/>
      <point x="47" y="515" type="line" smooth="yes"/>
      <point x="27" y="515" type="line" smooth="yes"/>
      <point x="27" y="510" type="line" smooth="yes"/>
      <point x="57" y="419" type="line" smooth="yes"/>
      <point x="150" y="385" type="line" smooth="yes"/>
      <point x="236" y="412" type="line" smooth="yes"/>
      <point x="272" y="488" type="line" smooth="yes"/>
      <point x="272" y="496" type="line" smooth="yes"/>
      <point x="252" y="557" type="line" smooth="yes"/>
      <point x="199" y="588" type="line" smooth="yes"/>
      <point x="251" y="618" type="line" smooth="yes"/>
      <point x="270" y="675" type="line" smooth="yes"/>
      <point x="270" y="682" type="line" smooth="yes"/>
      <point x="237" y="758" type="line" smooth="yes"/>
      <point x="150" y="785" type="line" smooth="yes"/>
      <point x="59" y="752" type="line" smooth="yes"/>
      <point x="30" y="662" type="line" smooth="yes"/>
      <point x="30" y="650" type="line" smooth="yes"/>
      <point x="50" y="650" type="line" smooth="yes"/>
      <point x="74" y="739" type="line" smooth="yes"/>
      <point x="147" y="766" type="line" smooth="yes"/>
      <point x="152" y="766" type="line" smooth="yes"/>
      <point x="223" y="743" type="line" smooth="yes"/>
      <point x="249" y="680" type="line" smooth="yes"/>
      <point x="249" y="676" type="line" smooth="yes"/>
      <point x="222" y="617" type="line" smooth="yes"/>
      <point x="156" y="598" type="line" smooth="yes"/>
      <point x="100" y="598" type="line" smooth="yes"/>
      <point x="100" y="579" type="line" smooth="yes"/>
      <point x="158" y="579" type="line" smooth="yes"/>
      <point x="224" y="558" type="line" smooth="yes"/>
      <point x="251" y="495" type="line" smooth="yes"/>
      <point x="251" y="487" type="line" smooth="yes"/>
      <point x="221" y="424" type="line" smooth="yes"/>
      <point x="152" y="404" type="line" smooth="yes"/>
    </contour>
    <contour>
      <point x="710" y="0" type="line" smooth="yes"/>
      <point x="710" y="110" type="line" smooth="yes"/>
      <point x="782" y="110" type="line" smooth="yes"/>
      <point x="782" y="130" type="line" smooth="yes"/>
      <point x="710" y="130" type="line" smooth="yes"/>
      <point x="710" y="390" type="line" smooth="yes"/>
      <point x="690" y="390" type="line" smooth="yes"/>
      <point x="517" y="122" type="line" smooth="yes"/>
      <point x="517" y="110" type="line" smooth="yes"/>
      <point x="690" y="110" type="line" smooth="yes"/>
      <point x="690" y="0" type="line" smooth="yes"/>
    </contour>
  </outline>
</glyph>
<glyph name="questiondown" format="1">
  <advance width="440"/>
  <unicode hex="00BF"/>
  <outline>
    <contour>
      <point x="213" y="355" type="line" smooth="yes"/>
      <point x="123" y="148" type="line" smooth="yes"/>
      <point x="37" y="-35" type="line" smooth="yes"/>
      <point x="77" y="-151" type="line" smooth="yes"/>
      <point x="217" y="-206" type="line" smooth="yes"/>
      <point x="362" y="-136" type="line" smooth="yes"/>
      <point x="407" y="53" type="line" smooth="yes"/>
      <point x="407" y="60" type="line" smooth="yes"/>
      <point x="387" y="60" type="line" smooth="yes"/>
      <point x="347" y="-121" type="line" smooth="yes"/>
      <point x="217" y="-186" type="line" smooth="yes"/>
      <point x="91" y="-136" type="line" smooth="yes"/>
      <point x="57" y="-30" type="line" smooth="yes"/>
      <point x="142" y="142" type="line" smooth="yes"/>
      <point x="227" y="355" type="line" smooth="yes"/>
    </contour>
    <contour>
      <point x="200" y="490" type="line" smooth="yes"/>
      <point x="240" y="490" type="line" smooth="yes"/>
      <point x="240" y="530" type="line" smooth="yes"/>
      <point x="200" y="530" type="line" smooth="yes"/>
    </contour>
  </outline>
</glyph>
<glyph name="Adieresis" format="1">
  <advance width="590"/>
  <unicode hex="00C4"/>
  <outline>
    <contour>
      <point x="385" y="915" type="line" smooth="yes"/>
      <point x="345" y="915" type="line" smooth="yes"/>
      <point x="345" y="875" type="line" smooth="yes"/>
      <point x="385" y="875" type="line" smooth="yes"/>
    </contour>
    <contour>
      <point x="245" y="915" type="line" smooth="yes"/>
      <point x="205" y="915" type="line" smooth="yes"/>
      <point x="205" y="875" type="line" smooth="yes"/>
      <point x="245" y="875" type="line" smooth="yes"/>
    </contour>
    <contour>
      <point x="295" y="760" type="line" smooth="yes"/>
      <point x="455" y="250" type="line" smooth="yes"/>
      <point x="135" y="250" type="line" smooth="yes"/>
    </contour>
    <contour>
      <point x="285" y="790" type="line" smooth="yes"/>
      <point x="35" y="0" type="line" smooth="yes"/>
      <point x="56" y="0" type="line" smooth="yes"/>
      <point x="128" y="230" type="line" smooth="yes"/>
      <point x="462" y="230" type="line" smooth="yes"/>
      <point x="534" y="0" type="line" smooth="yes"/>
      <point x="555" y="0" type="line" smooth="yes"/>
      <point x="305" y="790" type="line" smooth="yes"/>
    </contour>
  </outline>
</glyph>
<glyph name="Aring" format="1">
  <advance width="590"/>
  <unicode hex="00C5"/>
  <outline>
    <contour>
      <point x="227" y="870" type="line" smooth="yes"/>
      <point x="247" y="918" type="line" smooth="yes"/>
      <point x="295" y="938" type="line" smooth="yes"/>
      <point x="343" y="918" type="line" smooth="yes"/>
      <point x="363" y="870" type="line" smooth="yes"/>
      <point x="343" y="822" type="line" smooth="yes"/>
      <point x="295" y="802" type="line" smooth="yes"/>
      <point x="247" y="822" type="line" smooth="yes"/>
    </contour>
    <contour>
      <point x="295" y="760" type="line" smooth="yes"/>
      <point x="455" y="250" type="line" smooth="yes"/>
      <point x="135" y="250" type="line" smooth="yes"/>
    </contour>
    <contour>
      <point x="209" y="870" type="line" smooth="yes"/>
      <point x="230" y="813" type="line" smooth="yes"/>
      <point x="283" y="784" type="line" smooth="yes"/>
      <point x="35" y="0" type="line" smooth="yes"/>
      <point x="56" y="0" type="line" smooth="yes"/>
      <point x="128" y="230" type="line" smooth="yes"/>
      <point x="462" y="230" type="line" smooth="yes"/>
      <point x="534" y="0" type="line" smooth="yes"/>
      <point x="555" y="0" type="line" smooth="yes"/>
      <point x="306" y="784" type="line" smooth="yes"/>
      <point x="359" y="813" type="line" smooth="yes"/>
      <point x="381" y="870" type="line" smooth="yes"/>
      <point x="356" y="931" type="line" smooth="yes"/>
      <point x="295" y="956" type="line" smooth="yes"/>
      <point x="234" y="931" type="line" smooth="yes"/>
    </contour>
  </outline>
</glyph>
<glyph name="Ccedilla" format="1">
  <advance width="593"/>
  <unicode hex="00C7"/>
  <outline>
    <contour>
      <point x="236" y="-188" type="line" smooth="yes"/>
      <point x="274" y="-201" type="line" smooth="yes"/>
      <point x="315" y="-206" type="line" smooth="yes"/>
      <point x="378" y="-192" type="line" smooth="yes"/>
      <point x="406" y="-135" type="line" smooth="yes"/>
      <point x="378" y="-78" type="line" smooth="yes"/>
      <point x="320" y="-64" type="line" smooth="yes"/>
      <point x="310" y="-64" type="line" smooth="yes"/>
      <point x="302" y="-65" type="line" smooth="yes"/>
      <point x="323" y="-6" type="line" smooth="yes"/>
      <point x="485" y="63" type="line" smooth="yes"/>
      <point x="535" y="236" type="line" smooth="yes"/>
      <point x="535" y="250" type="line" smooth="yes"/>
      <point x="515" y="250" type="line" smooth="yes"/>
      <point x="463" y="70" type="line" smooth="yes"/>
      <point x="318" y="14" type="line" smooth="yes"/>
      <point x="312" y="14" type="line" smooth="yes"/>
      <point x="143" y="95" type="line" smooth="yes"/>
      <point x="85" y="370" type="line" smooth="yes"/>
      <point x="85" y="410" type="line" smooth="yes"/>
      <point x="143" y="685" type="line" smooth="yes"/>
      <point x="312" y="766" type="line" smooth="yes"/>
      <point x="318" y="766" type="line" smooth="yes"/>
      <point x="468" y="707" type="line" smooth="yes"/>
      <point x="515" y="500" type="line" smooth="yes"/>
      <point x="535" y="500" type="line" smooth="yes"/>
      <point x="535" y="520" type="line" smooth="yes"/>
      <point x="482" y="724" type="line" smooth="yes"/>
      <point x="315" y="786" type="line" smooth="yes"/>
      <point x="128" y="699" type="line" smooth="yes"/>
      <point x="65" y="410" type="line" smooth="yes"/>
      <point x="65" y="370" type="line" smooth="yes"/>
      <point x="125" y="85" type="line" smooth="yes"/>
      <point x="303" y="-6" type="line" smooth="yes"/>
      <point x="279" y="-73" type="line" smooth="yes"/>
      <point x="290" y="-84" type="line" smooth="yes"/>
      <point x="297" y="-83" type="line" smooth="yes"/>
      <point x="315" y="-82" type="line" smooth="yes"/>
      <point x="366" y="-91" type="line" smooth="yes"/>
      <point x="388" y="-135" type="line" smooth="yes"/>
      <point x="366" y="-180" type="line" smooth="yes"/>
      <point x="315" y="-188" type="line" smooth="yes"/>
      <point x="276" y="-183" type="line" smooth="yes"/>
      <point x="242" y="-172" type="line" smooth="yes"/>
    </contour>
  </outline>
</glyph>
<glyph name="Eacute" format="1">
  <advance width="540"/>
  <unicode hex="00C9"/>
  <outline>
    <contour>
      <point x="341" y="950" type="line" smooth="yes"/>
      <point x="279" y="840" type="line" smooth="yes"/>
      <point x="301" y="840" type="line" smooth="yes"/>
      <point x="363" y="950" type="line" smooth="yes"/>
    </contour>
    <contour>
      <point x="80" y="780" type="line" smooth="yes"/>
      <point x="80" y="0" type="line" smooth="yes"/>
      <point x="490" y="0" type="line" smooth="yes"/>
      <point x="490" y="20" type="line" smooth="yes"/>
      <point x="100" y="20" type="line" smooth="yes"/>
      <point x="100" y="388" type="line" smooth="yes"/>
      <point x="440" y="388" type="line" smooth="yes"/>
      <point x="440" y="408" type="line" smooth="yes"/>
      <point x="100" y="408" type="line" smooth="yes"/>
      <point x="100" y="760" type="line" smooth="yes"/>
      <point x="490" y="760" type="line" smooth="yes"/>
      <point x="490" y="780" type="line" smooth="yes"/>
    </contour>
  </outline>
</glyph>
<glyph name="Edieresis" format="1">
  <advance width="540"/>
  <unicode hex="00CB"/>
  <outline>
    <contour>
      <point x="240" y="915" type="line" smooth="yes"/>
      <point x="200" y="915" type="line" smooth="yes"/>
      <point x="200" y="875" type="line" smooth="yes"/>
      <point x="240" y="875" type="line" smooth="yes"/>
    </contour>
    <contour>
      <point x="380" y="915" type="line" smooth="yes"/>
      <point x="340" y="915" type="line" smooth="yes"/>
      <point x="340" y="875" type="line" smooth="yes"/>
      <point x="380" y="875" type="line" smooth="yes"/>
    </contour>
    <contour>
      <point x="80" y="780" type="line" smooth="yes"/>
      <point x="80" y="0" type="line" smooth="yes"/>
      <point x="490" y="0" type="line" smooth="yes"/>
      <point x="490" y="20" type="line" smooth="yes"/>
      <point x="100" y="20" type="line" smooth="yes"/>
      <point x="100" y="388" type="line" smooth="yes"/>
      <point x="440" y="388" type="line" smooth="yes"/>
      <point x="440" y="408" type="line" smooth="yes"/>
      <point x="100" y="408" type="line" smooth="yes"/>
      <point x="100" y="760" type="line" smooth="yes"/>
      <point x="490" y="760" type="line" smooth="yes"/>
      <point x="490" y="780" type="line" smooth="yes"/>
    </contour>
  </outline>
</glyph>
<glyph name="Icircumflex" format="1">
  <advance width="190"/>
  <unicode hex="00CE"/>
  <outline>
    <contour>
      <point x="9" y="840" type="line" smooth="yes"/>
      <point x="95" y="935" type="line" smooth="yes"/>
      <point x="181" y="840" type="line" smooth="yes"/>
      <point x="205" y="840" type="line" smooth="yes"/>
      <point x="105" y="950" type="line" smooth="yes"/>
      <point x="85" y="950" type="line" smooth="yes"/>
      <point x="-15" y="840" type="line" smooth="yes"/>
    </contour>
    <contour>
      <point x="105" y="780" type="line" smooth="yes"/>
      <point x="85" y="780" type="line" smooth="yes"/>
      <point x="85" y="0" type="line" smooth="yes"/>
      <point x="105" y="0" type="line" smooth="yes"/>
    </contour>
  </outline>
</glyph>
<glyph name="Eth" format="1">
  <advance width="670"/>
  <unicode hex="00D0"/>
  <outline>
    <contour>
      <point x="155" y="20" type="line" smooth="yes"/>
      <point x="155" y="388" type="line" smooth="yes"/>
      <point x="385" y="388" type="line" smooth="yes"/>
      <point x="385" y="408" type="line" smooth="yes"/>
      <point x="155" y="408" type="line" smooth="yes"/>
      <point x="155" y="760" type="line" smooth="yes"/>
      <point x="320" y="760" type="line" smooth="yes"/>
      <point x="515" y="683" type="line" smooth="yes"/>
      <point x="590" y="410" type="line" smooth="yes"/>
      <point x="590" y="370" type="line" smooth="yes"/>
      <point x="515" y="98" type="line" smooth="yes"/>
      <point x="320" y="20" type="line" smooth="yes"/>
    </contour>
    <contour>
      <point x="25" y="408" type="line" smooth="yes"/>
      <point x="25" y="388" type="line" smooth="yes"/>
      <point x="135" y="388" type="line" smooth="yes"/>
      <point x="135" y="0" type="line" smooth="yes"/>
      <point x="325" y="0" type="line" smooth="yes"/>
      <point x="529" y="82" type="line" smooth="yes"/>
      <point x="610" y="370" type="line" smooth="yes"/>
      <point x="610" y="410" type="line" smooth="yes"/>
      <point x="529" y="698" type="line" smooth="yes"/>
      <point x="325" y="780" type="line" smooth="yes"/>
      <point x="135" y="780" type="line" smooth="yes"/>
      <point x="135" y="408" type="line" smooth="yes"/>
    </contour>
  </outline>
</glyph>
<glyph name="Ntilde" format="1">
  <advance width="640"/>
  <unicode hex="00D1"/>
  <outline>
    <contour>
      <point x="437" y="927" type="line" smooth="yes"/>
      <point x="423" y="884" type="line" smooth="yes"/>
      <point x="392" y="875" type="line" smooth="yes"/>
      <point x="321" y="904" type="line" smooth="yes"/>
      <point x="245" y="933" type="line" smooth="yes"/>
      <point x="204" y="918" type="line" smooth="yes"/>
      <point x="185" y="863" type="line" smooth="yes"/>
      <point x="203" y="863" type="line" smooth="yes"/>
      <point x="217" y="906" type="line" smooth="yes"/>
      <point x="248" y="915" type="line" smooth="yes"/>
      <point x="319" y="886" type="line" smooth="yes"/>
      <point x="395" y="857" type="line" smooth="yes"/>
      <point x="436" y="872" type="line" smooth="yes"/>
      <point x="455" y="927" type="line" smooth="yes"/>
    </contour>
    <contour>
      <point x="541" y="29" type="line" smooth="yes"/>
      <point x="105" y="780" type="line" smooth="yes"/>
      <point x="80" y="780" type="line" smooth="yes"/>
      <point x="80" y="0" type="line" smooth="yes"/>
      <point x="100" y="0" type="line" smooth="yes"/>
      <point x="100" y="600" type="line" smooth="yes"/>
      <point x="99" y="751" type="line" smooth="yes"/>
      <point x="535" y="0" type="line" smooth="yes"/>
      <point x="560" y="0" type="line" smooth="yes"/>
      <point x="560" y="780" type="line" smooth="yes"/>
      <point x="540" y="780" type="line" smooth="yes"/>
      <point x="540" y="180" type="line" smooth="yes"/>
    </contour>
  </outline>
</glyph>
<glyph name="Odieresis" format="1">
  <advance width="630"/>
  <unicode hex="00D6"/>
  <outline>
    <contour>
      <point x="405" y="915" type="line" smooth="yes"/>
      <point x="365" y="915" type="line" smooth="yes"/>
      <point x="365" y="875" type="line" smooth="yes"/>
      <point x="405" y="875" type="line" smooth="yes"/>
    </contour>
    <contour>
      <point x="265" y="915" type="line" smooth="yes"/>
      <point x="225" y="915" type="line" smooth="yes"/>
      <point x="225" y="875" type="line" smooth="yes"/>
      <point x="265" y="875" type="line" smooth="yes"/>
    </contour>
    <contour>
      <point x="85" y="370" type="line" smooth="yes"/>
      <point x="85" y="410" type="line" smooth="yes"/>
      <point x="143" y="685" type="line" smooth="yes"/>
      <point x="312" y="766" type="line" smooth="yes"/>
      <point x="318" y="766" type="line" smooth="yes"/>
      <point x="487" y="685" type="line" smooth="yes"/>
      <point x="545" y="410" type="line" smooth="yes"/>
      <point x="545" y="370" type="line" smooth="yes"/>
      <point x="487" y="95" type="line" smooth="yes"/>
      <point x="318" y="14" type="line" smooth="yes"/>
      <point x="312" y="14" type="line" smooth="yes"/>
      <point x="143" y="95" type="line" smooth="yes"/>
    </contour>
    <contour>
      <point x="65" y="410" type="line" smooth="yes"/>
      <point x="65" y="370" type="line" smooth="yes"/>
      <point x="128" y="81" type="line" smooth="yes"/>
      <point x="315" y="-6" type="line" smooth="yes"/>
      <point x="502" y="81" type="line" smooth="yes"/>
      <point x="565" y="370" type="line" smooth="yes"/>
      <point x="565" y="410" type="line" smooth="yes"/>
      <point x="502" y="699" type="line" smooth="yes"/>
      <point x="315" y="786" type="line" smooth="yes"/>
      <point x="128" y="699" type="line" smooth="yes"/>
    </contour>
  </outline>
</glyph>
<glyph name="Oslash" format="1">
  <advance width="626"/>
  <unicode hex="00D8"/>
  <outline>
    <contour>
      <point x="85" y="370" type="line" smooth="yes"/>
      <point x="85" y="410" type="line" smooth="yes"/>
      <point x="143" y="685" type="line" smooth="yes"/>
      <point x="312" y="766" type="line" smooth="yes"/>
      <point x="318" y="766" type="line" smooth="yes"/>
      <point x="415" y="747" type="line" smooth="yes"/>
      <point x="485" y="687" type="line" smooth="yes"/>
      <point x="133" y="111" type="line" smooth="yes"/>
      <point x="97" y="218" type="line" smooth="yes"/>
    </contour>
    <contour>
      <point x="545" y="410" type="line" smooth="yes"/>
      <point x="545" y="370" type="line" smooth="yes"/>
      <point x="487" y="95" type="line" smooth="yes"/>
      <point x="318" y="14" type="line" smooth="yes"/>
      <point x="312" y="14" type="line" smooth="yes"/>
      <point x="215" y="33" type="line" smooth="yes"/>
      <point x="144" y="93" type="line" smooth="yes"/>
      <point x="497" y="668" type="line" smooth="yes"/>
      <point x="533" y="562" type="line" smooth="yes"/>
    </contour>
    <contour>
      <point x="565" y="780" type="line" smooth="yes"/>
      <point x="542" y="780" type="line" smooth="yes"/>
      <point x="497" y="706" type="line" smooth="yes"/>
      <point x="420" y="767" type="line" smooth="yes"/>
      <point x="315" y="786" type="line" smooth="yes"/>
      <point x="128" y="699" type="line" smooth="yes"/>
      <point x="65" y="410" type="line" smooth="yes"/>
      <point x="65" y="370" type="line" smooth="yes"/>
      <point x="79" y="206" type="line" smooth="yes"/>
      <point x="121" y="91" type="line" smooth="yes"/>
      <point x="65" y="0" type="line" smooth="yes"/>
      <point x="88" y="0" type="line" smooth="yes"/>
      <point x="133" y="74" type="line" smooth="yes"/>
      <point x="210" y="13" type="line" smooth="yes"/>
      <point x="315" y="-6" type="line" smooth="yes"/>
      <point x="502" y="81" type="line" smooth="yes"/>
      <point x="565" y="370" type="line" smooth="yes"/>
      <point x="565" y="410" type="line" smooth="yes"/>
      <point x="551" y="574" type="line" smooth="yes"/>
      <point x="509" y="688" type="line" smooth="yes"/>
    </contour>
  </outline>
</glyph>
<glyph name="Ucircumflex" format="1">
  <advance width="620"/>
  <unicode hex="00DB"/>
  <outline>
    <contour>
      <point x="224" y="840" type="line" smooth="yes"/>
      <point x="310" y="935" type="line" smooth="yes"/>
      <point x="396" y="840" type="line" smooth="yes"/>
      <point x="420" y="840" type="line" smooth="yes"/>
      <point x="320" y="950" type="line" smooth="yes"/>
      <point x="300" y="950" type="line" smooth="yes"/>
      <point x="200" y="840" type="line" smooth="yes"/>
    </contour>
    <contour>
      <point x="310" y="-6" type="line" smooth="yes"/>
      <point x="479" y="46" type="line" smooth="yes"/>
      <point x="543" y="243" type="line" smooth="yes"/>
      <point x="543" y="780" type="line" smooth="yes"/>
      <point x="523" y="780" type="line" smooth="yes"/>
      <point x="523" y="246" type="line" smooth="yes"/>
      <point x="467" y="62" type="line" smooth="yes"/>
      <point x="310" y="14" type="line" smooth="yes"/>
      <point x="153" y="62" type="line" smooth="yes"/>
      <point x="97" y="246" type="line" smooth="yes"/>
      <point x="97" y="780" type="line" smooth="yes"/>
      <point x="77" y="780" type="line" smooth="yes"/>
      <point x="77" y="243" type="line" smooth="yes"/>
      <point x="141" y="46" type="line" smooth="yes"/>
    </contour>
  </outline>
</glyph>
<glyph name="germandbls" format="1">
  <advance width="550"/>
  <unicode hex="00DF"/>
  <outline>
    <contour>
      <point x="260" y="786" type="line" smooth="yes"/>
      <point x="383" y="737" type="line" smooth="yes"/>
      <point x="420" y="610" type="line" smooth="yes"/>
      <point x="382" y="498" type="line" smooth="yes"/>
      <point x="259" y="408" type="line" smooth="yes"/>
      <point x="259" y="393" type="line" smooth="yes"/>
      <point x="315" y="356" type="line" smooth="yes"/>
      <point x="441" y="267" type="line" smooth="yes"/>
      <point x="490" y="160" type="line" smooth="yes"/>
      <point x="460" y="59" type="line" smooth="yes"/>
      <point x="350" y="14" type="line" smooth="yes"/>
      <point x="240" y="59" type="line" smooth="yes"/>
      <point x="210" y="160" type="line" smooth="yes"/>
      <point x="190" y="160" type="line" smooth="yes"/>
      <point x="190" y="156" type="line" smooth="yes"/>
      <point x="225" y="46" type="line" smooth="yes"/>
      <point x="350" y="-6" type="line" smooth="yes"/>
      <point x="475" y="46" type="line" smooth="yes"/>
      <point x="510" y="157" type="line" smooth="yes"/>
      <point x="510" y="163" type="line" smooth="yes"/>
      <point x="465" y="270" type="line" smooth="yes"/>
      <point x="335" y="366" type="line" smooth="yes"/>
      <point x="283" y="400" type="line" smooth="yes"/>
      <point x="405" y="497" type="line" smooth="yes"/>
      <point x="440" y="608" type="line" smooth="yes"/>
      <point x="440" y="614" type="line" smooth="yes"/>
      <point x="399" y="751" type="line" smooth="yes"/>
      <point x="260" y="806" type="line" smooth="yes"/>
      <point x="121" y="751" type="line" smooth="yes"/>
      <point x="80" y="614" type="line" smooth="yes"/>
      <point x="80" y="0" type="line" smooth="yes"/>
      <point x="100" y="0" type="line" smooth="yes"/>
      <point x="100" y="610" type="line" smooth="yes"/>
      <point x="137" y="737" type="line" smooth="yes"/>
    </contour>
  </outline>
</glyph>
<glyph name="aring" format="1">
  <advance width="480"/>
  <unicode hex="00E5"/>
  <outline>
    <contour>
      <point x="172" y="700" type="line" smooth="yes"/>
      <point x="192" y="748" type="line" smooth="yes"/>
      <point x="240" y="768" type="line" smooth="yes"/>
      <point x="288" y="748" type="line" smooth="yes"/>
      <point x="308" y="700" type="line" smooth="yes"/>
      <point x="288" y="652" type="line" smooth="yes"/>
      <point x="240" y="632" type="line" smooth="yes"/>
      <point x="192" y="652" type="line" smooth="yes"/>
    </contour>
    <contour>
      <point x="154" y="700" type="line" smooth="yes"/>
      <point x="179" y="639" type="line" smooth="yes"/>
      <point x="240" y="614" type="line" smooth="yes"/>
      <point x="301" y="639" type="line" smooth="yes"/>
      <point x="326" y="700" type="line" smooth="yes"/>
      <point x="301" y="761" type="line" smooth="yes"/>
      <point x="240" y="786" type="line" smooth="yes"/>
      <point x="179" y="761" type="line" smooth="yes"/>
    </contour>
    <contour>
      <point x="196" y="14" type="line" smooth="yes"/>
      <point x="99" y="48" type="line" smooth="yes"/>
      <point x="67" y="125" type="line" smooth="yes"/>
      <point x="67" y="136" type="line" smooth="yes"/>
      <point x="107" y="234" type="line" smooth="yes"/>
      <point x="203" y="268" type="line" smooth="yes"/>
      <point x="390" y="298" type="line" smooth="yes"/>
      <point x="390" y="118" type="line" smooth="yes"/>
      <point x="333" y="53" type="line" smooth="yes"/>
    </contour>
    <contour>
      <point x="47" y="125" type="line" smooth="yes"/>
      <point x="89" y="28" type="line" smooth="yes"/>
      <point x="195" y="-6" type="line" smooth="yes"/>
      <point x="326" y="25" type="line" smooth="yes"/>
      <point x="392" y="84" type="line" smooth="yes"/>
      <point x="400" y="0" type="line" smooth="yes"/>
      <point x="415" y="0" type="line" smooth="yes"/>
      <point x="410" y="120" type="line" smooth="yes"/>
      <point x="410" y="361" type="line" smooth="yes"/>
      <point x="377" y="482" type="line" smooth="yes"/>
      <point x="240" y="536" type="line" smooth="yes"/>
      <point x="103" y="482" type="line" smooth="yes"/>
      <point x="70" y="361" type="line" smooth="yes"/>
      <point x="70" y="350" type="line" smooth="yes"/>
      <point x="90" y="350" type="line" smooth="yes"/>
      <point x="116" y="467" type="line" smooth="yes"/>
      <point x="240" y="516" type="line" smooth="yes"/>
      <point x="364" y="467" type="line" smooth="yes"/>
      <point x="390" y="350" type="line" smooth="yes"/>
      <point x="390" y="317" type="line" smooth="yes"/>
      <point x="210" y="288" type="line" smooth="yes"/>
      <point x="100" y="252" type="line" smooth="yes"/>
      <point x="47" y="135" type="line" smooth="yes"/>
    </contour>
  </outline>
</glyph>
<glyph name="ae" format="1">
  <advance width="865"/>
  <unicode hex="00E6"/>
  <outline>
    <contour>
      <point x="196" y="14" type="line" smooth="yes"/>
      <point x="99" y="48" type="line" smooth="yes"/>
      <point x="67" y="125" type="line" smooth="yes"/>
      <point x="67" y="136" type="line" smooth="yes"/>
      <point x="107" y="234" type="line" smooth="yes"/>
      <point x="203" y="268" type="line" smooth="yes"/>
      <point x="390" y="298" type="line" smooth="yes"/>
      <point x="390" y="255" type="line" smooth="yes"/>
      <point x="394" y="196" type="line" smooth="yes"/>
      <point x="405" y="143" type="line" smooth="yes"/>
      <point x="336" y="55" type="line" smooth="yes"/>
    </contour>
    <contour>
      <point x="600" y="516" type="line" smooth="yes"/>
      <point x="743" y="448" type="line" smooth="yes"/>
      <point x="790" y="275" type="line" smooth="yes"/>
      <point x="410" y="275" type="line" smooth="yes"/>
      <point x="457" y="448" type="line" smooth="yes"/>
    </contour>
    <contour>
      <point x="47" y="125" type="line" smooth="yes"/>
      <point x="89" y="28" type="line" smooth="yes"/>
      <point x="195" y="-6" type="line" smooth="yes"/>
      <point x="344" y="37" type="line" smooth="yes"/>
      <point x="414" y="118" type="line" smooth="yes"/>
      <point x="484" y="28" type="line" smooth="yes"/>
      <point x="605" y="-6" type="line" smooth="yes"/>
      <point x="763" y="51" type="line" smooth="yes"/>
      <point x="810" y="165" type="line" smooth="yes"/>
      <point x="810" y="170" type="line" smooth="yes"/>
      <point x="790" y="170" type="line" smooth="yes"/>
      <point x="749" y="65" type="line" smooth="yes"/>
      <point x="605" y="14" type="line" smooth="yes"/>
      <point x="457" y="82" type="line" smooth="yes"/>
      <point x="410" y="255" type="line" smooth="yes"/>
      <point x="810" y="255" type="line" smooth="yes"/>
      <point x="810" y="275" type="line" smooth="yes"/>
      <point x="761" y="460" type="line" smooth="yes"/>
      <point x="600" y="536" type="line" smooth="yes"/>
      <point x="473" y="495" type="line" smooth="yes"/>
      <point x="407" y="387" type="line" smooth="yes"/>
      <point x="368" y="491" type="line" smooth="yes"/>
      <point x="240" y="536" type="line" smooth="yes"/>
      <point x="103" y="482" type="line" smooth="yes"/>
      <point x="70" y="361" type="line" smooth="yes"/>
      <point x="70" y="350" type="line" smooth="yes"/>
      <point x="90" y="350" type="line" smooth="yes"/>
      <point x="116" y="467" type="line" smooth="yes"/>
      <point x="240" y="516" type="line" smooth="yes"/>
      <point x="364" y="467" type="line" smooth="yes"/>
      <point x="390" y="350" type="line" smooth="yes"/>
      <point x="390" y="317" type="line" smooth="yes"/>
      <point x="210" y="288" type="line" smooth="yes"/>
      <point x="100" y="252" type="line" smooth="yes"/>
      <point x="47" y="135" type="line" smooth="yes"/>
    </contour>
  </outline>
</glyph>
<glyph name="ccedilla" format="1">
  <advance width="505"/>
  <unicode hex="00E7"/>
  <outline>
    <contour>
      <point x="189" y="-188" type="line" smooth="yes"/>
      <point x="227" y="-201" type="line" smooth="yes"/>
      <point x="268" y="-206" type="line" smooth="yes"/>
      <point x="331" y="-192" type="line" smooth="yes"/>
      <point x="359" y="-135" type="line" smooth="yes"/>
      <point x="331" y="-78" type="line" smooth="yes"/>
      <point x="273" y="-64" type="line" smooth="yes"/>
      <point x="263" y="-64" type="line" smooth="yes"/>
      <point x="255" y="-65" type="line" smooth="yes"/>
      <point x="276" y="-6" type="line" smooth="yes"/>
      <point x="412" y="51" type="line" smooth="yes"/>
      <point x="450" y="165" type="line" smooth="yes"/>
      <point x="450" y="175" type="line" smooth="yes"/>
      <point x="430" y="175" type="line" smooth="yes"/>
      <point x="393" y="60" type="line" smooth="yes"/>
      <point x="268" y="14" type="line" smooth="yes"/>
      <point x="123" y="80" type="line" smooth="yes"/>
      <point x="75" y="255" type="line" smooth="yes"/>
      <point x="75" y="275" type="line" smooth="yes"/>
      <point x="123" y="450" type="line" smooth="yes"/>
      <point x="268" y="516" type="line" smooth="yes"/>
      <point x="393" y="467" type="line" smooth="yes"/>
      <point x="430" y="345" type="line" smooth="yes"/>
      <point x="450" y="345" type="line" smooth="yes"/>
      <point x="450" y="355" type="line" smooth="yes"/>
      <point x="410" y="477" type="line" smooth="yes"/>
      <point x="268" y="536" type="line" smooth="yes"/>
      <point x="106" y="462" type="line" smooth="yes"/>
      <point x="55" y="275" type="line" smooth="yes"/>
      <point x="55" y="255" type="line" smooth="yes"/>
      <point x="103" y="72" type="line" smooth="yes"/>
      <point x="256" y="-6" type="line" smooth="yes"/>
      <point x="232" y="-73" type="line" smooth="yes"/>
      <point x="243" y="-84" type="line" smooth="yes"/>
      <point x="250" y="-83" type="line" smooth="yes"/>
      <point x="268" y="-82" type="line" smooth="yes"/>
      <point x="319" y="-91" type="line" smooth="yes"/>
      <point x="341" y="-135" type="line" smooth="yes"/>
      <point x="319" y="-180" type="line" smooth="yes"/>
      <point x="268" y="-188" type="line" smooth="yes"/>
      <point x="229" y="-183" type="line" smooth="yes"/>
      <point x="195" y="-172" type="line" smooth="yes"/>
    </contour>
  </outline>
</glyph>
<glyph name="eacute" format="1">
  <advance width="530"/>
  <unicode hex="00E9"/>
  <outline>
    <contour>
      <point x="344" y="780" type="line" smooth="yes"/>
      <point x="254" y="620" type="line" smooth="yes"/>
      <point x="276" y="620" type="line" smooth="yes"/>
      <point x="366" y="780" type="line" smooth="yes"/>
    </contour>
    <contour>
      <point x="265" y="516" type="line" smooth="yes"/>
      <point x="408" y="448" type="line" smooth="yes"/>
      <point x="455" y="275" type="line" smooth="yes"/>
      <point x="75" y="275" type="line" smooth="yes"/>
      <point x="122" y="448" type="line" smooth="yes"/>
    </contour>
    <contour>
      <point x="475" y="255" type="line" smooth="yes"/>
      <point x="475" y="275" type="line" smooth="yes"/>
      <point x="426" y="460" type="line" smooth="yes"/>
      <point x="265" y="536" type="line" smooth="yes"/>
      <point x="105" y="460" type="line" smooth="yes"/>
      <point x="55" y="275" type="line" smooth="yes"/>
      <point x="55" y="255" type="line" smooth="yes"/>
      <point x="106" y="70" type="line" smooth="yes"/>
      <point x="270" y="-6" type="line" smooth="yes"/>
      <point x="428" y="51" type="line" smooth="yes"/>
      <point x="475" y="165" type="line" smooth="yes"/>
      <point x="475" y="170" type="line" smooth="yes"/>
      <point x="455" y="170" type="line" smooth="yes"/>
      <point x="414" y="65" type="line" smooth="yes"/>
      <point x="270" y="14" type="line" smooth="yes"/>
      <point x="122" y="82" type="line" smooth="yes"/>
      <point x="75" y="255" type="line" smooth="yes"/>
    </contour>
  </outline>
</glyph>
<glyph name="ecircumflex" format="1">
  <advance width="530"/>
  <unicode hex="00EA"/>
  <outline>
    <contour>
      <point x="155" y="620" type="line" smooth="yes"/>
      <point x="265" y="762" type="line" smooth="yes"/>
      <point x="375" y="620" type="line" smooth="yes"/>
      <point x="400" y="620" type="line" smooth="yes"/>
      <point x="275" y="780" type="line" smooth="yes"/>
      <point x="255" y="780" type="line" smooth="yes"/>
      <point x="130" y="620" type="line" smooth="yes"/>
    </contour>
    <contour>
      <point x="265" y="516" type="line" smooth="yes"/>
      <point x="408" y="448" type="line" smooth="yes"/>
      <point x="455" y="275" type="line" smooth="yes"/>
      <point x="75" y="275" type="line" smooth="yes"/>
      <point x="122" y="448" type="line" smooth="yes"/>
    </contour>
    <contour>
      <point x="475" y="255" type="line" smooth="yes"/>
      <point x="475" y="275" type="line" smooth="yes"/>
      <point x="426" y="460" type="line" smooth="yes"/>
      <point x="265" y="536" type="line" smooth="yes"/>
      <point x="105" y="460" type="line" smooth="yes"/>
      <point x="55" y="275" type="line" smooth="yes"/>
      <point x="55" y="255" type="line" smooth="yes"/>
      <point x="106" y="70" type="line" smooth="yes"/>
      <point x="270" y="-6" type="line" smooth="yes"/>
      <point x="428" y="51" type="line" smooth="yes"/>
      <point x="475" y="165" type="line" smooth="yes"/>
      <point x="475" y="170" type="line" smooth="yes"/>
      <point x="455" y="170" type="line" smooth="yes"/>
      <point x="414" y="65" type="line" smooth="yes"/>
      <point x="270" y="14" type="line" smooth="yes"/>
      <point x="122" y="82" type="line" smooth="yes"/>
      <point x="75" y="255" type="line" smooth="yes"/>
    </contour>
  </outline>
</glyph>
<glyph name="edieresis" format="1">
  <advance width="530"/>
  <unicode hex="00EB"/>
  <outline>
    <contour>
      <point x="355" y="720" type="line" smooth="yes"/>
      <point x="315" y="720" type="line" smooth="yes"/>
      <point x="315" y="680" type="line" smooth="yes"/>
      <point x="355" y="680" type="line" smooth="yes"/>
    </contour>
    <contour>
      <point x="215" y="720" type="line" smooth="yes"/>
      <point x="175" y="720" type="line" smooth="yes"/>
      <point x="175" y="680" type="line" smooth="yes"/>
      <point x="215" y="680" type="line" smooth="yes"/>
    </contour>
    <contour>
      <point x="265" y="516" type="line" smooth="yes"/>
      <point x="408" y="448" type="line" smooth="yes"/>
      <point x="455" y="275" type="line" smooth="yes"/>
      <point x="75" y="275" type="line" smooth="yes"/>
      <point x="122" y="448" type="line" smooth="yes"/>
    </contour>
    <contour>
      <point x="475" y="255" type="line" smooth="yes"/>
      <point x="475" y="275" type="line" smooth="yes"/>
      <point x="426" y="460" type="line" smooth="yes"/>
      <point x="265" y="536" type="line" smooth="yes"/>
      <point x="105" y="460" type="line" smooth="yes"/>
      <point x="55" y="275" type="line" smooth="yes"/>
      <point x="55" y="255" type="line" smooth="yes"/>
      <point x="106" y="70" type="line" smooth="yes"/>
      <point x="270" y="-6" type="line" smooth="yes"/>
      <point x="428" y="51" type="line" smooth="yes"/>
      <point x="475" y="165" type="line" smooth="yes"/>
      <point x="475" y="170" type="line" smooth="yes"/>
      <point x="455" y="170" type="line" smooth="yes"/>
      <point x="414" y="65" type="line" smooth="yes"/>
      <point x="270" y="14" type="line" smooth="yes"/>
      <point x="122" y="82" type="line" smooth="yes"/>
      <point x="75" y="255" type="line" smooth="yes"/>
    </contour>
  </outline>
</glyph>
<glyph name="icircumflex" format="1">
  <advance width="180"/>
  <unicode hex="00EE"/>
  <outline>
    <contour>
      <point x="-20" y="620" type="line" smooth="yes"/>
      <point x="90" y="762" type="line" smooth="yes"/>
      <point x="200" y="620" type="line" smooth="yes"/>
      <point x="225" y="620" type="line" smooth="yes"/>
      <point x="100" y="780" type="line" smooth="yes"/>
      <point x="80" y="780" type="line" smooth="yes"/>
      <point x="-45" y="620" type="line" smooth="yes"/>
    </contour>
    <contour>
      <point x="80" y="0" type="line" smooth="yes"/>
      <point x="100" y="0" type="line" smooth="yes"/>
      <point x="100" y="530" type="line" smooth="yes"/>
      <point x="80" y="530" type="line" smooth="yes"/>
    </contour>
  </outline>
</glyph>
<glyph name="eth" format="1">
  <advance width="526"/>
  <unicode hex="00F0"/>
  <outline>
    <contour>
      <point x="263" y="14" type="line" smooth="yes"/>
      <point x="123" y="79" type="line" smooth="yes"/>
      <point x="75" y="255" type="line" smooth="yes"/>
      <point x="75" y="275" type="line" smooth="yes"/>
      <point x="123" y="451" type="line" smooth="yes"/>
      <point x="263" y="516" type="line" smooth="yes"/>
      <point x="403" y="451" type="line" smooth="yes"/>
      <point x="451" y="275" type="line" smooth="yes"/>
      <point x="451" y="255" type="line" smooth="yes"/>
      <point x="403" y="79" type="line" smooth="yes"/>
    </contour>
    <contour>
      <point x="346" y="623" type="line" smooth="yes"/>
      <point x="404" y="530" type="line" smooth="yes"/>
      <point x="437" y="429" type="line" smooth="yes"/>
      <point x="369" y="508" type="line" smooth="yes"/>
      <point x="263" y="536" type="line" smooth="yes"/>
      <point x="109" y="466" type="line" smooth="yes"/>
      <point x="55" y="275" type="line" smooth="yes"/>
      <point x="55" y="255" type="line" smooth="yes"/>
      <point x="109" y="64" type="line" smooth="yes"/>
      <point x="263" y="-6" type="line" smooth="yes"/>
      <point x="417" y="64" type="line" smooth="yes"/>
      <point x="471" y="255" type="line" smooth="yes"/>
      <point x="471" y="275" type="line" smooth="yes"/>
      <point x="449" y="461" type="line" smooth="yes"/>
      <point x="359" y="637" type="line" smooth="yes"/>
      <point x="313" y="684" type="line" smooth="yes"/>
      <point x="266" y="722" type="line" smooth="yes"/>
      <point x="366" y="782" type="line" smooth="yes"/>
      <point x="366" y="806" type="line" smooth="yes"/>
      <point x="247" y="736" type="line" smooth="yes"/>
      <point x="151" y="783" type="line" smooth="yes"/>
      <point x="56" y="806" type="line" smooth="yes"/>
      <point x="56" y="786" type="line" smooth="yes"/>
      <point x="136" y="766" type="line" smooth="yes"/>
      <point x="227" y="724" type="line" smooth="yes"/>
      <point x="95" y="646" type="line" smooth="yes"/>
      <point x="95" y="622" type="line" smooth="yes"/>
      <point x="247" y="711" type="line" smooth="yes"/>
      <point x="298" y="672" type="line" smooth="yes"/>
    </contour>
  </outline>
</glyph>
<glyph name="ntilde" format="1">
  <advance width="490"/>
  <unicode hex="00F1"/>
  <outline>
    <contour>
      <point x="367" y="732" type="line" smooth="yes"/>
      <point x="353" y="689" type="line" smooth="yes"/>
      <point x="322" y="680" type="line" smooth="yes"/>
      <point x="251" y="709" type="line" smooth="yes"/>
      <point x="175" y="738" type="line" smooth="yes"/>
      <point x="134" y="723" type="line" smooth="yes"/>
      <point x="115" y="668" type="line" smooth="yes"/>
      <point x="133" y="668" type="line" smooth="yes"/>
      <point x="147" y="711" type="line" smooth="yes"/>
      <point x="178" y="720" type="line" smooth="yes"/>
      <point x="249" y="691" type="line" smooth="yes"/>
      <point x="325" y="662" type="line" smooth="yes"/>
      <point x="366" y="677" type="line" smooth="yes"/>
      <point x="385" y="732" type="line" smooth="yes"/>
    </contour>
    <contour>
      <point x="430" y="0" type="line" smooth="yes"/>
      <point x="430" y="380" type="line" smooth="yes"/>
      <point x="389" y="498" type="line" smooth="yes"/>
      <point x="271" y="536" type="line" smooth="yes"/>
      <point x="154" y="508" type="line" smooth="yes"/>
      <point x="87" y="448" type="line" smooth="yes"/>
      <point x="80" y="530" type="line" smooth="yes"/>
      <point x="65" y="530" type="line" smooth="yes"/>
      <point x="70" y="410" type="line" smooth="yes"/>
      <point x="70" y="0" type="line" smooth="yes"/>
      <point x="90" y="0" type="line" smooth="yes"/>
      <point x="90" y="423" type="line" smooth="yes"/>
      <point x="154" y="486" type="line" smooth="yes"/>
      <point x="269" y="516" type="line" smooth="yes"/>
      <point x="374" y="485" type="line" smooth="yes"/>
      <point x="410" y="375" type="line" smooth="yes"/>
      <point x="410" y="0" type="line" smooth="yes"/>
    </contour>
  </outline>
</glyph>
<glyph name="ograve" format="1">
  <advance width="526"/>
  <unicode hex="00F2"/>
  <outline>
    <contour>
      <point x="162" y="780" type="line" smooth="yes"/>
      <point x="252" y="620" type="line" smooth="yes"/>
      <point x="274" y="620" type="line" smooth="yes"/>
      <point x="184" y="780" type="line" smooth="yes"/>
    </contour>
    <contour>
      <point x="263" y="14" type="line" smooth="yes"/>
      <point x="123" y="79" type="line" smooth="yes"/>
      <point x="75" y="255" type="line" smooth="yes"/>
      <point x="75" y="275" type="line" smooth="yes"/>
      <point x="123" y="451" type="line" smooth="yes"/>
      <point x="263" y="516" type="line" smooth="yes"/>
      <point x="403" y="451" type="line" smooth="yes"/>
      <point x="451" y="275" type="line" smooth="yes"/>
      <point x="451" y="255" type="line" smooth="yes"/>
      <point x="403" y="79" type="line" smooth="yes"/>
    </contour>
    <contour>
      <point x="263" y="-6" type="line" smooth="yes"/>
      <point x="417" y="64" type="line" smooth="yes"/>
      <point x="471" y="255" type="line" smooth="yes"/>
      <point x="471" y="275" type="line" smooth="yes"/>
      <point x="417" y="466" type="line" smooth="yes"/>
      <point x="263" y="536" type="line" smooth="yes"/>
      <point x="109" y="466" type="line" smooth="yes"/>
      <point x="55" y="275" type="line" smooth="yes"/>
      <point x="55" y="255" type="line" smooth="yes"/>
      <point x="109" y="64" type="line" smooth="yes"/>
    </contour>
  </outline>
</glyph>
<glyph name="otilde" format="1">
  <advance width="526"/>
  <unicode hex="00F5"/>
  <outline>
    <contour>
      <point x="380" y="732" type="line" smooth="yes"/>
      <point x="366" y="689" type="line" smooth="yes"/>
      <point x="335" y="680" type="line" smooth="yes"/>
      <point x="264" y="709" type="line" smooth="yes"/>
      <point x="188" y="738" type="line" smooth="yes"/>
      <point x="147" y="723" type="line" smooth="yes"/>
      <point x="128" y="668" type="line" smooth="yes"/>
      <point x="146" y="668" type="line" smooth="yes"/>
      <point x="160" y="711" type="line" smooth="yes"/>
      <point x="191" y="720" type="line" smooth="yes"/>
      <point x="262" y="691" type="line" smooth="yes"/>
      <point x="338" y="662" type="line" smooth="yes"/>
      <point x="379" y="677" type="line" smooth="yes"/>
      <point x="398" y="732" type="line" smooth="yes"/>
    </contour>
    <contour>
      <point x="263" y="14" type="line" smooth="yes"/>
      <point x="123" y="79" type="line" smooth="yes"/>
      <point x="75" y="255" type="line" smooth="yes"/>
      <point x="75" y="275" type="line" smooth="yes"/>
      <point x="123" y="451" type="line" smooth="yes"/>
      <point x="263" y="516" type="line" smooth="yes"/>
      <point x="403" y="451" type="line" smooth="yes"/>
      <point x="451" y="275" type="line" smooth="yes"/>
      <point x="451" y="255" type="line" smooth="yes"/>
      <point x="403" y="79" type="line" smooth="yes"/>
    </contour>
    <contour>
      <point x="263" y="-6" type="line" smooth="yes"/>
      <point x="417" y="64" type="line" smooth="yes"/>
      <point x="471" y="255" type="line" smooth="yes"/>
      <point x="471" y="275" type="line" smooth="yes"/>
      <point x="417" y="466" type="line" smooth="yes"/>
      <point x="263" y="536" type="line" smooth="yes"/>
      <point x="109" y="466" type="line" smooth="yes"/>
      <point x="55" y="275" type="line" smooth="yes"/>
      <point x="55" y="255" type="line" smooth="yes"/>
      <point x="109" y="64" type="line" smooth="yes"/>
    </contour>
  </outline>
</glyph>
<glyph name="oslash" format="1">
  <advance width="526"/>
  <unicode hex="00F8"/>
  <outline>
    <contour>
      <point x="75" y="255" type="line" smooth="yes"/>
      <point x="75" y="275" type="line" smooth="yes"/>
      <point x="123" y="451" type="line" smooth="yes"/>
      <point x="263" y="516" type="line" smooth="yes"/>
      <point x="338" y="502" type="line" smooth="yes"/>
      <point x="395" y="460" type="line" smooth="yes"/>
      <point x="118" y="85" type="line" smooth="yes"/>
      <point x="86" y="159" type="line" smooth="yes"/>
    </contour>
    <contour>
      <point x="263" y="14" type="line" smooth="yes"/>
      <point x="187" y="29" type="line" smooth="yes"/>
      <point x="130" y="70" type="line" smooth="yes"/>
      <point x="407" y="444" type="line" smooth="yes"/>
      <point x="440" y="370" type="line" smooth="yes"/>
      <point x="451" y="275" type="line" smooth="yes"/>
      <point x="451" y="255" type="line" smooth="yes"/>
      <point x="403" y="79" type="line" smooth="yes"/>
    </contour>
    <contour>
      <point x="471" y="530" type="line" smooth="yes"/>
      <point x="447" y="530" type="line" smooth="yes"/>
      <point x="408" y="477" type="line" smooth="yes"/>
      <point x="345" y="521" type="line" smooth="yes"/>
      <point x="263" y="536" type="line" smooth="yes"/>
      <point x="109" y="466" type="line" smooth="yes"/>
      <point x="55" y="275" type="line" smooth="yes"/>
      <point x="55" y="255" type="line" smooth="yes"/>
      <point x="68" y="149" type="line" smooth="yes"/>
      <point x="105" y="68" type="line" smooth="yes"/>
      <point x="55" y="0" type="line" smooth="yes"/>
      <point x="79" y="0" type="line" smooth="yes"/>
      <point x="118" y="53" type="line" smooth="yes"/>
      <point x="180" y="9" type="line" smooth="yes"/>
      <point x="263" y="-6" type="line" smooth="yes"/>
      <point x="417" y="64" type="line" smooth="yes"/>
      <point x="471" y="255" type="line" smooth="yes"/>
      <point x="471" y="275" type="line" smooth="yes"/>
      <point x="458" y="381" type="line" smooth="yes"/>
      <point x="420" y="462" type="line" smooth="yes"/>
    </contour>
  </outline>
</glyph>
<glyph name="ugrave" format="1">
  <advance width="490"/>
  <unicode hex="00F9"/>
  <outline>
    <contour>
      <point x="139" y="780" type="line" smooth="yes"/>
      <point x="229" y="620" type="line" smooth="yes"/>
      <point x="251" y="620" type="line" smooth="yes"/>
      <point x="161" y="780" type="line" smooth="yes"/>
    </contour>
    <contour>
      <point x="60" y="530" type="line" smooth="yes"/>
      <point x="60" y="150" type="line" smooth="yes"/>
      <point x="101" y="32" type="line" smooth="yes"/>
      <point x="219" y="-6" type="line" smooth="yes"/>
      <point x="336" y="22" type="line" smooth="yes"/>
      <point x="402" y="81" type="line" smooth="yes"/>
      <point x="410" y="0" type="line" smooth="yes"/>
      <point x="425" y="0" type="line" smooth="yes"/>
      <point x="420" y="120" type="line" smooth="yes"/>
      <point x="420" y="530" type="line" smooth="yes"/>
      <point x="400" y="530" type="line" smooth="yes"/>
      <point x="400" y="107" type="line" smooth="yes"/>
      <point x="336" y="44" type="line" smooth="yes"/>
      <point x="221" y="14" type="line" smooth="yes"/>
      <point x="116" y="45" type="line" smooth="yes"/>
      <point x="80" y="155" type="line" smooth="yes"/>
      <point x="80" y="530" type="line" smooth="yes"/>
    </contour>
  </outline>
</glyph>
<glyph name="thorn" format="1">
  <advance width="510"/>
  <unicode hex="00FE"/>
  <outline>
    <contour>
      <point x="70" y="-200" type="line" smooth="yes"/>
      <point x="90" y="-200" type="line" smooth="yes"/>
      <point x="90" y="75" type="line" smooth="yes"/>
      <point x="149" y="21" type="line" smooth="yes"/>
      <point x="252" y="-6" type="line" smooth="yes"/>
      <point x="404" y="64" type="line" smooth="yes"/>
      <point x="455" y="255" type="line" smooth="yes"/>
      <point x="455" y="275" type="line" smooth="yes"/>
      <point x="404" y="466" type="line" smooth="yes"/>
      <point x="252" y="536" type="line" smooth="yes"/>
      <point x="149" y="509" type="line" smooth="yes"/>
      <point x="90" y="455" type="line" smooth="yes"/>
      <point x="90" y="800" type="line" smooth="yes"/>
      <point x="70" y="800" type="line" smooth="yes"/>
    </contour>
    <contour>
      <point x="90" y="423" type="line" smooth="yes"/>
      <point x="149" y="485" type="line" smooth="yes"/>
      <point x="252" y="516" type="line" smooth="yes"/>
      <point x="389" y="451" type="line" smooth="yes"/>
      <point x="435" y="275" type="line" smooth="yes"/>
      <point x="435" y="255" type="line" smooth="yes"/>
      <point x="389" y="79" type="line" smooth="yes"/>
      <point x="252" y="14" type="line" smooth="yes"/>
      <point x="149" y="45" type="line" smooth="yes"/>
      <point x="90" y="107" type="line" smooth="yes"/>
    </contour>
  </outline>
</glyph>
<glyph name="Aogonek" format="1">
  <advance width="590"/>
  <unicode hex="0104"/>
  <outline>
    <contour>
      <point x="295" y="760" type="line" smooth="yes"/>
      <point x="455" y="250" type="line" smooth="yes"/>
      <point x="135" y="250" type="line" smooth="yes"/>
    </contour>
    <contour>
      <point x="594" y="-172" type="line" smooth="yes"/>
      <point x="565" y="-183" type="line" smooth="yes"/>
      <point x="521" y="-188" type="line" smooth="yes"/>
      <point x="470" y="-172" type="line" smooth="yes"/>
      <point x="448" y="-115" type="line" smooth="yes"/>
      <point x="484" y="-37" type="line" smooth="yes"/>
      <point x="555" y="0" type="line" smooth="yes"/>
      <point x="305" y="790" type="line" smooth="yes"/>
      <point x="285" y="790" type="line" smooth="yes"/>
      <point x="35" y="0" type="line" smooth="yes"/>
      <point x="56" y="0" type="line" smooth="yes"/>
      <point x="128" y="230" type="line" smooth="yes"/>
      <point x="462" y="230" type="line" smooth="yes"/>
      <point x="531" y="9" type="line" smooth="yes"/>
      <point x="461" y="-34" type="line" smooth="yes"/>
      <point x="430" y="-115" type="line" smooth="yes"/>
      <point x="458" y="-185" type="line" smooth="yes"/>
      <point x="521" y="-206" type="line" smooth="yes"/>
      <point x="568" y="-200" type="line" smooth="yes"/>
      <point x="600" y="-188" type="line" smooth="yes"/>
    </contour>
  </outline>
</glyph>
<glyph name="aogonek" format="1">
  <advance width="485"/>
  <unicode hex="0105"/>
  <outline>
    <contour>
      <point x="201" y="14" type="line" smooth="yes"/>
      <point x="104" y="48" type="line" smooth="yes"/>
      <point x="72" y="125" type="line" smooth="yes"/>
      <point x="72" y="136" type="line" smooth="yes"/>
      <point x="112" y="234" type="line" smooth="yes"/>
      <point x="208" y="268" type="line" smooth="yes"/>
      <point x="395" y="298" type="line" smooth="yes"/>
      <point x="395" y="118" type="line" smooth="yes"/>
      <point x="338" y="53" type="line" smooth="yes"/>
    </contour>
    <contour>
      <point x="459" y="-172" type="line" smooth="yes"/>
      <point x="430" y="-183" type="line" smooth="yes"/>
      <point x="386" y="-188" type="line" smooth="yes"/>
      <point x="335" y="-172" type="line" smooth="yes"/>
      <point x="313" y="-115" type="line" smooth="yes"/>
      <point x="349" y="-37" type="line" smooth="yes"/>
      <point x="420" y="0" type="line" smooth="yes"/>
      <point x="415" y="120" type="line" smooth="yes"/>
      <point x="415" y="361" type="line" smooth="yes"/>
      <point x="382" y="482" type="line" smooth="yes"/>
      <point x="245" y="536" type="line" smooth="yes"/>
      <point x="108" y="482" type="line" smooth="yes"/>
      <point x="75" y="361" type="line" smooth="yes"/>
      <point x="75" y="350" type="line" smooth="yes"/>
      <point x="95" y="350" type="line" smooth="yes"/>
      <point x="121" y="467" type="line" smooth="yes"/>
      <point x="245" y="516" type="line" smooth="yes"/>
      <point x="369" y="467" type="line" smooth="yes"/>
      <point x="395" y="350" type="line" smooth="yes"/>
      <point x="395" y="317" type="line" smooth="yes"/>
      <point x="215" y="288" type="line" smooth="yes"/>
      <point x="105" y="252" type="line" smooth="yes"/>
      <point x="52" y="135" type="line" smooth="yes"/>
      <point x="52" y="125" type="line" smooth="yes"/>
      <point x="94" y="28" type="line" smooth="yes"/>
      <point x="200" y="-6" type="line" smooth="yes"/>
      <point x="331" y="25" type="line" smooth="yes"/>
      <point x="397" y="84" type="line" smooth="yes"/>
      <point x="404" y="12" type="line" smooth="yes"/>
      <point x="329" y="-31" type="line" smooth="yes"/>
      <point x="295" y="-115" type="line" smooth="yes"/>
      <point x="323" y="-185" type="line" smooth="yes"/>
      <point x="386" y="-206" type="line" smooth="yes"/>
      <point x="433" y="-200" type="line" smooth="yes"/>
      <point x="465" y="-188" type="line" smooth="yes"/>
    </contour>
  </outline>
</glyph>
<glyph name="ccircumflex" format="1">
  <advance width="505"/>
  <unicode hex="0109"/>
  <outline>
    <contour>
      <point x="158" y="620" type="line" smooth="yes"/>
      <point x="268" y="762" type="line" smooth="yes"/>
      <point x="378" y="620" type="line" smooth="yes"/>
      <point x="403" y="620" type="line" smooth="yes"/>
      <point x="278" y="780" type="line" smooth="yes"/>
      <point x="258" y="780" type="line" smooth="yes"/>
      <point x="133" y="620" type="line" smooth="yes"/>
    </contour>
    <contour>
      <point x="55" y="275" type="line" smooth="yes"/>
      <point x="55" y="255" type="line" smooth="yes"/>
      <point x="106" y="68" type="line" smooth="yes"/>
      <point x="268" y="-6" type="line" smooth="yes"/>
      <point x="410" y="49" type="line" smooth="yes"/>
      <point x="450" y="165" type="line" smooth="yes"/>
      <point x="450" y="175" type="line" smooth="yes"/>
      <point x="430" y="175" type="line" smooth="yes"/>
      <point x="393" y="60" type="line" smooth="yes"/>
      <point x="268" y="14" type="line" smooth="yes"/>
      <point x="123" y="80" type="line" smooth="yes"/>
      <point x="75" y="255" type="line" smooth="yes"/>
      <point x="75" y="275" type="line" smooth="yes"/>
      <point x="123" y="450" type="line" smooth="yes"/>
      <point x="268" y="516" type="line" smooth="yes"/>
      <point x="393" y="467" type="line" smooth="yes"/>
      <point x="430" y="345" type="line" smooth="yes"/>
      <point x="450" y="345" type="line" smooth="yes"/>
      <point x="450" y="355" type="line" smooth="yes"/>
      <point x="410" y="477" type="line" smooth="yes"/>
      <point x="268" y="536" type="line" smooth="yes"/>
      <point x="106" y="462" type="line" smooth="yes"/>
    </contour>
  </outline>
</glyph>
<glyph name="cdotaccent" format="1">
  <advance width="505"/>
  <unicode hex="010B"/>
  <outline>
    <contour>
      <point x="288" y="720" type="line" smooth="yes"/>
      <point x="248" y="720" type="line" smooth="yes"/>
      <point x="248" y="680" type="line" smooth="yes"/>
      <point x="288" y="680" type="line" smooth="yes"/>
    </contour>
    <contour>
      <point x="55" y="275" type="line" smooth="yes"/>
      <point x="55" y="255" type="line" smooth="yes"/>
      <point x="106" y="68" type="line" smooth="yes"/>
      <point x="268" y="-6" type="line" smooth="yes"/>
      <point x="410" y="49" type="line" smooth="yes"/>
      <point x="450" y="165" type="line" smooth="yes"/>
      <point x="450" y="175" type="line" smooth="yes"/>
      <point x="430" y="175" type="line" smooth="yes"/>
      <point x="393" y="60" type="line" smooth="yes"/>
      <point x="268" y="14" type="line" smooth="yes"/>
      <point x="123" y="80" type="line" smooth="yes"/>
      <point x="75" y="255" type="line" smooth="yes"/>
      <point x="75" y="275" type="line" smooth="yes"/>
      <point x="123" y="450" type="line" smooth="yes"/>
      <point x="268" y="516" type="line" smooth="yes"/>
      <point x="393" y="467" type="line" smooth="yes"/>
      <point x="430" y="345" type="line" smooth="yes"/>
      <point x="450" y="345" type="line" smooth="yes"/>
      <point x="450" y="355" type="line" smooth="yes"/>
      <point x="410" y="477" type="line" smooth="yes"/>
      <point x="268" y="536" type="line" smooth="yes"/>
      <point x="106" y="462" type="line" smooth="yes"/>
    </contour>
  </outline>
</glyph>
<glyph name="Dcaron" format="1">
  <advance width="615"/>
  <unicode hex="010E"/>
  <outline>
    <contour>
      <point x="356" y="950" type="line" smooth="yes"/>
      <point x="270" y="855" type="line" smooth="yes"/>
      <point x="184" y="950" type="line" smooth="yes"/>
      <point x="160" y="950" type="line" smooth="yes"/>
      <point x="260" y="840" type="line" smooth="yes"/>
      <point x="280" y="840" type="line" smooth="yes"/>
      <point x="380" y="950" type="line" smooth="yes"/>
    </contour>
    <contour>
      <point x="100" y="20" type="line" smooth="yes"/>
      <point x="100" y="760" type="line" smooth="yes"/>
      <point x="265" y="760" type="line" smooth="yes"/>
      <point x="460" y="683" type="line" smooth="yes"/>
      <point x="535" y="410" type="line" smooth="yes"/>
      <point x="535" y="370" type="line" smooth="yes"/>
      <point x="460" y="98" type="line" smooth="yes"/>
      <point x="265" y="20" type="line" smooth="yes"/>
    </contour>
    <contour>
      <point x="555" y="370" type="line" smooth="yes"/>
      <point x="555" y="410" type="line" smooth="yes"/>
      <point x="474" y="698" type="line" smooth="yes"/>
      <point x="270" y="780" type="line" smooth="yes"/>
      <point x="80" y="780" type="line" smooth="yes"/>
      <point x="80" y="0" type="line" smooth="yes"/>
      <point x="270" y="0" type="line" smooth="yes"/>
      <point x="474" y="82" type="line" smooth="yes"/>
    </contour>
  </outline>
</glyph>
<glyph name="Eogonek" format="1">
  <advance width="540"/>
  <unicode hex="0118"/>
  <outline>
    <contour>
      <point x="529" y="-172" type="line" smooth="yes"/>
      <point x="500" y="-183" type="line" smooth="yes"/>
      <point x="456" y="-188" type="line" smooth="yes"/>
      <point x="405" y="-172" type="line" smooth="yes"/>
      <point x="383" y="-115" type="line" smooth="yes"/>
      <point x="419" y="-37" type="line" smooth="yes"/>
      <point x="490" y="0" type="line" smooth="yes"/>
      <point x="490" y="20" type="line" smooth="yes"/>
      <point x="100" y="20" type="line" smooth="yes"/>
      <point x="100" y="388" type="line" smooth="yes"/>
      <point x="440" y="388" type="line" smooth="yes"/>
      <point x="440" y="408" type="line" smooth="yes"/>
      <point x="100" y="408" type="line" smooth="yes"/>
      <point x="100" y="760" type="line" smooth="yes"/>
      <point x="490" y="760" type="line" smooth="yes"/>
      <point x="490" y="780" type="line" smooth="yes"/>
      <point x="80" y="780" type="line" smooth="yes"/>
      <point x="80" y="0" type="line" smooth="yes"/>
      <point x="444" y="0" type="line" smooth="yes"/>
      <point x="388" y="-42" type="line" smooth="yes"/>
      <point x="365" y="-115" type="line" smooth="yes"/>
      <point x="393" y="-185" type="line" smooth="yes"/>
      <point x="456" y="-206" type="line" smooth="yes"/>
      <point x="503" y="-200" type="line" smooth="yes"/>
      <point x="535" y="-188" type="line" smooth="yes"/>
    </contour>
  </outline>
</glyph>
<glyph name="eogonek" format="1">
  <advance width="530"/>
  <unicode hex="0119"/>
  <outline>
    <contour>
      <point x="265" y="516" type="line" smooth="yes"/>
      <point x="408" y="448" type="line" smooth="yes"/>
      <point x="455" y="275" type="line" smooth="yes"/>
      <point x="75" y="275" type="line" smooth="yes"/>
      <point x="122" y="448" type="line" smooth="yes"/>
    </contour>
    <contour>
      <point x="369" y="-172" type="line" smooth="yes"/>
      <point x="340" y="-183" type="line" smooth="yes"/>
      <point x="296" y="-188" type="line" smooth="yes"/>
      <point x="245" y="-172" type="line" smooth="yes"/>
      <point x="223" y="-115" type="line" smooth="yes"/>
      <point x="260" y="-35" type="line" smooth="yes"/>
      <point x="330" y="0" type="line" smooth="yes"/>
      <point x="441" y="67" type="line" smooth="yes"/>
      <point x="475" y="165" type="line" smooth="yes"/>
      <point x="475" y="170" type="line" smooth="yes"/>
      <point x="455" y="170" type="line" smooth="yes"/>
      <point x="414" y="65" type="line" smooth="yes"/>
      <point x="270" y="14" type="line" smooth="yes"/>
      <point x="122" y="82" type="line" smooth="yes"/>
      <point x="75" y="255" type="line" smooth="yes"/>
      <point x="475" y="255" type="line" smooth="yes"/>
      <point x="475" y="275" type="line" smooth="yes"/>
      <point x="426" y="460" type="line" smooth="yes"/>
      <point x="265" y="536" type="line" smooth="yes"/>
      <point x="105" y="460" type="line" smooth="yes"/>
      <point x="55" y="275" type="line" smooth="yes"/>
      <point x="55" y="255" type="line" smooth="yes"/>
      <point x="106" y="70" type="line" smooth="yes"/>
      <point x="270" y="-6" type="line" smooth="yes"/>
      <point x="272" y="-6" type="line" smooth="yes"/>
      <point x="224" y="-47" type="line" smooth="yes"/>
      <point x="205" y="-115" type="line" smooth="yes"/>
      <point x="233" y="-185" type="line" smooth="yes"/>
      <point x="296" y="-206" type="line" smooth="yes"/>
      <point x="343" y="-200" type="line" smooth="yes"/>
      <point x="375" y="-188" type="line" smooth="yes"/>
    </contour>
  </outline>
</glyph>
<glyph name="Ecaron" format="1">
  <advance width="540"/>
  <unicode hex="011A"/>
  <outline>
    <contour>
      <point x="376" y="950" type="line" smooth="yes"/>
      <point x="290" y="855" type="line" smooth="yes"/>
      <point x="204" y="950" type="line" smooth="yes"/>
      <point x="180" y="950" type="line" smooth="yes"/>
      <point x="280" y="840" type="line" smooth="yes"/>
      <point x="300" y="840" type="line" smooth="yes"/>
      <point x="400" y="950" type="line" smooth="yes"/>
    </contour>
    <contour>
      <point x="80" y="780" type="line" smooth="yes"/>
      <point x="80" y="0" type="line" smooth="yes"/>
      <point x="490" y="0" type="line" smooth="yes"/>
      <point x="490" y="20" type="line" smooth="yes"/>
      <point x="100" y="20" type="line" smooth="yes"/>
      <point x="100" y="388" type="line" smooth="yes"/>
      <point x="440" y="388" type="line" smooth="yes"/>
      <point x="440" y="408" type="line" smooth="yes"/>
      <point x="100" y="408" type="line" smooth="yes"/>
      <point x="100" y="760" type="line" smooth="yes"/>
      <point x="490" y="760" type="line" smooth="yes"/>
      <point x="490" y="780" type="line" smooth="yes"/>
    </contour>
  </outline>
</glyph>
<glyph name="Gbreve" format="1">
  <advance width="625"/>
  <unicode hex="011E"/>
  <outline>
    <contour>
      <point x="325" y="852" type="line" smooth="yes"/>
      <point x="242" y="879" type="line" smooth="yes"/>
      <point x="213" y="950" type="line" smooth="yes"/>
      <point x="195" y="950" type="line" smooth="yes"/>
      <point x="230" y="866" type="line" smooth="yes"/>
      <point x="325" y="834" type="line" smooth="yes"/>
      <point x="420" y="866" type="line" smooth="yes"/>
      <point x="455" y="950" type="line" smooth="yes"/>
      <point x="437" y="950" type="line" smooth="yes"/>
      <point x="408" y="879" type="line" smooth="yes"/>
    </contour>
    <contour>
      <point x="336" y="-6" type="line" smooth="yes"/>
      <point x="475" y="21" type="line" smooth="yes"/>
      <point x="550" y="79" type="line" smooth="yes"/>
      <point x="550" y="362" type="line" smooth="yes"/>
      <point x="371" y="362" type="line" smooth="yes"/>
      <point x="371" y="342" type="line" smooth="yes"/>
      <point x="530" y="342" type="line" smooth="yes"/>
      <point x="530" y="88" type="line" smooth="yes"/>
      <point x="460" y="37" type="line" smooth="yes"/>
      <point x="339" y="14" type="line" smooth="yes"/>
      <point x="333" y="14" type="line" smooth="yes"/>
      <point x="150" y="95" type="line" smooth="yes"/>
      <point x="85" y="370" type="line" smooth="yes"/>
      <point x="85" y="410" type="line" smooth="yes"/>
      <point x="149" y="686" type="line" smooth="yes"/>
      <point x="322" y="766" type="line" smooth="yes"/>
      <point x="328" y="766" type="line" smooth="yes"/>
      <point x="483" y="703" type="line" smooth="yes"/>
      <point x="530" y="500" type="line" smooth="yes"/>
      <point x="550" y="500" type="line" smooth="yes"/>
      <point x="550" y="523" type="line" smooth="yes"/>
      <point x="499" y="715" type="line" smooth="yes"/>
      <point x="325" y="786" type="line" smooth="yes"/>
      <point x="133" y="700" type="line" smooth="yes"/>
      <point x="65" y="410" type="line" smooth="yes"/>
      <point x="65" y="370" type="line" smooth="yes"/>
      <point x="134" y="80" type="line" smooth="yes"/>
    </contour>
  </outline>
</glyph>
<glyph name="Gdotaccent" format="1">
  <advance width="625"/>
  <unicode hex="0120"/>
  <outline>
    <contour>
      <point x="345" y="915" type="line" smooth="yes"/>
      <point x="305" y="915" type="line" smooth="yes"/>
      <point x="305" y="875" type="line" smooth="yes"/>
      <point x="345" y="875" type="line" smooth="yes"/>
    </contour>
    <contour>
      <point x="336" y="-6" type="line" smooth="yes"/>
      <point x="475" y="21" type="line" smooth="yes"/>
      <point x="550" y="79" type="line" smooth="yes"/>
      <point x="550" y="362" type="line" smooth="yes"/>
      <point x="371" y="362" type="line" smooth="yes"/>
      <point x="371" y="342" type="line" smooth="yes"/>
      <point x="530" y="342" type="line" smooth="yes"/>
      <point x="530" y="88" type="line" smooth="yes"/>
      <point x="460" y="37" type="line" smooth="yes"/>
      <point x="339" y="14" type="line" smooth="yes"/>
      <point x="333" y="14" type="line" smooth="yes"/>
      <point x="150" y="95" type="line" smooth="yes"/>
      <point x="85" y="370" type="line" smooth="yes"/>
      <point x="85" y="410" type="line" smooth="yes"/>
      <point x="149" y="686" type="line" smooth="yes"/>
      <point x="322" y="766" type="line" smooth="yes"/>
      <point x="328" y="766" type="line" smooth="yes"/>
      <point x="483" y="703" type="line" smooth="yes"/>
      <point x="530" y="500" type="line" smooth="yes"/>
      <point x="550" y="500" type="line" smooth="yes"/>
      <point x="550" y="523" type="line" smooth="yes"/>
      <point x="499" y="715" type="line" smooth="yes"/>
      <point x="325" y="786" type="line" smooth="yes"/>
      <point x="133" y="700" type="line" smooth="yes"/>
      <point x="65" y="410" type="line" smooth="yes"/>
      <point x="65" y="370" type="line" smooth="yes"/>
      <point x="134" y="80" type="line" smooth="yes"/>
    </contour>
  </outline>
</glyph>
<glyph name="Gcommaaccent" format="1">
  <advance width="625"/>
  <unicode hex="0122"/>
  <outline>
    <contour>
      <point x="356" y="-70" type="line" smooth="yes"/>
      <point x="316" y="-70" type="line" smooth="yes"/>
      <point x="316" y="-110" type="line" smooth="yes"/>
      <point x="336" y="-110" type="line" smooth="yes"/>
      <point x="322" y="-174" type="line" smooth="yes"/>
      <point x="281" y="-188" type="line" smooth="yes"/>
      <point x="281" y="-206" type="line" smooth="yes"/>
      <point x="338" y="-183" type="line" smooth="yes"/>
      <point x="356" y="-102" type="line" smooth="yes"/>
    </contour>
    <contour>
      <point x="336" y="-6" type="line" smooth="yes"/>
      <point x="475" y="21" type="line" smooth="yes"/>
      <point x="550" y="79" type="line" smooth="yes"/>
      <point x="550" y="362" type="line" smooth="yes"/>
      <point x="371" y="362" type="line" smooth="yes"/>
      <point x="371" y="342" type="line" smooth="yes"/>
      <point x="530" y="342" type="line" smooth="yes"/>
      <point x="530" y="88" type="line" smooth="yes"/>
      <point x="460" y="37" type="line" smooth="yes"/>
      <point x="339" y="14" type="line" smooth="yes"/>
      <point x="333" y="14" type="line" smooth="yes"/>
      <point x="150" y="95" type="line" smooth="yes"/>
      <point x="85" y="370" type="line" smooth="yes"/>
      <point x="85" y="410" type="line" smooth="yes"/>
      <point x="149" y="686" type="line" smooth="yes"/>
      <point x="322" y="766" type="line" smooth="yes"/>
      <point x="328" y="766" type="line" smooth="yes"/>
      <point x="483" y="703" type="line" smooth="yes"/>
      <point x="530" y="500" type="line" smooth="yes"/>
      <point x="550" y="500" type="line" smooth="yes"/>
      <point x="550" y="523" type="line" smooth="yes"/>
      <point x="499" y="715" type="line" smooth="yes"/>
      <point x="325" y="786" type="line" smooth="yes"/>
      <point x="133" y="700" type="line" smooth="yes"/>
      <point x="65" y="410" type="line" smooth="yes"/>
      <point x="65" y="370" type="line" smooth="yes"/>
      <point x="134" y="80" type="line" smooth="yes"/>
    </contour>
  </outline>
</glyph>
<glyph name="gcommaaccent" format="1">
  <advance width="510"/>
  <unicode hex="0123"/>
  <outline>
    <contour>
      <point x="237" y="650" type="line" smooth="yes"/>
      <point x="277" y="650" type="line" smooth="yes"/>
      <point x="277" y="690" type="line" smooth="yes"/>
      <point x="257" y="690" type="line" smooth="yes"/>
      <point x="271" y="754" type="line" smooth="yes"/>
      <point x="312" y="768" type="line" smooth="yes"/>
      <point x="312" y="786" type="line" smooth="yes"/>
      <point x="255" y="763" type="line" smooth="yes"/>
      <point x="237" y="682" type="line" smooth="yes"/>
    </contour>
    <contour>
      <point x="420" y="147" type="line" smooth="yes"/>
      <point x="361" y="85" type="line" smooth="yes"/>
      <point x="258" y="54" type="line" smooth="yes"/>
      <point x="121" y="113" type="line" smooth="yes"/>
      <point x="75" y="275" type="line" smooth="yes"/>
      <point x="75" y="295" type="line" smooth="yes"/>
      <point x="121" y="457" type="line" smooth="yes"/>
      <point x="258" y="516" type="line" smooth="yes"/>
      <point x="361" y="485" type="line" smooth="yes"/>
      <point x="420" y="423" type="line" smooth="yes"/>
    </contour>
    <contour>
      <point x="250" y="-206" type="line" smooth="yes"/>
      <point x="395" y="-151" type="line" smooth="yes"/>
      <point x="440" y="-11" type="line" smooth="yes"/>
      <point x="440" y="410" type="line" smooth="yes"/>
      <point x="445" y="530" type="line" smooth="yes"/>
      <point x="430" y="530" type="line" smooth="yes"/>
      <point x="423" y="451" type="line" smooth="yes"/>
      <point x="363" y="507" type="line" smooth="yes"/>
      <point x="257" y="536" type="line" smooth="yes"/>
      <point x="106" y="473" type="line" smooth="yes"/>
      <point x="55" y="295" type="line" smooth="yes"/>
      <point x="55" y="275" type="line" smooth="yes"/>
      <point x="106" y="98" type="line" smooth="yes"/>
      <point x="257" y="34" type="line" smooth="yes"/>
      <point x="360" y="61" type="line" smooth="yes"/>
      <point x="420" y="115" type="line" smooth="yes"/>
      <point x="420" y="0" type="line" smooth="yes"/>
      <point x="381" y="-136" type="line" smooth="yes"/>
      <point x="250" y="-186" type="line" smooth="yes"/>
      <point x="114" y="-136" type="line" smooth="yes"/>
      <point x="75" y="0" type="line" smooth="yes"/>
      <point x="55" y="0" type="line" smooth="yes"/>
      <point x="55" y="-11" type="line" smooth="yes"/>
      <point x="100" y="-151" type="line" smooth="yes"/>
    </contour>
  </outline>
</glyph>
<glyph name="Hcircumflex" format="1">
  <advance width="620"/>
  <unicode hex="0124"/>
  <outline>
    <contour>
      <point x="224" y="840" type="line" smooth="yes"/>
      <point x="310" y="935" type="line" smooth="yes"/>
      <point x="396" y="840" type="line" smooth="yes"/>
      <point x="420" y="840" type="line" smooth="yes"/>
      <point x="320" y="950" type="line" smooth="yes"/>
      <point x="300" y="950" type="line" smooth="yes"/>
      <point x="200" y="840" type="line" smooth="yes"/>
    </contour>
    <contour>
      <point x="520" y="780" type="line" smooth="yes"/>
      <point x="520" y="408" type="line" smooth="yes"/>
      <point x="100" y="408" type="line" smooth="yes"/>
      <point x="100" y="780" type="line" smooth="yes"/>
      <point x="80" y="780" type="line" smooth="yes"/>
      <point x="80" y="0" type="line" smooth="yes"/>
      <point x="100" y="0" type="line" smooth="yes"/>
      <point x="100" y="388" type="line" smooth="yes"/>
      <point x="520" y="388" type="line" smooth="yes"/>
      <point x="520" y="0" type="line" smooth="yes"/>
      <point x="540" y="0" type="line" smooth="yes"/>
      <point x="540" y="780" type="line" smooth="yes"/>
    </contour>
  </outline>
</glyph>
<glyph name="hcircumflex" format="1">
  <advance width="490"/>
  <unicode hex="0125"/>
  <outline>
    <contour>
      <point x="-6" y="840" type="line" smooth="yes"/>
      <point x="80" y="935" type="line" smooth="yes"/>
      <point x="166" y="840" type="line" smooth="yes"/>
      <point x="190" y="840" type="line" smooth="yes"/>
      <point x="90" y="950" type="line" smooth="yes"/>
      <point x="70" y="950" type="line" smooth="yes"/>
      <point x="-30" y="840" type="line" smooth="yes"/>
    </contour>
    <contour>
      <point x="430" y="0" type="line" smooth="yes"/>
      <point x="430" y="380" type="line" smooth="yes"/>
      <point x="389" y="498" type="line" smooth="yes"/>
      <point x="271" y="536" type="line" smooth="yes"/>
      <point x="157" y="509" type="line" smooth="yes"/>
      <point x="90" y="452" type="line" smooth="yes"/>
      <point x="90" y="800" type="line" smooth="yes"/>
      <point x="70" y="800" type="line" smooth="yes"/>
      <point x="70" y="0" type="line" smooth="yes"/>
      <point x="90" y="0" type="line" smooth="yes"/>
      <point x="90" y="423" type="line" smooth="yes"/>
      <point x="154" y="486" type="line" smooth="yes"/>
      <point x="269" y="516" type="line" smooth="yes"/>
      <point x="374" y="485" type="line" smooth="yes"/>
      <point x="410" y="375" type="line" smooth="yes"/>
      <point x="410" y="0" type="line" smooth="yes"/>
    </contour>
  </outline>
</glyph>
<glyph name="hbar" format="1">
  <advance width="490"/>
  <unicode hex="0127"/>
  <outline>
    <contour>
      <point x="-35" y="655" type="line" smooth="yes"/>
      <point x="70" y="655" type="line" smooth="yes"/>
      <point x="70" y="0" type="line" smooth="yes"/>
      <point x="90" y="0" type="line" smooth="yes"/>
      <point x="90" y="423" type="line" smooth="yes"/>
      <point x="154" y="486" type="line" smooth="yes"/>
      <point x="269" y="516" type="line" smooth="yes"/>
      <point x="374" y="485" type="line" smooth="yes"/>
      <point x="410" y="375" type="line" smooth="yes"/>
      <point x="410" y="0" type="line" smooth="yes"/>
      <point x="430" y="0" type="line" smooth="yes"/>
      <point x="430" y="380" type="line" smooth="yes"/>
      <point x="389" y="498" type="line" smooth="yes"/>
      <point x="271" y="536" type="line" smooth="yes"/>
      <point x="157" y="509" type="line" smooth="yes"/>
      <point x="90" y="452" type="line" smooth="yes"/>
      <point x="90" y="655" type="line" smooth="yes"/>
      <point x="255" y="655" type="line" smooth="yes"/>
      <point x="255" y="675" type="line" smooth="yes"/>
      <point x="90" y="675" type="line" smooth="yes"/>
      <point x="90" y="800" type="line" smooth="yes"/>
      <point x="70" y="800" type="line" smooth="yes"/>
      <point x="70" y="675" type="line" smooth="yes"/>
      <point x="-35" y="675" type="line" smooth="yes"/>
    </contour>
  </outline>
</glyph>
<glyph name="Itilde" format="1">
  <advance width="190"/>
  <unicode hex="0128"/>
  <outline>
    <contour>
      <point x="212" y="927" type="line" smooth="yes"/>
      <point x="198" y="884" type="line" smooth="yes"/>
      <point x="167" y="875" type="line" smooth="yes"/>
      <point x="96" y="904" type="line" smooth="yes"/>
      <point x="20" y="933" type="line" smooth="yes"/>
      <point x="-21" y="918" type="line" smooth="yes"/>
      <point x="-40" y="863" type="line" smooth="yes"/>
      <point x="-22" y="863" type="line" smooth="yes"/>
      <point x="-8" y="906" type="line" smooth="yes"/>
      <point x="23" y="915" type="line" smooth="yes"/>
      <point x="94" y="886" type="line" smooth="yes"/>
      <point x="170" y="857" type="line" smooth="yes"/>
      <point x="211" y="872" type="line" smooth="yes"/>
      <point x="230" y="927" type="line" smooth="yes"/>
    </contour>
    <contour>
      <point x="105" y="780" type="line" smooth="yes"/>
      <point x="85" y="780" type="line" smooth="yes"/>
      <point x="85" y="0" type="line" smooth="yes"/>
      <point x="105" y="0" type="line" smooth="yes"/>
    </contour>
  </outline>
</glyph>
<glyph name="itilde" format="1">
  <advance width="180"/>
  <unicode hex="0129"/>
  <outline>
    <contour>
      <point x="207" y="732" type="line" smooth="yes"/>
      <point x="193" y="689" type="line" smooth="yes"/>
      <point x="162" y="680" type="line" smooth="yes"/>
      <point x="91" y="709" type="line" smooth="yes"/>
      <point x="15" y="738" type="line" smooth="yes"/>
      <point x="-26" y="723" type="line" smooth="yes"/>
      <point x="-45" y="668" type="line" smooth="yes"/>
      <point x="-27" y="668" type="line" smooth="yes"/>
      <point x="-13" y="711" type="line" smooth="yes"/>
      <point x="18" y="720" type="line" smooth="yes"/>
      <point x="89" y="691" type="line" smooth="yes"/>
      <point x="165" y="662" type="line" smooth="yes"/>
      <point x="206" y="677" type="line" smooth="yes"/>
      <point x="225" y="732" type="line" smooth="yes"/>
    </contour>
    <contour>
      <point x="80" y="0" type="line" smooth="yes"/>
      <point x="100" y="0" type="line" smooth="yes"/>
      <point x="100" y="530" type="line" smooth="yes"/>
      <point x="80" y="530" type="line" smooth="yes"/>
    </contour>
  </outline>
</glyph>
<glyph name="Imacron" format="1">
  <advance width="190"/>
  <unicode hex="012A"/>
  <outline>
    <contour>
      <point x="-5" y="885" type="line" smooth="yes"/>
      <point x="195" y="885" type="line" smooth="yes"/>
      <point x="195" y="905" type="line" smooth="yes"/>
      <point x="-5" y="905" type="line" smooth="yes"/>
    </contour>
    <contour>
      <point x="105" y="780" type="line" smooth="yes"/>
      <point x="85" y="780" type="line" smooth="yes"/>
      <point x="85" y="0" type="line" smooth="yes"/>
      <point x="105" y="0" type="line" smooth="yes"/>
    </contour>
  </outline>
</glyph>
<glyph name="Ibreve" format="1">
  <advance width="190"/>
  <unicode hex="012C"/>
  <outline>
    <contour>
      <point x="95" y="852" type="line" smooth="yes"/>
      <point x="12" y="879" type="line" smooth="yes"/>
      <point x="-17" y="950" type="line" smooth="yes"/>
      <point x="-35" y="950" type="line" smooth="yes"/>
      <point x="-0" y="866" type="line" smooth="yes"/>
      <point x="95" y="834" type="line" smooth="yes"/>
      <point x="190" y="866" type="line" smooth="yes"/>
      <point x="225" y="950" type="line" smooth="yes"/>
      <point x="207" y="950" type="line" smooth="yes"/>
      <point x="178" y="879" type="line" smooth="yes"/>
    </contour>
    <contour>
      <point x="105" y="780" type="line" smooth="yes"/>
      <point x="85" y="780" type="line" smooth="yes"/>
      <point x="85" y="0" type="line" smooth="yes"/>
      <point x="105" y="0" type="line" smooth="yes"/>
    </contour>
  </outline>
</glyph>
<glyph name="ibreve" format="1">
  <advance width="180"/>
  <unicode hex="012D"/>
  <outline>
    <contour>
      <point x="90" y="614" type="line" smooth="yes"/>
      <point x="203" y="663" type="line" smooth="yes"/>
      <point x="240" y="780" type="line" smooth="yes"/>
      <point x="222" y="780" type="line" smooth="yes"/>
      <point x="190" y="676" type="line" smooth="yes"/>
      <point x="90" y="632" type="line" smooth="yes"/>
      <point x="-10" y="676" type="line" smooth="yes"/>
      <point x="-42" y="780" type="line" smooth="yes"/>
      <point x="-60" y="780" type="line" smooth="yes"/>
      <point x="-23" y="663" type="line" smooth="yes"/>
    </contour>
    <contour>
      <point x="80" y="0" type="line" smooth="yes"/>
      <point x="100" y="0" type="line" smooth="yes"/>
      <point x="100" y="530" type="line" smooth="yes"/>
      <point x="80" y="530" type="line" smooth="yes"/>
    </contour>
  </outline>
</glyph>
<glyph name="Iogonek" format="1">
  <advance width="190"/>
  <unicode hex="012E"/>
  <outline>
    <contour>
      <point x="144" y="-172" type="line" smooth="yes"/>
      <point x="115" y="-183" type="line" smooth="yes"/>
      <point x="71" y="-188" type="line" smooth="yes"/>
      <point x="20" y="-172" type="line" smooth="yes"/>
      <point x="-2" y="-115" type="line" smooth="yes"/>
      <point x="34" y="-37" type="line" smooth="yes"/>
      <point x="105" y="0" type="line" smooth="yes"/>
      <point x="105" y="780" type="line" smooth="yes"/>
      <point x="85" y="780" type="line" smooth="yes"/>
      <point x="85" y="11" type="line" smooth="yes"/>
      <point x="12" y="-32" type="line" smooth="yes"/>
      <point x="-20" y="-115" type="line" smooth="yes"/>
      <point x="8" y="-185" type="line" smooth="yes"/>
      <point x="71" y="-206" type="line" smooth="yes"/>
      <point x="118" y="-200" type="line" smooth="yes"/>
      <point x="150" y="-188" type="line" smooth="yes"/>
    </contour>
  </outline>
</glyph>
<glyph name="iogonek" format="1">
  <advance width="180"/>
  <unicode hex="012F"/>
  <outline>
    <contour>
      <point x="110" y="720" type="line" smooth="yes"/>
      <point x="70" y="720" type="line" smooth="yes"/>
      <point x="70" y="680" type="line" smooth="yes"/>
      <point x="110" y="680" type="line" smooth="yes"/>
    </contour>
    <contour>
      <point x="139" y="-172" type="line" smooth="yes"/>
      <point x="110" y="-183" type="line" smooth="yes"/>
      <point x="66" y="-188" type="line" smooth="yes"/>
      <point x="15" y="-172" type="line" smooth="yes"/>
      <point x="-7" y="-115" type="line" smooth="yes"/>
      <point x="29" y="-37" type="line" smooth="yes"/>
      <point x="100" y="0" type="line" smooth="yes"/>
      <point x="100" y="530" type="line" smooth="yes"/>
      <point x="80" y="530" type="line" smooth="yes"/>
      <point x="80" y="11" type="line" smooth="yes"/>
      <point x="7" y="-32" type="line" smooth="yes"/>
      <point x="-25" y="-115" type="line" smooth="yes"/>
      <point x="3" y="-185" type="line" smooth="yes"/>
      <point x="66" y="-206" type="line" smooth="yes"/>
      <point x="113" y="-200" type="line" smooth="yes"/>
      <point x="145" y="-188" type="line" smooth="yes"/>
    </contour>
  </outline>
</glyph>
<glyph name="ij" format="1">
  <advance width="320"/>
  <unicode hex="0133"/>
  <outline>
    <contour>
      <point x="250" y="720" type="line" smooth="yes"/>
      <point x="210" y="720" type="line" smooth="yes"/>
      <point x="210" y="680" type="line" smooth="yes"/>
      <point x="250" y="680" type="line" smooth="yes"/>
    </contour>
    <contour>
      <point x="110" y="720" type="line" smooth="yes"/>
      <point x="70" y="720" type="line" smooth="yes"/>
      <point x="70" y="680" type="line" smooth="yes"/>
      <point x="110" y="680" type="line" smooth="yes"/>
    </contour>
    <contour>
      <point x="80" y="0" type="line" smooth="yes"/>
      <point x="100" y="0" type="line" smooth="yes"/>
      <point x="100" y="530" type="line" smooth="yes"/>
      <point x="80" y="530" type="line" smooth="yes"/>
    </contour>
    <contour>
      <point x="220" y="-65" type="line" smooth="yes"/>
      <point x="188" y="-163" type="line" smooth="yes"/>
      <point x="105" y="-186" type="line" smooth="yes"/>
      <point x="69" y="-183" type="line" smooth="yes"/>
      <point x="45" y="-176" type="line" smooth="yes"/>
      <point x="45" y="-196" type="line" smooth="yes"/>
      <point x="65" y="-202" type="line" smooth="yes"/>
      <point x="109" y="-206" type="line" smooth="yes"/>
      <point x="201" y="-179" type="line" smooth="yes"/>
      <point x="240" y="-71" type="line" smooth="yes"/>
      <point x="240" y="530" type="line" smooth="yes"/>
      <point x="220" y="530" type="line" smooth="yes"/>
    </contour>
  </outline>
</glyph>
<glyph name="Jcircumflex" format="1">
  <advance width="470"/>
  <unicode hex="0134"/>
  <outline>
    <contour>
      <point x="297" y="840" type="line" smooth="yes"/>
      <point x="383" y="935" type="line" smooth="yes"/>
      <point x="469" y="840" type="line" smooth="yes"/>
      <point x="493" y="840" type="line" smooth="yes"/>
      <point x="393" y="950" type="line" smooth="yes"/>
      <point x="373" y="950" type="line" smooth="yes"/>
      <point x="273" y="840" type="line" smooth="yes"/>
    </contour>
    <contour>
      <point x="373" y="780" type="line" smooth="yes"/>
      <point x="373" y="247" type="line" smooth="yes"/>
      <point x="339" y="75" type="line" smooth="yes"/>
      <point x="213" y="14" type="line" smooth="yes"/>
      <point x="88" y="75" type="line" smooth="yes"/>
      <point x="53" y="247" type="line" smooth="yes"/>
      <point x="33" y="247" type="line" smooth="yes"/>
      <point x="33" y="240" type="line" smooth="yes"/>
      <point x="74" y="61" type="line" smooth="yes"/>
      <point x="213" y="-6" type="line" smooth="yes"/>
      <point x="353" y="61" type="line" smooth="yes"/>
      <point x="393" y="240" type="line" smooth="yes"/>
      <point x="393" y="780" type="line" smooth="yes"/>
    </contour>
  </outline>
</glyph>
<glyph name="jcircumflex" format="1">
  <advance width="180"/>
  <unicode hex="0135"/>
  <outline>
    <contour>
      <point x="-20" y="620" type="line" smooth="yes"/>
      <point x="90" y="762" type="line" smooth="yes"/>
      <point x="200" y="620" type="line" smooth="yes"/>
      <point x="225" y="620" type="line" smooth="yes"/>
      <point x="100" y="780" type="line" smooth="yes"/>
      <point x="80" y="780" type="line" smooth="yes"/>
      <point x="-45" y="620" type="line" smooth="yes"/>
    </contour>
    <contour>
      <point x="80" y="-65" type="line" smooth="yes"/>
      <point x="48" y="-163" type="line" smooth="yes"/>
      <point x="-35" y="-186" type="line" smooth="yes"/>
      <point x="-71" y="-183" type="line" smooth="yes"/>
      <point x="-95" y="-176" type="line" smooth="yes"/>
      <point x="-95" y="-196" type="line" smooth="yes"/>
      <point x="-75" y="-202" type="line" smooth="yes"/>
      <point x="-31" y="-206" type="line" smooth="yes"/>
      <point x="61" y="-179" type="line" smooth="yes"/>
      <point x="100" y="-71" type="line" smooth="yes"/>
      <point x="100" y="530" type="line" smooth="yes"/>
      <point x="80" y="530" type="line" smooth="yes"/>
    </contour>
  </outline>
</glyph>
<glyph name="Kcommaaccent" format="1">
  <advance width="518"/>
  <unicode hex="0136"/>
  <outline>
    <contour>
      <point x="280" y="-70" type="line" smooth="yes"/>
      <point x="240" y="-70" type="line" smooth="yes"/>
      <point x="240" y="-110" type="line" smooth="yes"/>
      <point x="260" y="-110" type="line" smooth="yes"/>
      <point x="246" y="-174" type="line" smooth="yes"/>
      <point x="205" y="-188" type="line" smooth="yes"/>
      <point x="205" y="-206" type="line" smooth="yes"/>
      <point x="262" y="-183" type="line" smooth="yes"/>
      <point x="280" y="-102" type="line" smooth="yes"/>
    </contour>
    <contour>
      <point x="100" y="780" type="line" smooth="yes"/>
      <point x="80" y="780" type="line" smooth="yes"/>
      <point x="80" y="0" type="line" smooth="yes"/>
      <point x="100" y="0" type="line" smooth="yes"/>
      <point x="100" y="246" type="line" smooth="yes"/>
      <point x="227" y="424" type="line" smooth="yes"/>
      <point x="456" y="0" type="line" smooth="yes"/>
      <point x="480" y="0" type="line" smooth="yes"/>
      <point x="239" y="441" type="line" smooth="yes"/>
      <point x="480" y="780" type="line" smooth="yes"/>
      <point x="456" y="780" type="line" smooth="yes"/>
      <point x="100" y="279" type="line" smooth="yes"/>
    </contour>
  </outline>
</glyph>
<glyph name="kcommaaccent" format="1">
  <advance width="458"/>
  <unicode hex="0137"/>
  <outline>
    <contour>
      <point x="260" y="-70" type="line" smooth="yes"/>
      <point x="220" y="-70" type="line" smooth="yes"/>
      <point x="220" y="-110" type="line" smooth="yes"/>
      <point x="240" y="-110" type="line" smooth="yes"/>
      <point x="226" y="-174" type="line" smooth="yes"/>
      <point x="185" y="-188" type="line" smooth="yes"/>
      <point x="185" y="-206" type="line" smooth="yes"/>
      <point x="242" y="-183" type="line" smooth="yes"/>
      <point x="260" y="-102" type="line" smooth="yes"/>
    </contour>
    <contour>
      <point x="95" y="800" type="line" smooth="yes"/>
      <point x="75" y="800" type="line" smooth="yes"/>
      <point x="75" y="0" type="line" smooth="yes"/>
      <point x="95" y="0" type="line" smooth="yes"/>
      <point x="95" y="172" type="line" smooth="yes"/>
      <point x="226" y="314" type="line" smooth="yes"/>
      <point x="402" y="0" type="line" smooth="yes"/>
      <point x="425" y="0" type="line" smooth="yes"/>
      <point x="239" y="329" type="line" smooth="yes"/>
      <point x="425" y="530" type="line" smooth="yes"/>
      <point x="398" y="530" type="line" smooth="yes"/>
      <point x="95" y="200" type="line" smooth="yes"/>
    </contour>
  </outline>
</glyph>
<glyph name="Lacute" format="1">
  <advance width="464"/>
  <unicode hex="0139"/>
  <outline>
    <contour>
      <point x="141" y="950" type="line" smooth="yes"/>
      <point x="79" y="840" type="line" smooth="yes"/>
      <point x="101" y="840" type="line" smooth="yes"/>
      <point x="163" y="950" type="line" smooth="yes"/>
    </contour>
    <contour>
      <point x="450" y="0" type="line" smooth="yes"/>
      <point x="450" y="20" type="line" smooth="yes"/>
      <point x="100" y="20" type="line" smooth="yes"/>
      <point x="100" y="780" type="line" smooth="yes"/>
      <point x="80" y="780" type="line" smooth="yes"/>
      <point x="80" y="0" type="line" smooth="yes"/>
    </contour>
  </outline>
</glyph>
<glyph name="lcaron" format="1">
  <advance width="180"/>
  <unicode hex="013E"/>
  <outline>
    <contour>
      <point x="190" y="800" type="line" smooth="yes"/>
      <point x="190" y="620" type="line" smooth="yes"/>
      <point x="200" y="620" type="line" smooth="yes"/>
      <point x="211" y="800" type="line" smooth="yes"/>
    </contour>
    <contour>
      <point x="80" y="0" type="line" smooth="yes"/>
      <point x="100" y="0" type="line" smooth="yes"/>
      <point x="100" y="800" type="line" smooth="yes"/>
      <point x="80" y="800" type="line" smooth="yes"/>
    </contour>
  </outline>
</glyph>
<glyph name="Ldot" format="1">
  <advance width="464"/>
  <unicode hex="013F"/>
  <outline>
    <contour>
      <point x="302" y="378" type="line" smooth="yes"/>
      <point x="342" y="378" type="line" smooth="yes"/>
      <point x="342" y="418" type="line" smooth="yes"/>
      <point x="302" y="418" type="line" smooth="yes"/>
    </contour>
    <contour>
      <point x="450" y="0" type="line" smooth="yes"/>
      <point x="450" y="20" type="line" smooth="yes"/>
      <point x="100" y="20" type="line" smooth="yes"/>
      <point x="100" y="780" type="line" smooth="yes"/>
      <point x="80" y="780" type="line" smooth="yes"/>
      <point x="80" y="0" type="line" smooth="yes"/>
    </contour>
  </outline>
</glyph>
<glyph name="ldot" format="1">
  <advance width="280"/>
  <unicode hex="0140"/>
  <outline>
    <contour>
      <point x="250" y="360" type="line" smooth="yes"/>
      <point x="210" y="360" type="line" smooth="yes"/>
      <point x="210" y="320" type="line" smooth="yes"/>
      <point x="250" y="320" type="line" smooth="yes"/>
    </contour>
    <contour>
      <point x="80" y="0" type="line" smooth="yes"/>
      <point x="100" y="0" type="line" smooth="yes"/>
      <point x="100" y="800" type="line" smooth="yes"/>
      <point x="80" y="800" type="line" smooth="yes"/>
    </contour>
  </outline>
</glyph>
<glyph name="lslash" format="1">
  <advance width="260"/>
  <unicode hex="0142"/>
  <outline>
    <contour>
      <point x="240" y="530" type="line" smooth="yes"/>
      <point x="140" y="456" type="line" smooth="yes"/>
      <point x="140" y="800" type="line" smooth="yes"/>
      <point x="120" y="800" type="line" smooth="yes"/>
      <point x="120" y="442" type="line" smooth="yes"/>
      <point x="30" y="376" type="line" smooth="yes"/>
      <point x="30" y="351" type="line" smooth="yes"/>
      <point x="120" y="417" type="line" smooth="yes"/>
      <point x="120" y="0" type="line" smooth="yes"/>
      <point x="140" y="0" type="line" smooth="yes"/>
      <point x="140" y="431" type="line" smooth="yes"/>
      <point x="240" y="505" type="line" smooth="yes"/>
    </contour>
  </outline>
</glyph>
<glyph name="nacute" format="1">
  <advance width="490"/>
  <unicode hex="0144"/>
  <outline>
    <contour>
      <point x="329" y="780" type="line" smooth="yes"/>
      <point x="239" y="620" type="line" smooth="yes"/>
      <point x="261" y="620" type="line" smooth="yes"/>
      <point x="351" y="780" type="line" smooth="yes"/>
    </contour>
    <contour>
      <point x="430" y="0" type="line" smooth="yes"/>
      <point x="430" y="380" type="line" smooth="yes"/>
      <point x="389" y="498" type="line" smooth="yes"/>
      <point x="271" y="536" type="line" smooth="yes"/>
      <point x="154" y="508" type="line" smooth="yes"/>
      <point x="87" y="448" type="line" smooth="yes"/>
      <point x="80" y="530" type="line" smooth="yes"/>
      <point x="65" y="530" type="line" smooth="yes"/>
      <point x="70" y="410" type="line" smooth="yes"/>
      <point x="70" y="0" type="line" smooth="yes"/>
      <point x="90" y="0" type="line" smooth="yes"/>
      <point x="90" y="423" type="line" smooth="yes"/>
      <point x="154" y="486" type="line" smooth="yes"/>
      <point x="269" y="516" type="line" smooth="yes"/>
      <point x="374" y="485" type="line" smooth="yes"/>
      <point x="410" y="375" type="line" smooth="yes"/>
      <point x="410" y="0" type="line" smooth="yes"/>
    </contour>
  </outline>
</glyph>
<glyph name="eng" format="1">
  <advance width="490"/>
  <unicode hex="014B"/>
  <outline>
    <contour>
      <point x="410" y="-65" type="line" smooth="yes"/>
      <point x="378" y="-163" type="line" smooth="yes"/>
      <point x="295" y="-186" type="line" smooth="yes"/>
      <point x="259" y="-183" type="line" smooth="yes"/>
      <point x="235" y="-176" type="line" smooth="yes"/>
      <point x="235" y="-196" type="line" smooth="yes"/>
      <point x="255" y="-202" type="line" smooth="yes"/>
      <point x="299" y="-206" type="line" smooth="yes"/>
      <point x="391" y="-179" type="line" smooth="yes"/>
      <point x="430" y="-71" type="line" smooth="yes"/>
      <point x="430" y="380" type="line" smooth="yes"/>
      <point x="389" y="498" type="line" smooth="yes"/>
      <point x="271" y="536" type="line" smooth="yes"/>
      <point x="154" y="508" type="line" smooth="yes"/>
      <point x="87" y="448" type="line" smooth="yes"/>
      <point x="80" y="530" type="line" smooth="yes"/>
      <point x="65" y="530" type="line" smooth="yes"/>
      <point x="70" y="410" type="line" smooth="yes"/>
      <point x="70" y="0" type="line" smooth="yes"/>
      <point x="90" y="0" type="line" smooth="yes"/>
      <point x="90" y="423" type="line" smooth="yes"/>
      <point x="154" y="486" type="line" smooth="yes"/>
      <point x="269" y="516" type="line" smooth="yes"/>
      <point x="374" y="485" type="line" smooth="yes"/>
      <point x="410" y="375" type="line" smooth="yes"/>
    </contour>
  </outline>
</glyph>
<glyph name="Omacron" format="1">
  <advance width="630"/>
  <unicode hex="014C"/>
  <outline>
    <contour>
      <point x="215" y="885" type="line" smooth="yes"/>
      <point x="415" y="885" type="line" smooth="yes"/>
      <point x="415" y="905" type="line" smooth="yes"/>
      <point x="215" y="905" type="line" smooth="yes"/>
    </contour>
    <contour>
      <point x="85" y="370" type="line" smooth="yes"/>
      <point x="85" y="410" type="line" smooth="yes"/>
      <point x="143" y="685" type="line" smooth="yes"/>
      <point x="312" y="766" type="line" smooth="yes"/>
      <point x="318" y="766" type="line" smooth="yes"/>
      <point x="487" y="685" type="line" smooth="yes"/>
      <point x="545" y="410" type="line" smooth="yes"/>
      <point x="545" y="370" type="line" smooth="yes"/>
      <point x="487" y="95" type="line" smooth="yes"/>
      <point x="318" y="14" type="line" smooth="yes"/>
      <point x="312" y="14" type="line" smooth="yes"/>
      <point x="143" y="95" type="line" smooth="yes"/>
    </contour>
    <contour>
      <point x="65" y="410" type="line" smooth="yes"/>
      <point x="65" y="370" type="line" smooth="yes"/>
      <point x="128" y="81" type="line" smooth="yes"/>
      <point x="315" y="-6" type="line" smooth="yes"/>
      <point x="502" y="81" type="line" smooth="yes"/>
      <point x="565" y="370" type="line" smooth="yes"/>
      <point x="565" y="410" type="line" smooth="yes"/>
      <point x="502" y="699" type="line" smooth="yes"/>
      <point x="315" y="786" type="line" smooth="yes"/>
      <point x="128" y="699" type="line" smooth="yes"/>
    </contour>
  </outline>
</glyph>
<glyph name="Obreve" format="1">
  <advance width="630"/>
  <unicode hex="014E"/>
  <outline>
    <contour>
      <point x="315" y="852" type="line" smooth="yes"/>
      <point x="232" y="879" type="line" smooth="yes"/>
      <point x="203" y="950" type="line" smooth="yes"/>
      <point x="185" y="950" type="line" smooth="yes"/>
      <point x="220" y="866" type="line" smooth="yes"/>
      <point x="315" y="834" type="line" smooth="yes"/>
      <point x="410" y="866" type="line" smooth="yes"/>
      <point x="445" y="950" type="line" smooth="yes"/>
      <point x="427" y="950" type="line" smooth="yes"/>
      <point x="398" y="879" type="line" smooth="yes"/>
    </contour>
    <contour>
      <point x="85" y="370" type="line" smooth="yes"/>
      <point x="85" y="410" type="line" smooth="yes"/>
      <point x="143" y="685" type="line" smooth="yes"/>
      <point x="312" y="766" type="line" smooth="yes"/>
      <point x="318" y="766" type="line" smooth="yes"/>
      <point x="487" y="685" type="line" smooth="yes"/>
      <point x="545" y="410" type="line" smooth="yes"/>
      <point x="545" y="370" type="line" smooth="yes"/>
      <point x="487" y="95" type="line" smooth="yes"/>
      <point x="318" y="14" type="line" smooth="yes"/>
      <point x="312" y="14" type="line" smooth="yes"/>
      <point x="143" y="95" type="line" smooth="yes"/>
    </contour>
    <contour>
      <point x="65" y="410" type="line" smooth="yes"/>
      <point x="65" y="370" type="line" smooth="yes"/>
      <point x="128" y="81" type="line" smooth="yes"/>
      <point x="315" y="-6" type="line" smooth="yes"/>
      <point x="502" y="81" type="line" smooth="yes"/>
      <point x="565" y="370" type="line" smooth="yes"/>
      <point x="565" y="410" type="line" smooth="yes"/>
      <point x="502" y="699" type="line" smooth="yes"/>
      <point x="315" y="786" type="line" smooth="yes"/>
      <point x="128" y="699" type="line" smooth="yes"/>
    </contour>
  </outline>
</glyph>
<glyph name="obreve" format="1">
  <advance width="526"/>
  <unicode hex="014F"/>
  <outline>
    <contour>
      <point x="263" y="614" type="line" smooth="yes"/>
      <point x="376" y="663" type="line" smooth="yes"/>
      <point x="413" y="780" type="line" smooth="yes"/>
      <point x="395" y="780" type="line" smooth="yes"/>
      <point x="363" y="676" type="line" smooth="yes"/>
      <point x="263" y="632" type="line" smooth="yes"/>
      <point x="163" y="676" type="line" smooth="yes"/>
      <point x="131" y="780" type="line" smooth="yes"/>
      <point x="113" y="780" type="line" smooth="yes"/>
      <point x="151" y="663" type="line" smooth="yes"/>
    </contour>
    <contour>
      <point x="263" y="14" type="line" smooth="yes"/>
      <point x="123" y="79" type="line" smooth="yes"/>
      <point x="75" y="255" type="line" smooth="yes"/>
      <point x="75" y="275" type="line" smooth="yes"/>
      <point x="123" y="451" type="line" smooth="yes"/>
      <point x="263" y="516" type="line" smooth="yes"/>
      <point x="403" y="451" type="line" smooth="yes"/>
      <point x="451" y="275" type="line" smooth="yes"/>
      <point x="451" y="255" type="line" smooth="yes"/>
      <point x="403" y="79" type="line" smooth="yes"/>
    </contour>
    <contour>
      <point x="263" y="-6" type="line" smooth="yes"/>
      <point x="417" y="64" type="line" smooth="yes"/>
      <point x="471" y="255" type="line" smooth="yes"/>
      <point x="471" y="275" type="line" smooth="yes"/>
      <point x="417" y="466" type="line" smooth="yes"/>
      <point x="263" y="536" type="line" smooth="yes"/>
      <point x="109" y="466" type="line" smooth="yes"/>
      <point x="55" y="275" type="line" smooth="yes"/>
      <point x="55" y="255" type="line" smooth="yes"/>
      <point x="109" y="64" type="line" smooth="yes"/>
    </contour>
  </outline>
</glyph>
<glyph name="ohungarumlaut" format="1">
  <advance width="526"/>
  <unicode hex="0151"/>
  <outline>
    <contour>
      <point x="292" y="780" type="line" smooth="yes"/>
      <point x="202" y="620" type="line" smooth="yes"/>
      <point x="224" y="620" type="line" smooth="yes"/>
      <point x="314" y="780" type="line" smooth="yes"/>
    </contour>
    <contour>
      <point x="392" y="780" type="line" smooth="yes"/>
      <point x="302" y="620" type="line" smooth="yes"/>
      <point x="324" y="620" type="line" smooth="yes"/>
      <point x="414" y="780" type="line" smooth="yes"/>
    </contour>
    <contour>
      <point x="263" y="14" type="line" smooth="yes"/>
      <point x="123" y="79" type="line" smooth="yes"/>
      <point x="75" y="255" type="line" smooth="yes"/>
      <point x="75" y="275" type="line" smooth="yes"/>
      <point x="123" y="451" type="line" smooth="yes"/>
      <point x="263" y="516" type="line" smooth="yes"/>
      <point x="403" y="451" type="line" smooth="yes"/>
      <point x="451" y="275" type="line" smooth="yes"/>
      <point x="451" y="255" type="line" smooth="yes"/>
      <point x="403" y="79" type="line" smooth="yes"/>
    </contour>
    <contour>
      <point x="263" y="-6" type="line" smooth="yes"/>
      <point x="417" y="64" type="line" smooth="yes"/>
      <point x="471" y="255" type="line" smooth="yes"/>
      <point x="471" y="275" type="line" smooth="yes"/>
      <point x="417" y="466" type="line" smooth="yes"/>
      <point x="263" y="536" type="line" smooth="yes"/>
      <point x="109" y="466" type="line" smooth="yes"/>
      <point x="55" y="275" type="line" smooth="yes"/>
      <point x="55" y="255" type="line" smooth="yes"/>
      <point x="109" y="64" type="line" smooth="yes"/>
    </contour>
  </outline>
</glyph>
<glyph name="OE" format="1">
  <advance width="940"/>
  <unicode hex="0152"/>
  <outline>
    <contour>
      <point x="480" y="760" type="line" smooth="yes"/>
      <point x="480" y="20" type="line" smooth="yes"/>
      <point x="350" y="20" type="line" smooth="yes"/>
      <point x="155" y="98" type="line" smooth="yes"/>
      <point x="80" y="370" type="line" smooth="yes"/>
      <point x="80" y="410" type="line" smooth="yes"/>
      <point x="155" y="683" type="line" smooth="yes"/>
      <point x="350" y="760" type="line" smooth="yes"/>
    </contour>
    <contour>
      <point x="60" y="370" type="line" smooth="yes"/>
      <point x="141" y="82" type="line" smooth="yes"/>
      <point x="345" y="0" type="line" smooth="yes"/>
      <point x="890" y="0" type="line" smooth="yes"/>
      <point x="890" y="20" type="line" smooth="yes"/>
      <point x="500" y="20" type="line" smooth="yes"/>
      <point x="500" y="388" type="line" smooth="yes"/>
      <point x="840" y="388" type="line" smooth="yes"/>
      <point x="840" y="408" type="line" smooth="yes"/>
      <point x="500" y="408" type="line" smooth="yes"/>
      <point x="500" y="760" type="line" smooth="yes"/>
      <point x="890" y="760" type="line" smooth="yes"/>
      <point x="890" y="780" type="line" smooth="yes"/>
      <point x="345" y="780" type="line" smooth="yes"/>
      <point x="141" y="698" type="line" smooth="yes"/>
      <point x="60" y="410" type="line" smooth="yes"/>
    </contour>
  </outline>
</glyph>
<glyph name="oe" format="1">
  <advance width="926"/>
  <unicode hex="0153"/>
  <outline>
    <contour>
      <point x="661" y="516" type="line" smooth="yes"/>
      <point x="804" y="448" type="line" smooth="yes"/>
      <point x="851" y="275" type="line" smooth="yes"/>
      <point x="471" y="275" type="line" smooth="yes"/>
      <point x="518" y="448" type="line" smooth="yes"/>
    </contour>
    <contour>
      <point x="263" y="14" type="line" smooth="yes"/>
      <point x="123" y="79" type="line" smooth="yes"/>
      <point x="75" y="255" type="line" smooth="yes"/>
      <point x="75" y="275" type="line" smooth="yes"/>
      <point x="123" y="451" type="line" smooth="yes"/>
      <point x="263" y="516" type="line" smooth="yes"/>
      <point x="403" y="451" type="line" smooth="yes"/>
      <point x="451" y="275" type="line" smooth="yes"/>
      <point x="451" y="255" type="line" smooth="yes"/>
      <point x="403" y="79" type="line" smooth="yes"/>
    </contour>
    <contour>
      <point x="871" y="255" type="line" smooth="yes"/>
      <point x="871" y="275" type="line" smooth="yes"/>
      <point x="822" y="460" type="line" smooth="yes"/>
      <point x="661" y="536" type="line" smooth="yes"/>
      <point x="525" y="487" type="line" smooth="yes"/>
      <point x="461" y="361" type="line" smooth="yes"/>
      <point x="394" y="490" type="line" smooth="yes"/>
      <point x="263" y="536" type="line" smooth="yes"/>
      <point x="109" y="466" type="line" smooth="yes"/>
      <point x="55" y="275" type="line" smooth="yes"/>
      <point x="55" y="255" type="line" smooth="yes"/>
      <point x="109" y="64" type="line" smooth="yes"/>
      <point x="263" y="-6" type="line" smooth="yes"/>
      <point x="394" y="40" type="line" smooth="yes"/>
      <point x="461" y="169" type="line" smooth="yes"/>
      <point x="526" y="43" type="line" smooth="yes"/>
      <point x="666" y="-6" type="line" smooth="yes"/>
      <point x="824" y="51" type="line" smooth="yes"/>
      <point x="871" y="165" type="line" smooth="yes"/>
      <point x="871" y="170" type="line" smooth="yes"/>
      <point x="851" y="170" type="line" smooth="yes"/>
      <point x="810" y="65" type="line" smooth="yes"/>
      <point x="666" y="14" type="line" smooth="yes"/>
      <point x="518" y="82" type="line" smooth="yes"/>
      <point x="471" y="255" type="line" smooth="yes"/>
    </contour>
  </outline>
</glyph>
<glyph name="Rcommaaccent" format="1">
  <advance width="553"/>
  <unicode hex="0156"/>
  <outline>
    <contour>
      <point x="290" y="-70" type="line" smooth="yes"/>
      <point x="250" y="-70" type="line" smooth="yes"/>
      <point x="250" y="-110" type="line" smooth="yes"/>
      <point x="270" y="-110" type="line" smooth="yes"/>
      <point x="256" y="-174" type="line" smooth="yes"/>
      <point x="215" y="-188" type="line" smooth="yes"/>
      <point x="215" y="-206" type="line" smooth="yes"/>
      <point x="272" y="-183" type="line" smooth="yes"/>
      <point x="290" y="-102" type="line" smooth="yes"/>
    </contour>
    <contour>
      <point x="100" y="360" type="line" smooth="yes"/>
      <point x="100" y="760" type="line" smooth="yes"/>
      <point x="272" y="760" type="line" smooth="yes"/>
      <point x="403" y="726" type="line" smooth="yes"/>
      <point x="473" y="569" type="line" smooth="yes"/>
      <point x="473" y="551" type="line" smooth="yes"/>
      <point x="403" y="394" type="line" smooth="yes"/>
      <point x="272" y="360" type="line" smooth="yes"/>
    </contour>
    <contour>
      <point x="100" y="340" type="line" smooth="yes"/>
      <point x="273" y="340" type="line" smooth="yes"/>
      <point x="302" y="341" type="line" smooth="yes"/>
      <point x="331" y="345" type="line" smooth="yes"/>
      <point x="472" y="0" type="line" smooth="yes"/>
      <point x="494" y="0" type="line" smooth="yes"/>
      <point x="351" y="349" type="line" smooth="yes"/>
      <point x="451" y="409" type="line" smooth="yes"/>
      <point x="494" y="550" type="line" smooth="yes"/>
      <point x="494" y="570" type="line" smooth="yes"/>
      <point x="423" y="738" type="line" smooth="yes"/>
      <point x="273" y="780" type="line" smooth="yes"/>
      <point x="80" y="780" type="line" smooth="yes"/>
      <point x="80" y="0" type="line" smooth="yes"/>
      <point x="100" y="0" type="line" smooth="yes"/>
    </contour>
  </outline>
</glyph>
<glyph name="rcommaaccent" format="1">
  <advance width="297"/>
  <unicode hex="0157"/>
  <outline>
    <contour>
      <point x="100" y="-70" type="line" smooth="yes"/>
      <point x="60" y="-70" type="line" smooth="yes"/>
      <point x="60" y="-110" type="line" smooth="yes"/>
      <point x="80" y="-110" type="line" smooth="yes"/>
      <point x="66" y="-174" type="line" smooth="yes"/>
      <point x="25" y="-188" type="line" smooth="yes"/>
      <point x="25" y="-206" type="line" smooth="yes"/>
      <point x="82" y="-183" type="line" smooth="yes"/>
      <point x="100" y="-102" type="line" smooth="yes"/>
    </contour>
    <contour>
      <point x="240" y="536" type="line" smooth="yes"/>
      <point x="143" y="508" type="line" smooth="yes"/>
      <point x="87" y="449" type="line" smooth="yes"/>
      <point x="80" y="530" type="line" smooth="yes"/>
      <point x="65" y="530" type="line" smooth="yes"/>
      <point x="70" y="410" type="line" smooth="yes"/>
      <point x="70" y="0" type="line" smooth="yes"/>
      <point x="90" y="0" type="line" smooth="yes"/>
      <point x="90" y="421" type="line" smooth="yes"/>
      <point x="143" y="485" type="line" smooth="yes"/>
      <point x="246" y="516" type="line" smooth="yes"/>
      <point x="255" y="516" type="line" smooth="yes"/>
      <point x="255" y="535" type="line" smooth="yes"/>
      <point x="251" y="536" type="line" smooth="yes"/>
    </contour>
  </outline>
</glyph>
<glyph name="Rcaron" format="1">
  <advance width="553"/>
  <unicode hex="0158"/>
  <outline>
    <contour>
      <point x="356" y="950" type="line" smooth="yes"/>
      <point x="270" y="855" type="line" smooth="yes"/>
      <point x="184" y="950" type="line" smooth="yes"/>
      <point x="160" y="950" type="line" smooth="yes"/>
      <point x="260" y="840" type="line" smooth="yes"/>
      <point x="280" y="840" type="line" smooth="yes"/>
      <point x="380" y="950" type="line" smooth="yes"/>
    </contour>
    <contour>
      <point x="100" y="360" type="line" smooth="yes"/>
      <point x="100" y="760" type="line" smooth="yes"/>
      <point x="272" y="760" type="line" smooth="yes"/>
      <point x="403" y="726" type="line" smooth="yes"/>
      <point x="473" y="569" type="line" smooth="yes"/>
      <point x="473" y="551" type="line" smooth="yes"/>
      <point x="403" y="394" type="line" smooth="yes"/>
      <point x="272" y="360" type="line" smooth="yes"/>
    </contour>
    <contour>
      <point x="100" y="340" type="line" smooth="yes"/>
      <point x="273" y="340" type="line" smooth="yes"/>
      <point x="302" y="341" type="line" smooth="yes"/>
      <point x="331" y="345" type="line" smooth="yes"/>
      <point x="472" y="0" type="line" smooth="yes"/>
      <point x="494" y="0" type="line" smooth="yes"/>
      <point x="351" y="349" type="line" smooth="yes"/>
      <point x="451" y="409" type="line" smooth="yes"/>
      <point x="494" y="550" type="line" smooth="yes"/>
      <point x="494" y="570" type="line" smooth="yes"/>
      <point x="423" y="738" type="line" smooth="yes"/>
      <point x="273" y="780" type="line" smooth="yes"/>
      <point x="80" y="780" type="line" smooth="yes"/>
      <point x="80" y="0" type="line" smooth="yes"/>
      <point x="100" y="0" type="line" smooth="yes"/>
    </contour>
  </outline>
</glyph>
<glyph name="scircumflex" format="1">
  <advance width="480"/>
  <unicode hex="015D"/>
  <outline>
    <contour>
      <point x="130" y="620" type="line" smooth="yes"/>
      <point x="240" y="762" type="line" smooth="yes"/>
      <point x="350" y="620" type="line" smooth="yes"/>
      <point x="375" y="620" type="line" smooth="yes"/>
      <point x="250" y="780" type="line" smooth="yes"/>
      <point x="230" y="780" type="line" smooth="yes"/>
      <point x="105" y="620" type="line" smooth="yes"/>
    </contour>
    <contour>
      <point x="240" y="14" type="line" smooth="yes"/>
      <point x="104" y="59" type="line" smooth="yes"/>
      <point x="70" y="160" type="line" smooth="yes"/>
      <point x="50" y="160" type="line" smooth="yes"/>
      <point x="50" y="156" type="line" smooth="yes"/>
      <point x="89" y="46" type="line" smooth="yes"/>
      <point x="240" y="-6" type="line" smooth="yes"/>
      <point x="380" y="34" type="line" smooth="yes"/>
      <point x="430" y="137" type="line" smooth="yes"/>
      <point x="430" y="143" type="line" smooth="yes"/>
      <point x="390" y="239" type="line" smooth="yes"/>
      <point x="250" y="278" type="line" smooth="yes"/>
      <point x="109" y="315" type="line" smooth="yes"/>
      <point x="75" y="395" type="line" smooth="yes"/>
      <point x="120" y="484" type="line" smooth="yes"/>
      <point x="240" y="516" type="line" smooth="yes"/>
      <point x="370" y="474" type="line" smooth="yes"/>
      <point x="405" y="360" type="line" smooth="yes"/>
      <point x="425" y="360" type="line" smooth="yes"/>
      <point x="425" y="364" type="line" smooth="yes"/>
      <point x="384" y="486" type="line" smooth="yes"/>
      <point x="240" y="536" type="line" smooth="yes"/>
      <point x="104" y="498" type="line" smooth="yes"/>
      <point x="55" y="398" type="line" smooth="yes"/>
      <point x="55" y="392" type="line" smooth="yes"/>
      <point x="90" y="306" type="line" smooth="yes"/>
      <point x="230" y="262" type="line" smooth="yes"/>
      <point x="366" y="232" type="line" smooth="yes"/>
      <point x="410" y="140" type="line" smooth="yes"/>
      <point x="364" y="48" type="line" smooth="yes"/>
    </contour>
  </outline>
</glyph>
<glyph name="Scedilla" format="1">
  <advance width="580"/>
  <unicode hex="015E"/>
  <outline>
    <contour>
      <point x="211" y="-188" type="line" smooth="yes"/>
      <point x="249" y="-201" type="line" smooth="yes"/>
      <point x="290" y="-206" type="line" smooth="yes"/>
      <point x="353" y="-192" type="line" smooth="yes"/>
      <point x="381" y="-135" type="line" smooth="yes"/>
      <point x="353" y="-78" type="line" smooth="yes"/>
      <point x="295" y="-64" type="line" smooth="yes"/>
      <point x="285" y="-64" type="line" smooth="yes"/>
      <point x="277" y="-65" type="line" smooth="yes"/>
      <point x="298" y="-6" type="line" smooth="yes"/>
      <point x="463" y="49" type="line" smooth="yes"/>
      <point x="530" y="201" type="line" smooth="yes"/>
      <point x="530" y="211" type="line" smooth="yes"/>
      <point x="477" y="347" type="line" smooth="yes"/>
      <point x="296" y="414" type="line" smooth="yes"/>
      <point x="127" y="469" type="line" smooth="yes"/>
      <point x="77" y="585" type="line" smooth="yes"/>
      <point x="77" y="595" type="line" smooth="yes"/>
      <point x="140" y="719" type="line" smooth="yes"/>
      <point x="287" y="766" type="line" smooth="yes"/>
      <point x="293" y="766" type="line" smooth="yes"/>
      <point x="452" y="708" type="line" smooth="yes"/>
      <point x="505" y="520" type="line" smooth="yes"/>
      <point x="525" y="520" type="line" smooth="yes"/>
      <point x="525" y="545" type="line" smooth="yes"/>
      <point x="468" y="721" type="line" smooth="yes"/>
      <point x="289" y="786" type="line" smooth="yes"/>
      <point x="123" y="734" type="line" smooth="yes"/>
      <point x="55" y="590" type="line" smooth="yes"/>
      <point x="55" y="580" type="line" smooth="yes"/>
      <point x="107" y="458" type="line" smooth="yes"/>
      <point x="286" y="395" type="line" smooth="yes"/>
      <point x="458" y="336" type="line" smooth="yes"/>
      <point x="510" y="207" type="line" smooth="yes"/>
      <point x="510" y="197" type="line" smooth="yes"/>
      <point x="448" y="62" type="line" smooth="yes"/>
      <point x="293" y="14" type="line" smooth="yes"/>
      <point x="287" y="14" type="line" smooth="yes"/>
      <point x="127" y="74" type="line" smooth="yes"/>
      <point x="70" y="250" type="line" smooth="yes"/>
      <point x="50" y="250" type="line" smooth="yes"/>
      <point x="50" y="240" type="line" smooth="yes"/>
      <point x="107" y="65" type="line" smooth="yes"/>
      <point x="278" y="-6" type="line" smooth="yes"/>
      <point x="254" y="-73" type="line" smooth="yes"/>
      <point x="265" y="-84" type="line" smooth="yes"/>
      <point x="272" y="-83" type="line" smooth="yes"/>
      <point x="290" y="-82" type="line" smooth="yes"/>
      <point x="341" y="-91" type="line" smooth="yes"/>
      <point x="363" y="-135" type="line" smooth="yes"/>
      <point x="341" y="-180" type="line" smooth="yes"/>
      <point x="290" y="-188" type="line" smooth="yes"/>
      <point x="251" y="-183" type="line" smooth="yes"/>
      <point x="217" y="-172" type="line" smooth="yes"/>
    </contour>
  </outline>
</glyph>
<glyph name="scedilla" format="1">
  <advance width="480"/>
  <unicode hex="015F"/>
  <outline>
    <contour>
      <point x="161" y="-188" type="line" smooth="yes"/>
      <point x="199" y="-201" type="line" smooth="yes"/>
      <point x="240" y="-206" type="line" smooth="yes"/>
      <point x="303" y="-192" type="line" smooth="yes"/>
      <point x="331" y="-135" type="line" smooth="yes"/>
      <point x="303" y="-78" type="line" smooth="yes"/>
      <point x="245" y="-64" type="line" smooth="yes"/>
      <point x="235" y="-64" type="line" smooth="yes"/>
      <point x="227" y="-65" type="line" smooth="yes"/>
      <point x="248" y="-6" type="line" smooth="yes"/>
      <point x="382" y="36" type="line" smooth="yes"/>
      <point x="430" y="137" type="line" smooth="yes"/>
      <point x="430" y="143" type="line" smooth="yes"/>
      <point x="390" y="239" type="line" smooth="yes"/>
      <point x="250" y="278" type="line" smooth="yes"/>
      <point x="109" y="315" type="line" smooth="yes"/>
      <point x="75" y="395" type="line" smooth="yes"/>
      <point x="120" y="484" type="line" smooth="yes"/>
      <point x="240" y="516" type="line" smooth="yes"/>
      <point x="370" y="474" type="line" smooth="yes"/>
      <point x="405" y="360" type="line" smooth="yes"/>
      <point x="425" y="360" type="line" smooth="yes"/>
      <point x="425" y="364" type="line" smooth="yes"/>
      <point x="384" y="486" type="line" smooth="yes"/>
      <point x="240" y="536" type="line" smooth="yes"/>
      <point x="104" y="498" type="line" smooth="yes"/>
      <point x="55" y="398" type="line" smooth="yes"/>
      <point x="55" y="392" type="line" smooth="yes"/>
      <point x="90" y="306" type="line" smooth="yes"/>
      <point x="230" y="262" type="line" smooth="yes"/>
      <point x="366" y="232" type="line" smooth="yes"/>
      <point x="410" y="140" type="line" smooth="yes"/>
      <point x="364" y="48" type="line" smooth="yes"/>
      <point x="240" y="14" type="line" smooth="yes"/>
      <point x="104" y="59" type="line" smooth="yes"/>
      <point x="70" y="160" type="line" smooth="yes"/>
      <point x="50" y="160" type="line" smooth="yes"/>
      <point x="50" y="156" type="line" smooth="yes"/>
      <point x="87" y="48" type="line" smooth="yes"/>
      <point x="228" y="-6" type="line" smooth="yes"/>
      <point x="204" y="-73" type="line" smooth="yes"/>
      <point x="215" y="-84" type="line" smooth="yes"/>
      <point x="222" y="-83" type="line" smooth="yes"/>
      <point x="240" y="-82" type="line" smooth="yes"/>
      <point x="291" y="-91" type="line" smooth="yes"/>
      <point x="313" y="-135" type="line" smooth="yes"/>
      <point x="291" y="-180" type="line" smooth="yes"/>
      <point x="240" y="-188" type="line" smooth="yes"/>
      <point x="201" y="-183" type="line" smooth="yes"/>
      <point x="167" y="-172" type="line" smooth="yes"/>
    </contour>
  </outline>
</glyph>
<glyph name="Tbar" format="1">
  <advance width="490"/>
  <unicode hex="0166"/>
  <outline>
    <contour>
      <point x="235" y="408" type="line" smooth="yes"/>
      <point x="115" y="408" type="line" smooth="yes"/>
      <point x="115" y="388" type="line" smooth="yes"/>
      <point x="235" y="388" type="line" smooth="yes"/>
      <point x="235" y="0" type="line" smooth="yes"/>
      <point x="255" y="0" type="line" smooth="yes"/>
      <point x="255" y="388" type="line" smooth="yes"/>
      <point x="375" y="388" type="line" smooth="yes"/>
      <point x="375" y="408" type="line" smooth="yes"/>
      <point x="255" y="408" type="line" smooth="yes"/>
      <point x="255" y="760" type="line" smooth="yes"/>
      <point x="465" y="760" type="line" smooth="yes"/>
      <point x="465" y="780" type="line" smooth="yes"/>
      <point x="25" y="780" type="line" smooth="yes"/>
      <point x="25" y="760" type="line" smooth="yes"/>
      <point x="235" y="760" type="line" smooth="yes"/>
    </contour>
  </outline>
</glyph>
<glyph name="tbar" format="1">
  <advance width="360"/>
  <unicode hex="0167"/>
  <outline>
    <contour>
      <point x="30" y="255" type="line" smooth="yes"/>
      <point x="115" y="255" type="line" smooth="yes"/>
      <point x="115" y="129" type="line" smooth="yes"/>
      <point x="154" y="21" type="line" smooth="yes"/>
      <point x="246" y="-6" type="line" smooth="yes"/>
      <point x="290" y="-2" type="line" smooth="yes"/>
      <point x="310" y="4" type="line" smooth="yes"/>
      <point x="310" y="24" type="line" smooth="yes"/>
      <point x="286" y="18" type="line" smooth="yes"/>
      <point x="250" y="14" type="line" smooth="yes"/>
      <point x="167" y="37" type="line" smooth="yes"/>
      <point x="135" y="135" type="line" smooth="yes"/>
      <point x="135" y="255" type="line" smooth="yes"/>
      <point x="280" y="255" type="line" smooth="yes"/>
      <point x="280" y="275" type="line" smooth="yes"/>
      <point x="135" y="275" type="line" smooth="yes"/>
      <point x="135" y="510" type="line" smooth="yes"/>
      <point x="320" y="510" type="line" smooth="yes"/>
      <point x="320" y="530" type="line" smooth="yes"/>
      <point x="135" y="530" type="line" smooth="yes"/>
      <point x="135" y="680" type="line" smooth="yes"/>
      <point x="115" y="680" type="line" smooth="yes"/>
      <point x="115" y="530" type="line" smooth="yes"/>
      <point x="30" y="530" type="line" smooth="yes"/>
      <point x="30" y="510" type="line" smooth="yes"/>
      <point x="115" y="510" type="line" smooth="yes"/>
      <point x="115" y="275" type="line" smooth="yes"/>
      <point x="30" y="275" type="line" smooth="yes"/>
    </contour>
  </outline>
</glyph>
<glyph name="utilde" format="1">
  <advance width="490"/>
  <unicode hex="0169"/>
  <outline>
    <contour>
      <point x="357" y="732" type="line" smooth="yes"/>
      <point x="343" y="689" type="line" smooth="yes"/>
      <point x="312" y="680" type="line" smooth="yes"/>
      <point x="241" y="709" type="line" smooth="yes"/>
      <point x="165" y="738" type="line" smooth="yes"/>
      <point x="124" y="723" type="line" smooth="yes"/>
      <point x="105" y="668" type="line" smooth="yes"/>
      <point x="123" y="668" type="line" smooth="yes"/>
      <point x="137" y="711" type="line" smooth="yes"/>
      <point x="168" y="720" type="line" smooth="yes"/>
      <point x="239" y="691" type="line" smooth="yes"/>
      <point x="315" y="662" type="line" smooth="yes"/>
      <point x="356" y="677" type="line" smooth="yes"/>
      <point x="375" y="732" type="line" smooth="yes"/>
    </contour>
    <contour>
      <point x="60" y="530" type="line" smooth="yes"/>
      <point x="60" y="150" type="line" smooth="yes"/>
      <point x="101" y="32" type="line" smooth="yes"/>
      <point x="219" y="-6" type="line" smooth="yes"/>
      <point x="336" y="22" type="line" smooth="yes"/>
      <point x="402" y="81" type="line" smooth="yes"/>
      <point x="410" y="0" type="line" smooth="yes"/>
      <point x="425" y="0" type="line" smooth="yes"/>
      <point x="420" y="120" type="line" smooth="yes"/>
      <point x="420" y="530" type="line" smooth="yes"/>
      <point x="400" y="530" type="line" smooth="yes"/>
      <point x="400" y="107" type="line" smooth="yes"/>
      <point x="336" y="44" type="line" smooth="yes"/>
      <point x="221" y="14" type="line" smooth="yes"/>
      <point x="116" y="45" type="line" smooth="yes"/>
      <point x="80" y="155" type="line" smooth="yes"/>
      <point x="80" y="530" type="line" smooth="yes"/>
    </contour>
  </outline>
</glyph>
<glyph name="ubreve" format="1">
  <advance width="490"/>
  <unicode hex="016D"/>
  <outline>
    <contour>
      <point x="240" y="614" type="line" smooth="yes"/>
      <point x="353" y="663" type="line" smooth="yes"/>
      <point x="390" y="780" type="line" smooth="yes"/>
      <point x="372" y="780" type="line" smooth="yes"/>
      <point x="340" y="676" type="line" smooth="yes"/>
      <point x="240" y="632" type="line" smooth="yes"/>
      <point x="140" y="676" type="line" smooth="yes"/>
      <point x="108" y="780" type="line" smooth="yes"/>
      <point x="90" y="780" type="line" smooth="yes"/>
      <point x="128" y="663" type="line" smooth="yes"/>
    </contour>
    <contour>
      <point x="60" y="530" type="line" smooth="yes"/>
      <point x="60" y="150" type="line" smooth="yes"/>
      <point x="101" y="32" type="line" smooth="yes"/>
      <point x="219" y="-6" type="line" smooth="yes"/>
      <point x="336" y="22" type="line" smooth="yes"/>
      <point x="402" y="81" type="line" smooth="yes"/>
      <point x="410" y="0" type="line" smooth="yes"/>
      <point x="425" y="0" type="line" smooth="yes"/>
      <point x="420" y="120" type="line" smooth="yes"/>
      <point x="420" y="530" type="line" smooth="yes"/>
      <point x="400" y="530" type="line" smooth="yes"/>
      <point x="400" y="107" type="line" smooth="yes"/>
      <point x="336" y="44" type="line" smooth="yes"/>
      <point x="221" y="14" type="line" smooth="yes"/>
      <point x="116" y="45" type="line" smooth="yes"/>
      <point x="80" y="155" type="line" smooth="yes"/>
      <point x="80" y="530" type="line" smooth="yes"/>
    </contour>
  </outline>
</glyph>
<glyph name="Uring" format="1">
  <advance width="620"/>
  <unicode hex="016E"/>
  <outline>
    <contour>
      <point x="242" y="870" type="line" smooth="yes"/>
      <point x="262" y="918" type="line" smooth="yes"/>
      <point x="310" y="938" type="line" smooth="yes"/>
      <point x="358" y="918" type="line" smooth="yes"/>
      <point x="378" y="870" type="line" smooth="yes"/>
      <point x="358" y="822" type="line" smooth="yes"/>
      <point x="310" y="802" type="line" smooth="yes"/>
      <point x="262" y="822" type="line" smooth="yes"/>
    </contour>
    <contour>
      <point x="224" y="870" type="line" smooth="yes"/>
      <point x="249" y="809" type="line" smooth="yes"/>
      <point x="310" y="784" type="line" smooth="yes"/>
      <point x="371" y="809" type="line" smooth="yes"/>
      <point x="396" y="870" type="line" smooth="yes"/>
      <point x="371" y="931" type="line" smooth="yes"/>
      <point x="310" y="956" type="line" smooth="yes"/>
      <point x="249" y="931" type="line" smooth="yes"/>
    </contour>
    <contour>
      <point x="310" y="-6" type="line" smooth="yes"/>
      <point x="479" y="46" type="line" smooth="yes"/>
      <point x="543" y="243" type="line" smooth="yes"/>
      <point x="543" y="780" type="line" smooth="yes"/>
      <point x="523" y="780" type="line" smooth="yes"/>
      <point x="523" y="246" type="line" smooth="yes"/>
      <point x="467" y="62" type="line" smooth="yes"/>
      <point x="310" y="14" type="line" smooth="yes"/>
      <point x="153" y="62" type="line" smooth="yes"/>
      <point x="97" y="246" type="line" smooth="yes"/>
      <point x="97" y="780" type="line" smooth="yes"/>
      <point x="77" y="780" type="line" smooth="yes"/>
      <point x="77" y="243" type="line" smooth="yes"/>
      <point x="141" y="46" type="line" smooth="yes"/>
    </contour>
  </outline>
</glyph>
<glyph name="uring" format="1">
  <advance width="490"/>
  <unicode hex="016F"/>
  <outline>
    <contour>
      <point x="172" y="700" type="line" smooth="yes"/>
      <point x="192" y="748" type="line" smooth="yes"/>
      <point x="240" y="768" type="line" smooth="yes"/>
      <point x="288" y="748" type="line" smooth="yes"/>
      <point x="308" y="700" type="line" smooth="yes"/>
      <point x="288" y="652" type="line" smooth="yes"/>
      <point x="240" y="632" type="line" smooth="yes"/>
      <point x="192" y="652" type="line" smooth="yes"/>
    </contour>
    <contour>
      <point x="154" y="700" type="line" smooth="yes"/>
      <point x="179" y="639" type="line" smooth="yes"/>
      <point x="240" y="614" type="line" smooth="yes"/>
      <point x="301" y="639" type="line" smooth="yes"/>
      <point x="326" y="700" type="line" smooth="yes"/>
      <point x="301" y="761" type="line" smooth="yes"/>
      <point x="240" y="786" type="line" smooth="yes"/>
      <point x="179" y="761" type="line" smooth="yes"/>
    </contour>
    <contour>
      <point x="60" y="530" type="line" smooth="yes"/>
      <point x="60" y="150" type="line" smooth="yes"/>
      <point x="101" y="32" type="line" smooth="yes"/>
      <point x="219" y="-6" type="line" smooth="yes"/>
      <point x="336" y="22" type="line" smooth="yes"/>
      <point x="402" y="81" type="line" smooth="yes"/>
      <point x="410" y="0" type="line" smooth="yes"/>
      <point x="425" y="0" type="line" smooth="yes"/>
      <point x="420" y="120" type="line" smooth="yes"/>
      <point x="420" y="530" type="line" smooth="yes"/>
      <point x="400" y="530" type="line" smooth="yes"/>
      <point x="400" y="107" type="line" smooth="yes"/>
      <point x="336" y="44" type="line" smooth="yes"/>
      <point x="221" y="14" type="line" smooth="yes"/>
      <point x="116" y="45" type="line" smooth="yes"/>
      <point x="80" y="155" type="line" smooth="yes"/>
      <point x="80" y="530" type="line" smooth="yes"/>
    </contour>
  </outline>
</glyph>
